<svg xmlns="http://www.w3.org/2000/svg" xmlns:xlink="http://www.w3.org/1999/xlink" width="500" zoomAndPan="magnify" viewBox="0 0 375 374.999991" height="500" preserveAspectRatio="xMidYMid meet" version="1.0"><defs><clipPath id="bd256e87d7"><path d="M 0 68.4375 L 375 68.4375 L 375 306.9375 L 0 306.9375 Z M 0 68.4375 " clip-rule="nonzero"/></clipPath></defs><g clip-path="url(#bd256e87d7)"><path fill="#333333" d="M 187.304688 68.566406 C 157.832031 68.632812 128.441406 69.777344 99.902344 71.800781 C 71.601562 95.429688 65.839844 108.882812 55.164062 128.058594 C 50.253906 128.300781 54.738281 117.226562 51.261719 116.335938 C 40.734375 113.582031 30.910156 117.199219 28.035156 119.59375 C 26.046875 121.039062 26.054688 123.28125 25.945312 125.214844 C 25.601562 131.355469 30.429688 135.980469 42.507812 135.4375 C 44.28125 130.785156 47.796875 130.160156 51.484375 129.929688 C 48.277344 130.949219 44.320312 131.3125 44.527344 135.324219 C 48.839844 134.988281 50.664062 135.828125 52.492188 136.222656 C 48.9375 140.550781 43.632812 145.882812 40.320312 151.503906 C 40.121094 148.53125 44.480469 143.535156 46.996094 140.71875 C 27.148438 151.929688 16.066406 166.269531 6.386719 176.449219 C 2.625 188.585938 0.0625 200.71875 0.328125 212.855469 C 2.632812 215.9375 5.316406 218.027344 10.199219 219.148438 C 6.210938 218.78125 2.539062 218.4375 0.328125 215.328125 L 2.796875 264.542969 C 6.175781 265.09375 10.414062 266.878906 12.609375 269.824219 C 10.542969 269.355469 5.707031 265.585938 3.019531 266.113281 C 1.765625 275.496094 2.902344 283.753906 4.140625 291.960938 C 4.574219 299.640625 12.09375 306.625 16.257812 306.792969 L 64.496094 306.117188 C 67.976562 306.273438 68.046875 302.34375 67.914062 300.894531 C 61.015625 301.621094 56.171875 300.210938 52.671875 299.054688 C 72.613281 300.335938 95.984375 299.574219 117.226562 299.574219 C 143.894531 293.515625 164.011719 297.207031 187.546875 296.058594 C 211.085938 297.207031 231.203125 293.515625 257.867188 299.574219 C 279.109375 299.574219 302.484375 300.335938 322.425781 299.054688 C 318.921875 300.210938 314.078125 301.621094 307.179688 300.894531 C 307.046875 302.34375 307.117188 306.273438 310.597656 306.117188 L 358.839844 306.792969 C 363.003906 306.625 370.523438 299.640625 370.957031 291.960938 C 372.195312 283.753906 373.328125 275.496094 372.078125 266.113281 C 369.386719 265.585938 364.554688 269.355469 362.488281 269.824219 C 364.683594 266.878906 368.921875 265.09375 372.300781 264.542969 L 374.769531 215.328125 C 372.558594 218.4375 368.886719 218.78125 364.898438 219.148438 C 369.78125 218.027344 372.464844 215.9375 374.769531 212.855469 C 375.035156 200.71875 372.472656 188.585938 368.710938 176.449219 C 359.03125 166.269531 347.945312 151.925781 328.097656 140.71875 C 330.617188 143.535156 334.976562 148.53125 334.773438 151.503906 C 331.464844 145.882812 326.15625 140.550781 322.601562 136.222656 C 324.429688 135.828125 326.253906 134.988281 330.566406 135.324219 C 330.773438 131.3125 326.820312 130.949219 323.613281 129.929688 C 327.300781 130.160156 330.8125 130.785156 332.585938 135.4375 C 344.667969 135.980469 349.492188 131.355469 349.148438 125.214844 C 349.042969 123.28125 349.050781 121.039062 347.058594 119.59375 C 344.1875 117.199219 334.359375 113.585938 323.832031 116.335938 C 320.355469 117.226562 324.84375 128.300781 319.933594 128.058594 C 309.257812 108.882812 303.496094 95.429688 275.195312 71.800781 C 246.328125 69.511719 216.773438 68.5 187.300781 68.566406 Z M 104.347656 72.28125 C 101.960938 73.335938 98.984375 75.449219 98.792969 77.605469 C 155.195312 72.019531 219.539062 70.65625 276.3125 77.605469 C 276.121094 75.449219 273.144531 73.335938 270.757812 72.28125 C 282.246094 74.425781 306.90625 115.367188 313.433594 127.738281 C 227.121094 122.246094 139.351562 122.6875 61.660156 127.738281 C 68.191406 115.367188 92.851562 74.421875 104.339844 72.28125 Z M 70.742188 152.378906 C 73.210938 157.601562 77.398438 167.371094 81.246094 176.226562 C 90.03125 176.363281 96.613281 177.128906 103.652344 177.769531 L 103.234375 179.453125 C 95.863281 178.75 89.015625 177.78125 80.6875 177.558594 C 77.371094 169.183594 74.054688 160.988281 70.742188 152.378906 Z M 304.355469 152.378906 C 301.039062 160.988281 297.726562 169.1875 294.414062 177.558594 C 286.082031 177.78125 279.234375 178.75 271.863281 179.453125 L 271.445312 177.769531 C 278.484375 177.132812 285.0625 176.363281 293.851562 176.226562 C 297.695312 167.371094 301.886719 157.601562 304.355469 152.378906 Z M 34.59375 169.605469 C 36.421875 169.640625 38.300781 169.863281 40.246094 170.324219 C 49.414062 173.261719 55.976562 176.664062 77.6875 177.316406 L 93.554688 208.78125 C 105.929688 231.769531 107.433594 257.871094 130.679688 277.746094 C 148.484375 282.054688 167.097656 281.09375 185.445312 281.851562 C 185.816406 281.851562 186.183594 281.84375 186.554688 281.84375 L 186.210938 281.875 C 185.957031 281.867188 185.699219 281.863281 185.445312 281.851562 C 166.605469 281.851562 148.109375 283.59375 128.445312 279.484375 C 103.675781 254.234375 104.125 233.195312 91.96875 210.050781 C 15.046875 207.261719 13.847656 199.933594 12.324219 197.972656 C 10.804688 196.015625 9.441406 193.738281 12.4375 174.90625 C 19.71875 172.773438 26.675781 169.449219 34.59375 169.605469 Z M 340.503906 169.605469 C 348.421875 169.449219 355.378906 172.773438 362.660156 174.90625 C 365.65625 193.738281 364.292969 196.015625 362.773438 197.972656 C 361.25 199.933594 360.046875 207.261719 283.125 210.050781 C 270.96875 233.195312 271.417969 254.234375 246.648438 279.484375 C 226.984375 283.59375 208.492188 281.851562 189.652344 281.851562 C 189.394531 281.863281 189.136719 281.867188 188.882812 281.875 L 188.542969 281.84375 C 188.910156 281.84375 189.28125 281.851562 189.652344 281.851562 C 208 281.09375 226.613281 282.050781 244.414062 277.746094 C 267.660156 257.871094 269.164062 231.769531 281.539062 208.78125 L 297.40625 177.316406 C 319.121094 176.664062 325.679688 173.257812 334.847656 170.324219 C 336.792969 169.863281 338.675781 169.640625 340.503906 169.605469 Z M 137.53125 170.929688 C 151.949219 171.078125 167.960938 172.730469 178.132812 173.898438 C 180.320312 174.152344 180.371094 177.835938 182.53125 177.851562 C 183.46875 177.855469 183.355469 179.589844 183.507812 180.339844 C 183.71875 186.113281 188.253906 216.925781 176.683594 218.792969 C 165.027344 219.171875 145.816406 219.734375 133.527344 218.632812 C 99.035156 215.953125 104.21875 180.820312 106.527344 176.972656 C 110.300781 172.132812 123.117188 170.777344 137.53125 170.925781 Z M 237.546875 170.929688 C 251.964844 170.78125 264.78125 172.132812 268.554688 176.972656 C 270.863281 180.824219 276.046875 215.953125 241.554688 218.632812 C 229.265625 219.734375 210.050781 219.171875 198.398438 218.792969 C 186.828125 216.925781 191.367188 186.113281 191.578125 180.339844 C 191.726562 179.589844 191.613281 177.855469 192.550781 177.851562 C 194.714844 177.839844 194.757812 174.152344 196.949219 173.898438 C 207.117188 172.730469 223.132812 171.078125 237.546875 170.929688 Z M 23.429688 177.039062 C 22.28125 178.425781 21.402344 179.976562 20.789062 181.691406 C 20.175781 183.40625 19.871094 185.175781 19.871094 187 C 19.871094 188.007812 19.964844 189.007812 20.152344 189.992188 C 20.34375 190.980469 20.625 191.941406 20.996094 192.871094 C 21.371094 193.800781 21.828125 194.683594 22.367188 195.523438 C 22.910156 196.359375 23.523438 197.132812 24.210938 197.847656 C 24.898438 198.558594 25.648438 199.195312 26.457031 199.753906 C 27.269531 200.3125 28.121094 200.785156 29.023438 201.171875 C 29.921875 201.558594 30.847656 201.847656 31.804688 202.042969 C 32.757812 202.242188 33.722656 202.339844 34.695312 202.339844 C 35.445312 202.339844 36.1875 202.28125 36.925781 202.164062 C 37.664062 202.046875 38.386719 201.871094 39.101562 201.640625 C 39.8125 201.410156 40.507812 201.125 41.179688 200.789062 C 41.847656 200.449219 42.492188 200.058594 43.105469 199.621094 C 43.722656 199.183594 44.300781 198.699219 44.84375 198.167969 C 45.386719 197.640625 45.890625 197.070312 46.351562 196.460938 C 46.8125 195.855469 47.226562 195.214844 47.59375 194.539062 C 47.960938 193.867188 48.277344 193.171875 48.539062 192.449219 C 47.84375 193.289062 47.070312 194.046875 46.214844 194.714844 C 45.363281 195.382812 44.449219 195.949219 43.476562 196.410156 C 42.503906 196.875 41.496094 197.226562 40.449219 197.460938 C 39.402344 197.699219 38.347656 197.820312 37.273438 197.820312 C 36.300781 197.820312 35.335938 197.722656 34.382812 197.523438 C 33.425781 197.328125 32.5 197.039062 31.601562 196.652344 C 30.699219 196.265625 29.847656 195.792969 29.035156 195.234375 C 28.226562 194.675781 27.476562 194.039062 26.789062 193.328125 C 26.101562 192.613281 25.488281 191.839844 24.945312 191.003906 C 24.40625 190.164062 23.949219 189.28125 23.574219 188.351562 C 23.203125 187.421875 22.921875 186.460938 22.730469 185.472656 C 22.542969 184.488281 22.449219 183.488281 22.449219 182.480469 C 22.453125 180.605469 22.78125 178.789062 23.429688 177.039062 Z M 351.648438 177.039062 C 352.300781 178.789062 352.628906 180.605469 352.632812 182.480469 C 352.632812 183.488281 352.539062 184.488281 352.347656 185.472656 C 352.160156 186.460938 351.878906 187.421875 351.503906 188.351562 C 351.132812 189.28125 350.675781 190.164062 350.136719 191.003906 C 349.59375 191.839844 348.980469 192.613281 348.289062 193.328125 C 347.601562 194.039062 346.855469 194.675781 346.042969 195.234375 C 345.234375 195.792969 344.378906 196.265625 343.480469 196.652344 C 342.582031 197.039062 341.652344 197.328125 340.699219 197.523438 C 339.742188 197.722656 338.78125 197.820312 337.804688 197.820312 C 336.734375 197.820312 335.675781 197.699219 334.632812 197.464844 C 333.585938 197.226562 332.578125 196.875 331.605469 196.410156 C 330.632812 195.949219 329.71875 195.382812 328.863281 194.714844 C 328.011719 194.046875 327.234375 193.289062 326.539062 192.449219 C 326.804688 193.171875 327.121094 193.867188 327.488281 194.542969 C 327.855469 195.214844 328.269531 195.855469 328.730469 196.460938 C 329.191406 197.070312 329.691406 197.640625 330.238281 198.167969 C 330.78125 198.699219 331.359375 199.183594 331.972656 199.621094 C 332.589844 200.058594 333.230469 200.449219 333.902344 200.789062 C 334.574219 201.125 335.265625 201.410156 335.980469 201.640625 C 336.691406 201.871094 337.417969 202.046875 338.15625 202.164062 C 338.894531 202.28125 339.636719 202.339844 340.382812 202.339844 C 341.359375 202.339844 342.320312 202.242188 343.277344 202.042969 C 344.230469 201.847656 345.160156 201.558594 346.058594 201.171875 C 346.957031 200.785156 347.8125 200.3125 348.621094 199.753906 C 349.433594 199.195312 350.179688 198.558594 350.867188 197.847656 C 351.558594 197.132812 352.171875 196.359375 352.714844 195.523438 C 353.253906 194.683594 353.710938 193.800781 354.082031 192.871094 C 354.457031 191.941406 354.738281 190.980469 354.925781 189.992188 C 355.117188 189.007812 355.210938 188.007812 355.210938 187 C 355.210938 185.175781 354.902344 183.40625 354.292969 181.691406 C 353.679688 179.976562 352.796875 178.425781 351.648438 177.039062 Z M 108.878906 179.265625 C 107.8125 183.226562 109.519531 196.648438 113.386719 200.9375 C 113.601562 201.125 113.828125 201.300781 114.050781 201.480469 L 112.738281 179.480469 C 111.449219 179.40625 110.171875 179.339844 108.878906 179.265625 Z M 266.21875 179.265625 C 264.925781 179.339844 263.644531 179.40625 262.355469 179.480469 L 261.046875 201.480469 C 261.269531 201.300781 261.496094 201.125 261.707031 200.9375 C 265.578125 196.648438 267.285156 183.226562 266.21875 179.269531 Z M 114.015625 179.554688 L 115.390625 202.503906 C 116.71875 203.441406 118.183594 204.289062 119.757812 205.050781 L 118.265625 179.785156 C 116.851562 179.707031 115.4375 179.632812 114.015625 179.550781 Z M 261.070312 179.554688 C 259.648438 179.632812 258.238281 179.707031 256.824219 179.785156 L 255.328125 205.054688 C 256.902344 204.289062 258.367188 203.445312 259.695312 202.503906 Z M 119.554688 179.855469 L 121.082031 205.667969 C 122.4375 206.261719 123.871094 206.800781 125.367188 207.289062 L 123.882812 180.089844 C 122.453125 180.015625 120.992188 179.929688 119.554688 179.855469 Z M 255.535156 179.855469 C 254.09375 179.933594 252.636719 180.019531 251.203125 180.089844 L 249.722656 207.289062 C 251.21875 206.800781 252.648438 206.261719 254.007812 205.667969 Z M 125.164062 180.15625 L 126.667969 207.691406 C 128.046875 208.105469 129.488281 208.460938 130.957031 208.789062 L 129.5 180.367188 C 128.058594 180.300781 126.617188 180.230469 125.164062 180.15625 Z M 249.925781 180.15625 C 248.472656 180.230469 247.027344 180.300781 245.585938 180.367188 L 244.128906 208.789062 C 245.597656 208.460938 247.042969 208.101562 248.421875 207.691406 Z M 130.777344 180.433594 L 132.246094 209.078125 C 133.667969 209.371094 135.136719 209.625 136.628906 209.851562 L 135.128906 180.621094 C 133.679688 180.558594 132.238281 180.5 130.777344 180.433594 Z M 244.3125 180.433594 C 242.851562 180.5 241.410156 180.558594 239.960938 180.621094 L 238.460938 209.851562 C 239.949219 209.625 241.414062 209.371094 242.839844 209.078125 Z M 180.300781 180.53125 C 179.085938 180.628906 177.832031 180.714844 176.566406 180.792969 L 178.058594 209.8125 C 182.632812 206.617188 182.417969 185.105469 180.300781 180.53125 Z M 194.78125 180.53125 C 192.667969 185.105469 192.457031 206.617188 197.027344 209.8125 L 198.519531 180.792969 C 197.253906 180.714844 195.996094 180.628906 194.78125 180.53125 Z M 136.449219 180.675781 L 137.953125 210.046875 C 139.410156 210.246094 140.894531 210.414062 142.394531 210.558594 L 140.871094 180.84375 C 139.402344 180.792969 137.933594 180.734375 136.449219 180.675781 Z M 238.640625 180.675781 C 237.152344 180.738281 235.683594 180.792969 234.214844 180.847656 L 232.691406 210.558594 C 234.191406 210.414062 235.679688 210.246094 237.132812 210.046875 Z M 175.257812 180.875 C 173.824219 180.953125 172.34375 181.007812 170.851562 181.058594 L 172.371094 210.585938 C 173.855469 210.480469 175.320312 210.363281 176.761719 210.230469 Z M 199.828125 180.875 L 198.320312 210.230469 C 199.761719 210.363281 201.230469 210.480469 202.71875 210.589844 L 204.234375 181.058594 C 202.742188 181.007812 201.261719 180.953125 199.828125 180.875 Z M 142.1875 180.890625 L 143.71875 210.679688 C 145.179688 210.804688 146.660156 210.902344 148.148438 210.980469 L 146.609375 181.027344 C 145.144531 180.988281 143.671875 180.941406 142.1875 180.890625 Z M 232.898438 180.890625 C 231.414062 180.941406 229.9375 180.988281 228.476562 181.027344 L 226.941406 210.980469 C 228.429688 210.902344 229.90625 210.804688 231.367188 210.679688 Z M 147.929688 181.0625 L 149.464844 211.03125 C 150.933594 211.09375 152.410156 211.132812 153.886719 211.15625 L 152.347656 181.160156 C 150.890625 181.136719 149.414062 181.097656 147.929688 181.0625 Z M 227.160156 181.0625 C 225.675781 181.101562 224.195312 181.136719 222.738281 181.164062 L 221.199219 211.15625 C 222.679688 211.132812 224.152344 211.097656 225.621094 211.03125 Z M 169.539062 181.109375 C 168.097656 181.148438 166.617188 181.175781 165.128906 181.195312 L 166.652344 210.929688 C 168.136719 210.859375 169.601562 210.769531 171.058594 210.671875 Z M 205.550781 181.109375 L 204.03125 210.671875 C 205.488281 210.769531 206.953125 210.859375 208.433594 210.929688 L 209.957031 181.195312 C 208.46875 181.175781 206.988281 181.148438 205.550781 181.105469 Z M 153.667969 181.179688 L 155.207031 211.171875 C 156.675781 211.183594 158.152344 211.167969 159.621094 211.144531 L 158.085938 181.234375 C 156.632812 181.226562 155.148438 181.199219 153.667969 181.179688 Z M 221.425781 181.179688 C 219.941406 181.199219 218.457031 181.226562 217.007812 181.234375 L 215.46875 211.144531 C 216.941406 211.167969 218.410156 211.183594 219.882812 211.171875 L 221.425781 181.175781 Z M 163.8125 181.21875 C 162.371094 181.234375 160.882812 181.230469 159.398438 181.226562 L 160.933594 211.132812 C 162.410156 211.101562 163.878906 211.054688 165.339844 210.996094 Z M 211.273438 181.21875 L 209.746094 210.996094 C 211.207031 211.054688 212.679688 211.101562 214.152344 211.132812 L 215.6875 181.226562 C 214.203125 181.230469 212.714844 181.234375 211.273438 181.21875 Z M 65.074219 192.652344 C 64.445312 193.410156 63.964844 194.257812 63.628906 195.195312 C 63.292969 196.132812 63.125 197.101562 63.125 198.101562 C 63.125 198.652344 63.175781 199.195312 63.28125 199.734375 C 63.382812 200.273438 63.539062 200.800781 63.742188 201.308594 C 63.945312 201.816406 64.195312 202.300781 64.492188 202.757812 C 64.785156 203.214844 65.121094 203.636719 65.5 204.027344 C 65.875 204.417969 66.285156 204.765625 66.726562 205.070312 C 67.171875 205.375 67.636719 205.632812 68.128906 205.84375 C 68.621094 206.054688 69.128906 206.214844 69.648438 206.320312 C 70.171875 206.429688 70.699219 206.480469 71.230469 206.480469 C 72.054688 206.480469 72.855469 206.355469 73.640625 206.101562 C 74.421875 205.847656 75.152344 205.480469 75.828125 204.996094 C 76.503906 204.515625 77.09375 203.9375 77.601562 203.269531 C 78.109375 202.601562 78.507812 201.871094 78.800781 201.078125 C 78.027344 202.007812 77.105469 202.730469 76.03125 203.242188 C 74.957031 203.753906 73.824219 204.011719 72.640625 204.011719 C 72.109375 204.011719 71.582031 203.957031 71.058594 203.851562 C 70.539062 203.742188 70.03125 203.585938 69.539062 203.375 C 69.046875 203.164062 68.582031 202.90625 68.136719 202.597656 C 67.695312 202.292969 67.285156 201.945312 66.910156 201.558594 C 66.535156 201.167969 66.199219 200.746094 65.902344 200.285156 C 65.605469 199.828125 65.355469 199.347656 65.152344 198.835938 C 64.949219 198.328125 64.796875 197.804688 64.691406 197.265625 C 64.589844 196.726562 64.535156 196.179688 64.535156 195.628906 C 64.539062 194.605469 64.71875 193.613281 65.074219 192.652344 Z M 310.019531 192.652344 C 310.375 193.613281 310.554688 194.605469 310.558594 195.628906 C 310.558594 196.179688 310.507812 196.726562 310.402344 197.265625 C 310.296875 197.804688 310.144531 198.328125 309.941406 198.835938 C 309.738281 199.347656 309.488281 199.828125 309.191406 200.285156 C 308.894531 200.746094 308.558594 201.167969 308.183594 201.558594 C 307.808594 201.945312 307.398438 202.292969 306.957031 202.597656 C 306.511719 202.90625 306.046875 203.164062 305.554688 203.375 C 305.0625 203.585938 304.554688 203.742188 304.035156 203.851562 C 303.511719 203.957031 302.984375 204.011719 302.453125 204.011719 C 301.269531 204.011719 300.140625 203.753906 299.0625 203.242188 C 297.988281 202.730469 297.066406 202.007812 296.296875 201.078125 C 296.585938 201.871094 296.988281 202.601562 297.492188 203.269531 C 298 203.9375 298.589844 204.515625 299.265625 204.996094 C 299.941406 205.480469 300.671875 205.847656 301.457031 206.101562 C 302.238281 206.355469 303.042969 206.480469 303.863281 206.480469 C 304.394531 206.480469 304.921875 206.429688 305.445312 206.320312 C 305.964844 206.214844 306.472656 206.054688 306.964844 205.84375 C 307.457031 205.632812 307.925781 205.375 308.367188 205.070312 C 308.808594 204.765625 309.21875 204.417969 309.59375 204.027344 C 309.972656 203.636719 310.308594 203.214844 310.605469 202.757812 C 310.898438 202.300781 311.148438 201.816406 311.351562 201.308594 C 311.554688 200.800781 311.710938 200.277344 311.8125 199.734375 C 311.917969 199.195312 311.96875 198.652344 311.96875 198.101562 C 311.96875 197.101562 311.800781 196.132812 311.464844 195.195312 C 311.132812 194.257812 310.648438 193.410156 310.019531 192.652344 Z M 46.261719 253.125 C 58.535156 253.070312 75.550781 254.046875 99.273438 255.820312 L 98.480469 256.929688 C 93.492188 257.128906 55.21875 252.011719 31.910156 255.890625 C 35.351562 257.277344 37.148438 260.597656 37.148438 264.476562 C 37.148438 269.605469 32.347656 273.765625 26.421875 273.765625 C 24.550781 273.765625 22.710938 273.332031 21.089844 272.523438 C 22.355469 273.085938 23.738281 273.382812 25.136719 273.386719 C 30.445312 273.386719 34.746094 269.308594 34.746094 264.28125 C 34.742188 260.84375 32.714844 257.832031 29.699219 256.289062 C 22.25 257.78125 16.632812 260.324219 14.683594 264.46875 C 14.460938 265.058594 14.253906 265.664062 14.074219 266.304688 C 14.199219 265.660156 14.410156 265.050781 14.683594 264.46875 C 17.625 256.566406 24.460938 253.21875 46.261719 253.125 Z M 328.847656 253.125 C 350.652344 253.21875 357.488281 256.566406 360.429688 264.46875 C 360.703125 265.050781 360.910156 265.660156 361.035156 266.304688 C 360.855469 265.664062 360.652344 265.058594 360.429688 264.46875 C 358.480469 260.324219 352.863281 257.78125 345.414062 256.289062 C 342.398438 257.832031 340.367188 260.84375 340.367188 264.28125 C 340.367188 269.3125 344.667969 273.386719 349.972656 273.386719 C 351.371094 273.382812 352.753906 273.085938 354.019531 272.523438 C 352.398438 273.335938 350.5625 273.765625 348.6875 273.765625 C 342.765625 273.765625 337.960938 269.605469 337.960938 264.476562 C 337.960938 260.597656 339.761719 257.277344 343.203125 255.890625 C 319.894531 252.011719 281.617188 257.128906 276.632812 256.929688 L 275.839844 255.820312 C 299.5625 254.046875 316.574219 253.070312 328.847656 253.125 Z M 121.882812 257.945312 C 164.230469 261.558594 209.195312 262.269531 251.410156 257.945312 C 248.675781 263.09375 244.832031 270.445312 239.078125 273.210938 C 227.050781 278.019531 147.164062 278.152344 134.214844 273.210938 C 128.457031 270.445312 124.617188 263.09375 121.882812 257.945312 Z M 39.332031 263.21875 L 104.671875 265.890625 L 106.351562 268.023438 C 86.878906 265.394531 62.832031 264.40625 39.332031 263.21875 Z M 335.785156 263.21875 C 312.285156 264.40625 288.234375 265.394531 268.761719 268.023438 L 270.445312 265.890625 Z M 103.992188 283.757812 C 131.734375 285.800781 159.539062 286.75 187.550781 286.160156 C 215.566406 286.75 243.371094 285.800781 271.117188 283.757812 L 270.890625 284.992188 C 243.460938 286.613281 216.027344 287.785156 188.597656 287.300781 L 188.597656 287.273438 C 188.25 287.28125 187.902344 287.28125 187.554688 287.289062 C 187.207031 287.28125 186.859375 287.28125 186.507812 287.273438 L 186.507812 287.300781 C 159.078125 287.785156 131.648438 286.613281 104.214844 284.992188 L 103.988281 283.757812 Z M 19.964844 289.375 C 48.386719 291.082031 89.488281 297.386719 105.785156 291.507812 C 98.085938 300.125 40.746094 291.671875 19.964844 289.375 Z M 355.148438 289.375 C 334.363281 291.671875 277.023438 300.125 269.324219 291.507812 C 285.621094 297.386719 326.722656 291.082031 355.148438 289.375 Z M 355.148438 289.375 " fill-opacity="1" fill-rule="evenodd"/></g></svg>