<svg xmlns="http://www.w3.org/2000/svg" xmlns:xlink="http://www.w3.org/1999/xlink" width="500" zoomAndPan="magnify" viewBox="0 0 375 374.999991" height="500" preserveAspectRatio="xMidYMid meet" version="1.0"><defs><clipPath id="c2bf3640b8"><path d="M 0.0390625 50.625 L 374.960938 50.625 L 374.960938 324.375 L 0.0390625 324.375 Z M 0.0390625 50.625 " clip-rule="nonzero"/></clipPath></defs><g clip-path="url(#c2bf3640b8)"><path fill="#000000" d="M 36.527344 76.847656 C 40 75.441406 51.613281 71.105469 72.140625 66.851562 L 102.441406 123.617188 L 19.476562 123.617188 Z M 187.5 56.574219 C 204.480469 56.574219 221 57.132812 236.632812 58.191406 L 271.546875 123.617188 L 221.101562 123.617188 L 185.339844 56.585938 C 186.058594 56.585938 186.757812 56.574219 187.476562 56.574219 C 187.488281 56.574219 187.5 56.574219 187.5 56.574219 Z M 355.535156 123.617188 L 305.625 123.617188 L 272.617188 61.761719 C 312.402344 67.046875 333.582031 74.871094 338.484375 76.847656 Z M 334.871094 248.835938 C 325.96875 251.371094 269.5 266.550781 190.476562 266.933594 L 190.476562 166.207031 L 368.789062 149.691406 C 367.648438 175.597656 361.523438 219.71875 334.871094 248.835938 Z M 184.523438 166.207031 L 184.523438 266.933594 C 105.953125 266.550781 49.683594 251.542969 40.128906 248.824219 C 13.488281 219.707031 7.363281 175.585938 6.222656 149.691406 Z M 265.386719 60.84375 L 298.886719 123.617188 L 278.289062 123.617188 L 243.652344 58.714844 C 251.289062 59.320312 258.5625 60.027344 265.386719 60.84375 Z M 178.621094 56.632812 L 214.359375 123.617188 L 193.730469 123.617188 L 158.269531 57.121094 C 164.765625 56.878906 171.585938 56.714844 178.621094 56.632812 Z M 151.675781 57.425781 L 186.976562 123.617188 L 136.53125 123.617188 L 103.464844 61.644531 C 118.796875 59.644531 134.964844 58.226562 151.675781 57.425781 Z M 97.164062 62.480469 L 129.789062 123.617188 L 109.183594 123.617188 L 78.242188 65.628906 C 84.066406 64.515625 90.398438 63.457031 97.164062 62.480469 Z M 374.539062 126.339844 C 374.414062 124.804688 373.121094 123.617188 371.578125 123.617188 L 361.871094 123.617188 L 343.632812 73.59375 C 343.355469 72.835938 342.796875 72.234375 342.066406 71.90625 C 341.125 71.464844 318.308594 61.261719 267.640625 55.113281 C 258.714844 54.019531 248.976562 53.089844 238.6875 52.355469 C 222.429688 51.207031 205.214844 50.625 187.5 50.625 C 185.082031 50.625 182.722656 50.625 180.363281 50.660156 C 170.890625 50.742188 161.777344 50.984375 153.269531 51.367188 C 153.222656 51.378906 153.1875 51.378906 153.140625 51.378906 C 134.136719 52.242188 115.773438 53.878906 98.535156 56.261719 C 98.488281 56.261719 98.429688 56.273438 98.386719 56.273438 C 89.167969 57.585938 80.660156 59.027344 73.128906 60.5625 C 46.035156 66.015625 33.457031 71.664062 32.933594 71.894531 C 32.214844 72.234375 31.65625 72.835938 31.378906 73.59375 L 13.140625 123.617188 L 3.433594 123.617188 C 1.890625 123.617188 0.597656 124.804688 0.472656 126.339844 C 0.449219 126.664062 -0.191406 134.417969 0.132812 146.503906 C 0.9375 172.785156 6.675781 221.636719 36.246094 253.4375 C 36.257812 253.449219 36.269531 253.449219 36.269531 253.460938 C 36.269531 253.460938 36.269531 253.460938 36.28125 253.460938 C 36.304688 253.496094 36.328125 253.519531 36.351562 253.542969 C 36.351562 253.542969 36.351562 253.542969 36.351562 253.554688 C 36.363281 253.554688 36.363281 253.554688 36.363281 253.554688 C 41 258.550781 46.183594 263.050781 51.800781 266.933594 C 84.167969 289.203125 106.484375 294.78125 128.058594 300.164062 C 146.421875 304.742188 163.765625 309.066406 185.835938 323.933594 C 185.941406 324.003906 186.058594 324.027344 186.175781 324.085938 C 186.269531 324.132812 186.359375 324.1875 186.476562 324.222656 C 186.800781 324.351562 187.152344 324.433594 187.5 324.433594 C 187.859375 324.433594 188.199219 324.351562 188.535156 324.222656 C 188.640625 324.1875 188.730469 324.132812 188.835938 324.085938 C 188.941406 324.027344 189.058594 324.003906 189.164062 323.933594 C 211.246094 309.066406 228.589844 304.742188 246.941406 300.164062 C 268.527344 294.78125 290.832031 289.203125 323.210938 266.921875 C 328.828125 263.039062 334.023438 258.542969 338.671875 253.53125 C 338.671875 253.53125 338.683594 253.519531 338.683594 253.519531 C 338.683594 253.519531 338.683594 253.507812 338.683594 253.507812 C 338.707031 253.496094 338.71875 253.484375 338.730469 253.460938 C 338.742188 253.449219 338.753906 253.449219 338.753906 253.4375 C 368.335938 221.636719 374.074219 172.785156 374.878906 146.492188 C 375.203125 134.417969 374.5625 126.664062 374.539062 126.339844 " fill-opacity="1" fill-rule="nonzero"/></g></svg>