<svg xmlns="http://www.w3.org/2000/svg" xmlns:xlink="http://www.w3.org/1999/xlink" width="500" zoomAndPan="magnify" viewBox="0 0 375 374.999991" height="500" preserveAspectRatio="xMidYMid meet" version="1.0"><defs><clipPath id="0f7abef64d"><path d="M 1 99.609375 L 373 99.609375 L 373 275 L 1 275 Z M 1 99.609375 " clip-rule="nonzero"/></clipPath></defs><path fill="#e3f2fd" d="M 253.746094 267.660156 C 245.960938 262.730469 239.539062 254.464844 239.539062 254.464844 C 239.539062 254.464844 233.289062 261.308594 222.636719 264.25 C 227.972656 266.648438 234.007812 262.066406 239.878906 262.867188 C 245.746094 263.667969 248.945312 268.460938 253.746094 267.660156 Z M 105.398438 133.628906 C 99.722656 135.304688 93.0625 131.691406 88.148438 134.867188 C 99.121094 136.167969 106.839844 141.769531 106.839844 141.769531 C 106.839844 141.769531 111.433594 132.847656 118.386719 126.796875 C 113.519531 126.734375 111.078125 131.957031 105.398438 133.628906 Z M 255.164062 126.796875 C 262.113281 132.847656 266.710938 141.769531 266.710938 141.769531 C 266.710938 141.769531 274.429688 136.167969 285.398438 134.867188 C 280.488281 131.691406 273.828125 135.304688 268.148438 133.628906 C 262.472656 131.957031 260.03125 126.734375 255.164062 126.796875 Z M 120.09375 267.660156 C 127.878906 262.730469 134.304688 254.464844 134.304688 254.464844 C 134.304688 254.464844 140.554688 261.308594 151.203125 264.25 C 145.867188 266.648438 139.832031 262.066406 133.964844 262.867188 C 128.097656 263.667969 124.894531 268.460938 120.09375 267.660156 " fill-opacity="1" fill-rule="nonzero"/><path fill="#e3f2fd" d="M 279.949219 215.226562 C 279.703125 214.976562 279.304688 214.96875 279.050781 215.214844 C 278.800781 215.453125 278.792969 215.855469 279.039062 216.105469 C 279.039062 216.109375 279.046875 216.117188 279.050781 216.121094 L 306.371094 242.503906 Z M 306.371094 174.160156 L 279.050781 200.539062 C 279.046875 200.546875 279.039062 200.550781 279.039062 200.554688 C 278.792969 200.804688 278.800781 201.207031 279.050781 201.449219 C 279.304688 201.691406 279.703125 201.683594 279.949219 201.433594 Z M 300.320312 234.332031 L 303.261719 237.464844 C 303.773438 237.386719 304.3125 237.53125 304.714844 237.917969 L 307.785156 240.878906 C 308.4375 241.511719 308.472656 242.535156 307.886719 243.214844 C 307.847656 243.300781 307.796875 243.382812 307.726562 243.457031 C 307.546875 243.648438 307.304688 243.742188 307.0625 243.742188 C 306.496094 243.902344 305.863281 243.773438 305.410156 243.335938 L 302.335938 240.371094 C 301.996094 240.042969 301.824219 239.605469 301.820312 239.167969 L 298.171875 235.75 C 296.230469 236.925781 294.171875 237.894531 292.023438 238.632812 C 286.972656 240.378906 281.496094 240.84375 276.222656 240.003906 C 273.589844 239.566406 271.015625 238.8125 268.5625 237.769531 C 266.117188 236.699219 263.808594 235.34375 261.683594 233.738281 C 261.605469 233.675781 261.585938 233.5625 261.648438 233.484375 C 261.703125 233.410156 261.804688 233.390625 261.882812 233.433594 L 261.902344 233.449219 C 263.058594 234.101562 264.21875 234.722656 265.429688 235.226562 C 266.609375 235.78125 267.835938 236.21875 269.054688 236.628906 C 271.511719 237.386719 274.015625 237.921875 276.527344 238.105469 C 279.03125 238.3125 281.539062 238.230469 283.984375 237.84375 C 286.425781 237.460938 288.820312 236.847656 291.078125 235.925781 C 291.640625 235.691406 292.191406 235.433594 292.746094 235.191406 C 293.292969 234.917969 293.824219 234.628906 294.359375 234.355469 C 294.835938 234.070312 295.3125 233.796875 295.792969 233.527344 L 290.9375 228.980469 C 288.507812 230.410156 285.324219 230.085938 283.242188 228.007812 C 281.257812 226.027344 280.867188 223.050781 282.066406 220.675781 L 278.15625 217.015625 C 278.125 216.988281 278.085938 216.949219 278.058594 216.917969 C 277.246094 216.050781 277.289062 214.691406 278.15625 213.878906 C 279.023438 213.0625 280.386719 213.109375 281.203125 213.976562 L 284.871094 217.878906 C 287.25 216.683594 290.226562 217.074219 292.210938 219.050781 C 294.292969 221.132812 294.617188 224.3125 293.1875 226.738281 L 298.09375 231.957031 C 299.800781 230.675781 301.375 229.226562 302.761719 227.613281 C 305.90625 224.011719 308.246094 219.707031 309.355469 215.082031 C 309.96875 212.785156 310.285156 210.414062 310.320312 208.035156 C 310.332031 206.84375 310.261719 205.652344 310.132812 204.46875 C 310.015625 203.277344 309.773438 202.105469 309.535156 200.9375 C 309.035156 198.597656 308.222656 196.324219 307.15625 194.167969 C 306.621094 193.089844 306.007812 192.050781 305.347656 191.035156 C 304.691406 190.019531 303.980469 189.03125 303.199219 188.097656 C 301.925781 186.542969 300.464844 185.136719 298.890625 183.847656 L 293.1875 189.921875 C 294.617188 192.351562 294.292969 195.527344 292.210938 197.609375 C 290.226562 199.585938 287.25 199.976562 284.871094 198.78125 L 281.203125 202.683594 C 280.386719 203.554688 279.023438 203.597656 278.15625 202.785156 C 277.289062 201.972656 277.246094 200.609375 278.058594 199.742188 C 278.085938 199.710938 278.125 199.675781 278.15625 199.644531 L 282.066406 195.984375 C 280.867188 193.609375 281.257812 190.636719 283.242188 188.652344 C 285.324219 186.574219 288.507812 186.253906 290.9375 187.679688 L 296.753906 182.234375 C 295.097656 181.082031 293.316406 180.082031 291.445312 179.265625 C 286.847656 177.179688 281.683594 176.253906 276.375 176.378906 L 276.351562 176.378906 C 276.25 176.378906 276.167969 176.300781 276.167969 176.199219 C 276.164062 176.109375 276.230469 176.03125 276.320312 176.015625 C 281.585938 175.1875 287.054688 175.671875 292.089844 177.445312 C 294.347656 178.234375 296.519531 179.28125 298.554688 180.546875 L 301.996094 177.328125 C 301.992188 176.878906 302.164062 176.429688 302.515625 176.09375 L 305.585938 173.132812 C 306.261719 172.476562 307.34375 172.496094 308 173.171875 L 308 173.175781 C 308.65625 173.851562 308.640625 174.929688 307.960938 175.585938 L 304.886719 178.546875 C 304.488281 178.929688 303.953125 179.074219 303.445312 179 L 300.652344 181.972656 C 302.339844 183.214844 303.910156 184.617188 305.328125 186.160156 C 308.949219 190.078125 311.578125 194.921875 312.875 200.105469 C 314.191406 205.28125 314.21875 210.792969 312.894531 215.980469 C 311.5625 221.164062 308.90625 225.988281 305.292969 229.925781 C 303.792969 231.558594 302.121094 233.039062 300.320312 234.332031 Z M 282.898438 170.984375 C 283.023438 171.917969 283.882812 172.574219 284.816406 172.453125 L 284.820312 172.449219 C 285.757812 172.328125 286.410156 171.46875 286.289062 170.539062 L 285.726562 166.308594 C 285.601562 165.375 284.746094 164.71875 283.808594 164.84375 L 283.804688 164.84375 C 282.871094 164.96875 282.214844 165.824219 282.335938 166.757812 Z M 291.242188 172.574219 L 291.246094 172.574219 C 292.171875 172.742188 293.0625 172.128906 293.230469 171.203125 L 293.996094 167.003906 C 294.164062 166.078125 293.550781 165.191406 292.621094 165.023438 L 292.617188 165.023438 C 291.691406 164.855469 290.800781 165.46875 290.632812 166.394531 L 289.871094 170.59375 C 289.699219 171.519531 290.316406 172.40625 291.242188 172.574219 Z M 297.320312 174.65625 L 297.328125 174.660156 C 298.15625 175.105469 299.191406 174.792969 299.636719 173.960938 L 301.652344 170.203125 C 302.097656 169.371094 301.785156 168.339844 300.953125 167.894531 L 300.949219 167.894531 C 300.117188 167.449219 299.082031 167.761719 298.640625 168.589844 L 296.625 172.351562 C 296.175781 173.179688 296.492188 174.214844 297.320312 174.65625 Z M 284.742188 244.097656 L 284.738281 244.097656 C 283.800781 243.984375 282.953125 244.652344 282.839844 245.585938 L 282.328125 249.820312 C 282.214844 250.753906 282.886719 251.601562 283.820312 251.714844 L 283.824219 251.71875 C 284.757812 251.828125 285.613281 251.164062 285.722656 250.226562 L 286.230469 245.992188 C 286.34375 245.058594 285.679688 244.210938 284.742188 244.097656 Z M 293.136719 245.265625 C 292.957031 244.34375 292.066406 243.734375 291.140625 243.910156 L 291.136719 243.910156 C 290.210938 244.085938 289.601562 244.976562 289.777344 245.902344 L 290.574219 250.09375 C 290.75 251.019531 291.644531 251.625 292.570312 251.449219 L 292.574219 251.449219 C 293.5 251.273438 294.109375 250.382812 293.933594 249.457031 Z M 301.527344 246.238281 C 301.972656 247.066406 301.664062 248.101562 300.832031 248.546875 L 300.832031 248.550781 C 300.003906 249 298.964844 248.691406 298.519531 247.863281 L 296.488281 244.109375 C 296.039062 243.28125 296.347656 242.246094 297.175781 241.800781 L 297.179688 241.800781 C 298.011719 241.351562 299.046875 241.660156 299.496094 242.488281 L 301.527344 246.238281 " fill-opacity="1" fill-rule="nonzero"/><path fill="#e3f2fd" d="M 103.269531 220.8125 C 103.277344 220.816406 103.289062 220.824219 103.292969 220.832031 C 103.683594 221.207031 104.308594 221.191406 104.683594 220.800781 C 105.058594 220.410156 105.042969 219.789062 104.648438 219.417969 L 62.066406 178.804688 Z M 108.328125 232.121094 C 104.582031 234.703125 100.222656 236.398438 95.699219 237.007812 C 93.433594 237.3125 91.136719 237.335938 88.867188 237.113281 C 86.59375 236.875 84.351562 236.375 82.195312 235.625 C 80.03125 234.886719 77.972656 233.863281 76.046875 232.628906 C 74.121094 231.402344 72.339844 229.949219 70.757812 228.300781 C 67.570312 225.023438 65.179688 220.984375 63.816406 216.621094 C 62.496094 212.246094 62.171875 207.566406 62.96875 203.066406 C 63.363281 200.816406 64.011719 198.609375 64.910156 196.511719 C 65.824219 194.417969 66.972656 192.429688 68.332031 190.597656 C 68.84375 189.914062 69.390625 189.261719 69.957031 188.625 L 60.519531 178.695312 C 59.984375 178.132812 60.007812 177.246094 60.570312 176.710938 C 61.109375 176.199219 61.953125 176.203125 62.492188 176.703125 L 72.578125 186.027344 C 74.445312 184.394531 76.507812 182.988281 78.722656 181.878906 C 82.800781 179.824219 87.375 178.808594 91.917969 178.820312 C 92.019531 178.820312 92.097656 178.902344 92.097656 179.003906 C 92.097656 179.09375 92.03125 179.167969 91.945312 179.183594 L 91.917969 179.1875 C 87.4375 179.890625 83.21875 181.3125 79.613281 183.636719 C 77.800781 184.761719 76.109375 186.046875 74.632812 187.535156 C 74.5625 187.601562 74.5 187.671875 74.433594 187.738281 L 86.753906 199.128906 C 88.171875 198.339844 89.800781 197.886719 91.535156 197.886719 C 96.957031 197.886719 101.363281 202.289062 101.363281 207.699219 C 101.363281 209.164062 101.039062 210.554688 100.460938 211.804688 L 106.582031 217.464844 C 107.933594 218.714844 108.015625 220.820312 106.761719 222.171875 C 105.511719 223.523438 103.398438 223.605469 102.046875 222.355469 C 101.992188 222.308594 101.9375 222.253906 101.890625 222.203125 L 96.269531 216.292969 C 94.867188 217.066406 93.253906 217.511719 91.535156 217.511719 C 86.121094 217.511719 81.710938 213.109375 81.710938 207.699219 C 81.710938 205.804688 82.253906 204.035156 83.1875 202.535156 L 71.875 190.636719 C 71.449219 191.183594 71.035156 191.738281 70.660156 192.320312 C 70.105469 193.191406 69.574219 194.070312 69.128906 194.992188 C 68.660156 195.898438 68.253906 196.835938 67.882812 197.78125 C 67.175781 199.683594 66.660156 201.648438 66.378906 203.644531 C 66.234375 204.640625 66.15625 205.640625 66.105469 206.648438 C 66.105469 207.152344 66.089844 207.65625 66.101562 208.15625 C 66.132812 208.65625 66.128906 209.160156 66.1875 209.660156 C 66.339844 211.660156 66.707031 213.636719 67.304688 215.546875 C 67.882812 217.460938 68.699219 219.304688 69.699219 221.039062 C 70.675781 222.792969 71.898438 224.410156 73.253906 225.90625 C 75.957031 228.90625 79.378906 231.265625 83.160156 232.886719 C 85.058594 233.691406 87.066406 234.234375 89.125 234.625 C 91.183594 235.003906 93.3125 235.148438 95.441406 235.050781 C 99.726562 234.929688 104.023438 233.769531 108.125 231.820312 L 108.148438 231.808594 C 108.238281 231.765625 108.347656 231.800781 108.386719 231.894531 C 108.429688 231.976562 108.398438 232.070312 108.328125 232.121094 Z M 91.730469 244.09375 L 91.726562 244.09375 C 90.859375 244.09375 90.15625 244.796875 90.15625 245.660156 L 90.15625 249.585938 C 90.15625 250.449219 90.859375 251.152344 91.726562 251.152344 L 91.730469 251.152344 C 92.597656 251.152344 93.300781 250.449219 93.300781 249.585938 L 93.300781 245.660156 C 93.300781 244.796875 92.597656 244.09375 91.730469 244.09375 Z M 91.535156 171.890625 L 91.539062 171.890625 C 92.40625 171.890625 93.109375 171.1875 93.109375 170.324219 L 93.109375 166.398438 C 93.109375 165.53125 92.40625 164.828125 91.539062 164.828125 L 91.535156 164.828125 C 90.667969 164.828125 89.964844 165.53125 89.964844 166.398438 L 89.964844 170.324219 C 89.964844 171.1875 90.667969 171.890625 91.535156 171.890625 Z M 55.816406 207.558594 L 55.816406 207.550781 C 55.816406 206.6875 55.113281 205.984375 54.246094 205.984375 L 50.316406 205.984375 C 49.449219 205.984375 48.746094 206.6875 48.746094 207.550781 L 48.746094 207.558594 C 48.746094 208.421875 49.449219 209.125 50.316406 209.125 L 54.246094 209.125 C 55.113281 209.125 55.816406 208.421875 55.816406 207.558594 Z M 66.277344 232.773438 C 65.664062 232.160156 64.671875 232.160156 64.058594 232.773438 L 61.277344 235.546875 C 60.664062 236.15625 60.664062 237.152344 61.277344 237.761719 L 61.28125 237.765625 C 61.894531 238.378906 62.890625 238.378906 63.503906 237.765625 L 66.28125 234.988281 C 66.894531 234.378906 66.894531 233.382812 66.28125 232.773438 Z M 58.421875 221.210938 C 58.089844 220.410156 57.171875 220.03125 56.371094 220.359375 L 52.71875 221.867188 C 51.914062 222.199219 51.535156 223.117188 51.863281 223.917969 L 51.871094 223.929688 C 52.203125 224.730469 53.121094 225.109375 53.921875 224.777344 L 57.574219 223.273438 C 58.375 222.941406 58.757812 222.023438 58.425781 221.222656 Z M 75.796875 173.644531 C 76.125 174.445312 77.046875 174.824219 77.847656 174.496094 L 77.859375 174.488281 C 78.660156 174.160156 79.042969 173.242188 78.710938 172.441406 L 77.203125 168.796875 C 76.867188 167.996094 75.953125 167.613281 75.148438 167.945312 L 75.140625 167.949219 C 74.335938 168.28125 73.953125 169.199219 74.285156 169.996094 Z M 77.808594 240.597656 L 77.792969 240.589844 C 76.992188 240.257812 76.074219 240.640625 75.742188 241.4375 L 74.226562 245.082031 C 73.894531 245.878906 74.273438 246.796875 75.070312 247.128906 L 75.085938 247.136719 C 75.886719 247.46875 76.804688 247.089844 77.136719 246.289062 L 78.652344 242.648438 C 78.984375 241.84375 78.605469 240.929688 77.808594 240.597656 Z M 58.449219 193.832031 L 58.441406 193.84375 C 58.109375 194.644531 57.191406 195.023438 56.390625 194.691406 L 52.738281 193.175781 C 51.9375 192.84375 51.558594 191.929688 51.890625 191.125 L 51.898438 191.113281 C 52.230469 190.316406 53.148438 189.933594 53.953125 190.269531 L 57.597656 191.78125 C 58.402344 192.113281 58.78125 193.03125 58.449219 193.832031 " fill-opacity="1" fill-rule="nonzero"/><path fill="#e3f2fd" d="M 204.683594 148.03125 L 176.453125 210.304688 C 176.445312 210.3125 176.441406 210.328125 176.4375 210.339844 C 176.199219 210.921875 176.472656 211.585938 177.054688 211.824219 C 177.636719 212.070312 178.304688 211.792969 178.546875 211.210938 Z M 212.226562 169.320312 C 212.304688 169.40625 212.296875 169.535156 212.210938 169.609375 C 212.132812 169.679688 212.023438 169.679688 211.945312 169.613281 L 211.921875 169.59375 C 208.554688 166.824219 204.886719 164.601562 201.007812 163.121094 L 193.15625 182.957031 C 196.105469 185.019531 198.035156 188.4375 198.035156 192.296875 C 198.035156 198.585938 192.910156 203.703125 186.609375 203.703125 C 186.0625 203.703125 185.523438 203.660156 184.996094 203.585938 L 181.480469 212.476562 C 180.691406 214.46875 178.4375 215.441406 176.441406 214.65625 C 174.449219 213.871094 173.472656 211.617188 174.257812 209.628906 C 174.289062 209.554688 174.324219 209.472656 174.359375 209.398438 L 178.597656 200.417969 C 176.492188 198.347656 175.1875 195.472656 175.1875 192.296875 C 175.1875 186.007812 180.3125 180.890625 186.609375 180.890625 C 187.011719 180.890625 187.402344 180.910156 187.792969 180.949219 L 196.824219 161.816406 C 194.929688 161.34375 193.003906 161.039062 191.082031 160.917969 C 188.621094 160.765625 186.160156 160.804688 183.753906 161.164062 C 183.152344 161.242188 182.558594 161.378906 181.960938 161.476562 C 181.367188 161.613281 180.78125 161.75 180.199219 161.898438 C 179.035156 162.21875 177.875 162.539062 176.757812 162.980469 C 174.511719 163.824219 172.363281 164.90625 170.390625 166.25 C 166.417969 168.875 163.03125 172.355469 160.558594 176.386719 C 159.304688 178.394531 158.308594 180.554688 157.535156 182.789062 C 157.320312 183.34375 157.183594 183.917969 156.996094 184.480469 C 156.839844 185.050781 156.703125 185.628906 156.5625 186.203125 C 156.320312 187.363281 156.121094 188.535156 155.984375 189.71875 L 155.882812 190.605469 C 155.855469 190.902344 155.847656 191.203125 155.828125 191.5 C 155.8125 191.796875 155.785156 192.097656 155.777344 192.394531 L 155.789062 193.289062 C 155.800781 193.886719 155.785156 194.488281 155.8125 195.082031 L 155.984375 196.875 C 156.292969 199.242188 156.746094 201.625 157.554688 203.914062 C 157.894531 205.085938 158.441406 206.175781 158.90625 207.308594 C 159.183594 207.851562 159.476562 208.386719 159.761719 208.929688 C 159.910156 209.199219 160.039062 209.480469 160.191406 209.746094 L 160.675781 210.53125 C 161.003906 211.054688 161.292969 211.605469 161.660156 212.105469 L 162.753906 213.613281 C 162.929688 213.871094 163.128906 214.109375 163.335938 214.34375 L 163.949219 215.050781 L 164.558594 215.769531 C 164.757812 216.007812 164.996094 216.214844 165.207031 216.445312 L 166.527344 217.808594 L 167.953125 219.0625 C 168.421875 219.5 168.941406 219.867188 169.453125 220.25 C 169.707031 220.441406 169.964844 220.628906 170.21875 220.828125 L 170.601562 221.125 C 170.734375 221.21875 170.871094 221.300781 171.003906 221.390625 L 172.628906 222.449219 C 173.175781 222.808594 173.761719 223.074219 174.332031 223.402344 L 175.191406 223.886719 C 175.480469 224.046875 175.78125 224.164062 176.082031 224.308594 C 176.679688 224.578125 177.28125 224.859375 177.886719 225.152344 L 177.929688 225.167969 C 178.027344 225.21875 178.070312 225.339844 178.023438 225.441406 C 177.980469 225.53125 177.875 225.574219 177.78125 225.546875 L 175.863281 224.96875 C 175.546875 224.863281 175.222656 224.785156 174.910156 224.664062 L 173.976562 224.296875 L 173.046875 223.925781 C 172.738281 223.800781 172.421875 223.6875 172.125 223.53125 L 170.332031 222.640625 C 170.179688 222.566406 170.027344 222.496094 169.882812 222.414062 L 169.453125 222.160156 L 168.59375 221.644531 C 168.019531 221.300781 167.4375 220.96875 166.90625 220.5625 L 165.273438 219.394531 L 163.738281 218.101562 C 161.746094 216.324219 159.898438 214.359375 158.378906 212.152344 L 157.792969 211.335938 C 157.601562 211.0625 157.441406 210.769531 157.265625 210.484375 C 156.917969 209.910156 156.5625 209.34375 156.230469 208.765625 C 155.644531 207.5625 154.984375 206.394531 154.527344 205.128906 C 152.464844 200.179688 151.734375 194.730469 152.117188 189.398438 C 152.527344 184.046875 154.269531 178.820312 157.058594 174.242188 C 158.476562 171.964844 160.148438 169.847656 162.039062 167.941406 C 163.9375 166.046875 166.058594 164.375 168.332031 162.957031 C 170.601562 161.53125 173.058594 160.402344 175.601562 159.546875 C 178.144531 158.699219 180.785156 158.136719 183.453125 157.914062 C 188.304688 157.492188 193.242188 158.085938 197.839844 159.671875 L 204.148438 146.3125 C 204.53125 145.496094 205.503906 145.148438 206.320312 145.53125 C 207.105469 145.902344 207.457031 146.8125 207.144531 147.605469 L 201.726562 161.304688 C 205.695312 163.285156 209.28125 166.023438 212.226562 169.320312 Z M 186.605469 150.664062 L 186.613281 150.664062 C 187.621094 150.664062 188.4375 149.847656 188.4375 148.84375 L 188.4375 144.28125 C 188.4375 143.273438 187.621094 142.457031 186.613281 142.457031 L 186.605469 142.457031 C 185.597656 142.457031 184.78125 143.273438 184.78125 144.28125 L 184.78125 148.84375 C 184.78125 149.847656 185.597656 150.664062 186.605469 150.664062 Z M 145.082031 192.128906 L 145.082031 192.125 C 145.082031 191.117188 144.265625 190.300781 143.253906 190.300781 L 138.6875 190.300781 C 137.679688 190.300781 136.863281 191.117188 136.863281 192.125 L 136.863281 192.128906 C 136.863281 193.136719 137.679688 193.953125 138.6875 193.953125 L 143.253906 193.953125 C 144.265625 193.953125 145.082031 193.136719 145.082031 192.128906 Z M 154.664062 162.8125 C 155.375 163.523438 156.53125 163.523438 157.242188 162.8125 L 157.246094 162.808594 C 157.960938 162.097656 157.960938 160.941406 157.246094 160.230469 L 154.015625 157.003906 C 153.304688 156.292969 152.148438 156.292969 151.433594 157.003906 L 151.429688 157.003906 C 150.714844 157.71875 150.714844 158.875 151.429688 159.585938 Z M 157.242188 221.445312 C 156.53125 220.734375 155.375 220.734375 154.664062 221.445312 L 151.429688 224.667969 C 150.714844 225.382812 150.714844 226.535156 151.429688 227.25 L 151.433594 227.253906 C 152.148438 227.964844 153.304688 227.964844 154.015625 227.253906 L 157.246094 224.023438 C 157.960938 223.3125 157.960938 222.160156 157.246094 221.445312 Z M 221.792969 157.003906 L 221.789062 157.003906 C 221.074219 156.292969 219.917969 156.292969 219.203125 157.003906 L 215.972656 160.230469 C 215.261719 160.941406 215.261719 162.097656 215.972656 162.808594 L 215.976562 162.8125 C 216.6875 163.523438 217.84375 163.523438 218.558594 162.8125 L 221.792969 159.585938 C 222.503906 158.875 222.503906 157.71875 221.792969 157.003906 Z M 148.109375 208.003906 C 147.722656 207.074219 146.652344 206.632812 145.722656 207.015625 L 141.476562 208.769531 C 140.542969 209.152344 140.101562 210.222656 140.484375 211.148438 L 140.492188 211.164062 C 140.878906 212.09375 141.945312 212.539062 142.875 212.152344 L 147.125 210.398438 C 148.054688 210.015625 148.5 208.949219 148.113281 208.019531 Z M 168.308594 152.703125 C 168.695312 153.636719 169.757812 154.078125 170.691406 153.695312 L 170.707031 153.6875 C 171.640625 153.304688 172.082031 152.234375 171.699219 151.304688 L 169.941406 147.066406 C 169.558594 146.136719 168.488281 145.691406 167.558594 146.078125 L 167.542969 146.082031 C 166.609375 146.46875 166.167969 147.535156 166.550781 148.464844 Z M 170.644531 230.542969 L 170.628906 230.535156 C 169.699219 230.152344 168.628906 230.589844 168.246094 231.523438 L 166.484375 235.757812 C 166.09375 236.6875 166.539062 237.753906 167.46875 238.140625 L 167.480469 238.144531 C 168.414062 238.53125 169.480469 238.089844 169.871094 237.164062 L 171.632812 232.925781 C 172.015625 231.996094 171.578125 230.929688 170.644531 230.542969 Z M 148.140625 176.171875 L 148.132812 176.1875 C 147.746094 177.117188 146.675781 177.558594 145.746094 177.171875 L 141.503906 175.414062 C 140.574219 175.027344 140.132812 173.960938 140.519531 173.03125 L 140.523438 173.015625 C 140.910156 172.085938 141.976562 171.644531 142.90625 172.03125 L 147.152344 173.792969 C 148.085938 174.175781 148.527344 175.242188 148.140625 176.171875 " fill-opacity="1" fill-rule="nonzero"/><g clip-path="url(#0f7abef64d)"><path fill="#e3f2fd" d="M 344.789062 249.871094 C 331.144531 262.925781 313.0625 270.414062 295.179688 270.414062 C 278.671875 270.414062 263.609375 264.195312 252.769531 252.902344 C 251.625 251.710938 250.542969 250.472656 249.519531 249.203125 C 269.25 268.585938 306.421875 271.523438 332.046875 254.808594 C 321.402344 257.996094 303.207031 261.988281 283.660156 259.773438 L 283.695312 259.773438 C 283.660156 259.769531 283.621094 259.769531 283.582031 259.769531 C 290.367188 259.359375 297.011719 257.789062 303.078125 254.996094 C 306.117188 253.621094 309.015625 251.960938 311.710938 250.035156 C 314.414062 248.109375 316.945312 245.96875 319.226562 243.582031 C 328.402344 234.082031 333.699219 221.097656 333.617188 207.992188 C 333.703125 194.890625 328.402344 181.90625 319.230469 172.402344 C 314.652344 167.660156 309.160156 163.734375 303.078125 160.988281 C 297.015625 158.199219 290.367188 156.625 283.582031 156.21875 C 290.375 155.820312 297.300781 156.921875 303.765625 159.34375 C 306.992188 160.566406 310.105469 162.128906 313.042969 163.972656 C 315.984375 165.816406 318.71875 167.996094 321.238281 170.398438 C 326.289062 175.207031 330.304688 181.101562 333.078125 187.527344 C 335.832031 193.96875 337.230469 200.984375 337.265625 207.992188 C 337.238281 214.609375 335.976562 221.222656 333.527344 227.367188 C 331.183594 232.164062 328.527344 236.796875 325.246094 241.003906 C 323.257812 243.550781 321.042969 245.929688 318.589844 248.0625 C 316.144531 250.195312 313.449219 252.074219 310.582031 253.660156 C 313.570312 252.3125 316.429688 250.644531 319.09375 248.683594 C 321.753906 246.726562 324.21875 244.480469 326.464844 242.035156 C 330.460938 237.699219 333.761719 232.773438 336.714844 227.699219 L 352.210938 226.824219 C 352 227.496094 351.789062 228.160156 351.542969 228.8125 C 350.765625 231.078125 349.804688 233.28125 348.769531 235.457031 C 347.730469 237.632812 346.53125 239.730469 345.234375 241.78125 C 343.925781 243.828125 342.511719 245.816406 340.890625 247.652344 C 342.757812 246.058594 344.453125 244.265625 346.058594 242.394531 C 347.65625 240.511719 349.175781 238.546875 350.550781 236.480469 C 351.921875 234.410156 353.230469 232.277344 354.367188 230.046875 C 354.96875 228.945312 355.476562 227.800781 356.011719 226.664062 C 356.246094 226.160156 356.460938 225.648438 356.671875 225.136719 C 365.785156 204.078125 363.347656 180.203125 348.527344 163.835938 C 349.046875 161.886719 351.179688 160.226562 353.277344 159.910156 C 375.015625 184.515625 371.445312 224.359375 344.789062 249.871094 Z M 247 240.5 C 261.285156 225.539062 270.066406 205.292969 270.066406 183.042969 C 270.066406 176.0625 269.199219 169.28125 267.574219 162.800781 C 271.917969 161.484375 276.527344 160.777344 281.300781 160.777344 C 307.421875 160.777344 328.59375 181.917969 328.59375 207.992188 C 328.59375 234.074219 307.421875 255.210938 281.300781 255.210938 C 267.800781 255.210938 255.617188 249.558594 247 240.5 Z M 239.113281 192.296875 C 239.113281 221.246094 215.605469 244.714844 186.609375 244.714844 C 157.613281 244.714844 134.105469 221.246094 134.105469 192.296875 C 134.105469 163.347656 157.613281 139.875 186.609375 139.875 C 215.605469 139.875 239.113281 163.347656 239.113281 192.296875 Z M 186.609375 260.898438 C 143.542969 260.898438 108.628906 226.042969 108.628906 183.042969 C 108.628906 140.042969 143.542969 105.1875 186.609375 105.1875 C 203.417969 105.1875 218.988281 110.5 231.726562 119.53125 C 231.695312 122.28125 229.40625 125.722656 227.039062 127.332031 C 215.554688 119.414062 201.625 114.769531 186.609375 114.769531 C 147.277344 114.769531 115.390625 146.605469 115.390625 185.875 C 115.390625 193.132812 116.484375 200.132812 118.511719 206.730469 L 118.441406 206.746094 C 119.375 209.914062 120.582031 212.941406 121.964844 215.863281 C 123.351562 218.785156 124.917969 221.601562 126.644531 224.308594 C 128.371094 227.007812 130.261719 229.605469 132.316406 232.046875 C 134.371094 234.488281 136.597656 236.777344 139.015625 238.828125 C 137.535156 237.265625 136.167969 235.609375 134.894531 233.894531 L 141.761719 233.207031 C 140.699219 232.144531 139.671875 231.042969 138.683594 229.90625 C 138.375 229.546875 138.082031 229.175781 137.78125 228.808594 L 131.945312 229.582031 C 130.667969 227.542969 129.496094 225.445312 128.433594 223.296875 C 127.046875 220.5 125.835938 217.621094 124.816406 214.695312 C 124.34375 213.339844 123.917969 211.96875 123.539062 210.59375 L 127.480469 210.253906 C 124.117188 200.414062 123.40625 189.664062 125.355469 179.402344 C 127.617188 167.539062 133.589844 156.4375 142.121094 147.878906 C 150.691406 139.355469 161.816406 133.398438 173.695312 131.132812 C 176.664062 130.566406 179.675781 130.261719 182.683594 130.109375 C 185.699219 130.015625 188.714844 130.105469 191.710938 130.414062 C 194.699219 130.765625 197.675781 131.265625 200.582031 132.039062 C 203.484375 132.835938 206.339844 133.789062 209.089844 134.992188 C 211.835938 136.203125 214.507812 137.574219 217.046875 139.15625 C 219.582031 140.753906 222.015625 142.5 224.285156 144.441406 C 226.539062 146.394531 228.65625 148.5 230.628906 150.730469 C 232.566406 152.984375 234.351562 155.367188 235.957031 157.855469 C 237.546875 160.363281 238.921875 162.992188 240.140625 165.679688 C 241.339844 168.378906 242.308594 171.171875 243.089844 174.003906 C 243.863281 176.84375 244.375 179.738281 244.734375 182.644531 C 245.046875 185.550781 245.128906 188.476562 245.03125 191.382812 C 244.859375 188.476562 244.582031 185.585938 244.042969 182.742188 C 243.488281 179.90625 242.800781 177.097656 241.859375 174.378906 C 240.898438 171.664062 239.828125 169 238.515625 166.449219 C 237.191406 163.90625 235.726562 161.445312 234.070312 159.121094 C 227.5 149.773438 218.191406 142.492188 207.703125 138.328125 C 205.082031 137.277344 202.375 136.46875 199.640625 135.804688 C 196.902344 135.144531 194.109375 134.722656 191.316406 134.449219 C 188.511719 134.214844 185.695312 134.1875 182.886719 134.324219 C 180.085938 134.519531 177.296875 134.855469 174.550781 135.433594 C 171.816406 136.039062 169.097656 136.746094 166.46875 137.710938 C 163.84375 138.6875 161.269531 139.808594 158.808594 141.140625 C 156.355469 142.492188 153.984375 143.984375 151.734375 145.65625 C 149.503906 147.347656 147.390625 149.1875 145.398438 151.148438 C 143.425781 153.136719 141.589844 155.25 139.894531 157.476562 C 138.21875 159.71875 136.722656 162.085938 135.371094 164.539062 C 134.035156 166.996094 132.914062 169.566406 131.9375 172.1875 C 130.972656 174.8125 130.253906 177.523438 129.648438 180.253906 C 129.070312 182.996094 128.738281 185.78125 128.539062 188.578125 C 128.402344 191.382812 128.429688 194.191406 128.664062 196.992188 C 128.941406 199.789062 129.367188 202.570312 130.019531 205.304688 C 130.683594 208.035156 131.496094 210.742188 132.546875 213.355469 C 136.722656 223.832031 144.015625 233.128906 153.378906 239.683594 C 155.707031 241.335938 158.171875 242.804688 160.71875 244.121094 C 163.273438 245.433594 165.945312 246.503906 168.660156 247.460938 C 171.386719 248.398438 174.199219 249.085938 177.042969 249.636719 C 179.890625 250.175781 182.785156 250.453125 185.699219 250.625 C 182.785156 250.71875 179.855469 250.636719 176.941406 250.324219 C 174.035156 249.96875 171.132812 249.453125 168.289062 248.679688 C 165.453125 247.902344 162.65625 246.933594 159.953125 245.734375 C 157.257812 244.519531 154.628906 243.144531 152.117188 241.5625 C 152.109375 241.554688 152.097656 241.546875 152.089844 241.542969 L 143.855469 242.746094 C 155.761719 251.683594 170.566406 256.980469 186.609375 256.980469 C 210.34375 256.980469 231.363281 245.386719 244.304688 227.566406 C 246.078125 227.867188 247.746094 229.011719 248.675781 230.175781 C 234.433594 248.84375 211.933594 260.898438 186.609375 260.898438 Z M 91.917969 255.210938 C 65.800781 255.210938 44.625 234.074219 44.625 207.992188 C 44.625 181.917969 65.800781 160.777344 91.917969 160.777344 C 96.695312 160.777344 101.300781 161.484375 105.648438 162.800781 C 104.019531 169.28125 103.152344 176.0625 103.152344 183.042969 C 103.152344 205.292969 111.933594 225.539062 126.21875 240.5 C 117.605469 249.558594 105.421875 255.210938 91.917969 255.210938 Z M 120.453125 252.902344 C 109.609375 264.195312 94.546875 270.414062 78.039062 270.414062 C 60.152344 270.414062 42.074219 262.925781 28.433594 249.871094 C 12.035156 234.175781 4.375 213.0625 5.964844 193.402344 C 7.652344 192.589844 10.230469 192.113281 11.65625 192.640625 C 10.636719 200.71875 11.339844 209.132812 13.722656 217.320312 L 13.742188 217.324219 C 14.761719 221.078125 16.160156 224.691406 17.828125 228.144531 C 19.886719 232.382812 22.355469 236.394531 25.148438 240.140625 C 27.941406 243.886719 31.070312 247.363281 34.488281 250.511719 C 37.90625 253.65625 41.621094 256.464844 45.59375 258.8125 C 41.804688 256.175781 38.339844 253.125 35.207031 249.78125 C 32.078125 246.441406 29.28125 242.8125 26.839844 238.976562 C 26.503906 238.445312 26.175781 237.914062 25.855469 237.378906 L 43.472656 236.875 C 44 237.574219 44.539062 238.265625 45.097656 238.941406 C 47.929688 242.347656 51.136719 245.425781 54.691406 248.027344 C 58.230469 250.640625 62.050781 252.832031 66.015625 254.667969 C 62.167969 252.589844 58.515625 250.1875 55.183594 247.402344 C 51.847656 244.632812 48.898438 241.429688 46.359375 237.960938 C 43.816406 234.488281 41.707031 230.722656 40.074219 226.777344 C 38.675781 223.378906 37.652344 219.835938 37.011719 216.257812 C 36.5625 213.527344 36.332031 210.761719 36.324219 207.992188 C 36.332031 204.597656 36.671875 201.199219 37.347656 197.867188 C 38.035156 194.535156 39.039062 191.273438 40.378906 188.152344 C 43.046875 181.914062 46.972656 176.21875 51.863281 171.5625 C 54.308594 169.234375 56.957031 167.125 59.808594 165.339844 C 62.660156 163.550781 65.671875 162.042969 68.800781 160.863281 C 75.070312 158.523438 81.777344 157.460938 88.355469 157.867188 C 81.789062 158.277344 75.355469 159.804688 69.492188 162.515625 C 66.554688 163.847656 63.75 165.457031 61.140625 167.324219 C 58.53125 169.1875 56.082031 171.261719 53.875 173.570312 C 49.476562 178.195312 45.941406 183.601562 43.574219 189.480469 C 41.195312 195.351562 39.972656 201.671875 39.972656 207.992188 C 39.964844 214.324219 41.195312 220.636719 43.566406 226.511719 C 44.742188 229.449219 46.214844 232.28125 47.949219 234.945312 C 49.691406 237.597656 51.667969 240.113281 53.871094 242.421875 C 58.304688 247.011719 63.609375 250.8125 69.488281 253.476562 C 75.355469 256.1875 81.789062 257.714844 88.355469 258.121094 C 88.355469 258.121094 76.757812 263.570312 60.15625 263.371094 C 82.972656 269.679688 108.675781 264.53125 123.785156 249.09375 C 122.738281 250.40625 121.628906 251.675781 120.453125 252.902344 Z M 34.414062 218.515625 C 35.292969 221.703125 36.453125 224.800781 37.886719 227.753906 C 38.367188 228.742188 38.875 229.710938 39.414062 230.664062 L 22.386719 230.898438 C 21.765625 229.582031 21.183594 228.253906 20.648438 226.90625 C 19.441406 223.855469 18.464844 220.722656 17.777344 217.554688 Z M 21.503906 158.210938 C 26.996094 152.488281 33.574219 148.070312 40.878906 145.101562 C 42.296875 146.179688 42.902344 148.925781 43.105469 150.976562 C 36.527344 153.765625 30.578125 157.664062 25.707031 162.734375 C 20.019531 168.664062 16.027344 175.652344 13.6875 183.183594 C 11.828125 183.71875 9.085938 183.644531 7.914062 182.257812 C 10.351562 173.386719 14.863281 165.128906 21.503906 158.210938 Z M 50.304688 142.167969 C 54.683594 141.199219 59.242188 140.699219 63.914062 140.699219 C 77.519531 140.699219 91.234375 145.039062 103.03125 152.859375 C 87.378906 145.488281 68.421875 143.699219 51.898438 147.996094 C 50.484375 146.394531 49.921875 143.820312 50.304688 142.167969 Z M 264.59375 183.042969 C 264.59375 196.15625 261.339844 208.507812 255.605469 219.351562 C 253.953125 219.074219 252.042969 218.148438 250.730469 216.859375 C 255.277344 207.492188 257.828125 196.980469 257.828125 185.875 C 257.828125 167.550781 250.882812 150.839844 239.480469 138.234375 C 240.085938 135.667969 243.617188 133.6875 246.214844 132.847656 C 257.679688 146.398438 264.59375 163.914062 264.59375 183.042969 Z M 309.304688 140.699219 C 315.007812 140.699219 320.539062 141.441406 325.785156 142.882812 C 325.851562 144.480469 325.070312 147.363281 323.390625 148.777344 C 307.425781 144.097656 288.585938 144.882812 272.457031 151.414062 C 283.71875 144.503906 296.5625 140.699219 309.304688 140.699219 Z M 335.472656 146.484375 C 339.640625 148.476562 343.539062 150.964844 347.097656 153.917969 C 346.414062 155.609375 344.890625 158.171875 343.328125 158.917969 C 340.179688 156.371094 336.65625 154.1875 332.855469 152.375 C 332.824219 150.183594 333.835938 147.394531 335.472656 146.484375 Z M 355.011719 155.058594 C 343.304688 142.859375 327.070312 136.144531 309.304688 136.144531 C 293.339844 136.144531 277.25 141.730469 263.929688 151.695312 C 251.5 121.242188 221.527344 99.71875 186.609375 99.71875 C 151.691406 99.71875 121.71875 121.242188 109.289062 151.695312 C 95.96875 141.730469 79.878906 136.144531 63.914062 136.144531 C 46.148438 136.144531 29.914062 142.859375 18.207031 155.058594 C 5.953125 167.824219 -0.0195312 185.117188 1.390625 203.757812 C 2.785156 222.210938 11.269531 239.757812 25.273438 253.160156 C 39.757812 267.019531 58.988281 274.96875 78.039062 274.96875 C 95.804688 274.96875 112.035156 268.253906 123.746094 256.054688 C 126.792969 252.878906 129.453125 249.425781 131.710938 245.746094 C 146.394531 258.578125 165.609375 266.367188 186.609375 266.367188 C 207.613281 266.367188 226.828125 258.578125 241.507812 245.746094 C 243.765625 249.425781 246.425781 252.878906 249.472656 256.054688 C 261.183594 268.253906 277.414062 274.96875 295.179688 274.96875 C 314.230469 274.96875 333.460938 267.019531 347.945312 253.160156 C 361.949219 239.757812 370.433594 222.210938 371.832031 203.757812 C 373.242188 185.117188 367.265625 167.824219 355.011719 155.058594 " fill-opacity="1" fill-rule="nonzero"/></g></svg>