<svg xmlns="http://www.w3.org/2000/svg" xmlns:xlink="http://www.w3.org/1999/xlink" width="500" zoomAndPan="magnify" viewBox="0 0 375 374.999991" height="500" preserveAspectRatio="xMidYMid meet" version="1.0"><defs><clipPath id="2de5c9d154"><path d="M 53.203125 0 L 321.703125 0 L 321.703125 375 L 53.203125 375 Z M 53.203125 0 " clip-rule="nonzero"/></clipPath></defs><g clip-path="url(#2de5c9d154)"><path fill="#000000" d="M 91.335938 37.574219 C 92.648438 36.917969 93.777344 35.761719 94.664062 34.253906 C 82.960938 29.816406 70.84375 26.121094 58.65625 23.214844 C 58.957031 24.128906 59.347656 25.027344 59.675781 25.769531 C 59.882812 26.242188 60.066406 26.679688 60.234375 27.070312 C 61.28125 29.671875 62.363281 32.34375 64.136719 34.339844 C 66.289062 36.78125 69.75 38.425781 73.882812 39.007812 C 77.832031 39.542969 81.988281 39.128906 86 38.726562 C 87.882812 38.546875 89.804688 38.339844 91.335938 37.574219 Z M 95.964844 31.277344 C 97.351562 27.214844 97.121094 25.402344 96.9375 24.796875 C 96.609375 23.703125 94.703125 22.632812 93.316406 21.839844 C 92.964844 21.660156 92.648438 21.476562 92.355469 21.292969 C 89.695312 19.691406 86.863281 18.292969 83.957031 17.160156 C 80.058594 15.605469 76.996094 14.910156 73.773438 14.910156 C 73.277344 14.910156 72.765625 14.925781 72.277344 14.949219 C 68.5 15.179688 64.78125 16.371094 61.535156 18.339844 L 60.746094 18.800781 C 60.234375 19.105469 59.519531 19.519531 58.984375 19.945312 C 71.511719 22.910156 83.933594 26.703125 95.964844 31.277344 Z M 100.28125 99.625 L 99.746094 99.941406 L 92.660156 105.195312 C 89.4375 107.613281 86.863281 109.679688 85.792969 112.511719 C 85.390625 113.558594 85.308594 114.554688 85.5625 115.320312 C 85.671875 115.699219 85.890625 116.039062 86.15625 116.269531 C 86.632812 115.855469 86.921875 115.320312 86.910156 114.835938 C 86.910156 114.25 87.09375 113.679688 87.484375 113.230469 C 91.6875 108.402344 95.917969 104.476562 100.097656 101.484375 C 100.097656 100.851562 100.160156 100.222656 100.28125 99.625 Z M 103.949219 91.03125 C 106.039062 87.078125 108.082031 83.429688 110.511719 79.699219 C 102.601562 84.695312 94.519531 89.5 86.375 94.019531 C 86.023438 96.28125 86.632812 98.738281 87.992188 100.34375 C 88.273438 100.671875 88.550781 100.828125 88.625 100.828125 C 89.0625 100.78125 89.742188 100.390625 90.339844 100.039062 L 97.167969 96.0625 Z M 109.03125 190.480469 C 109.054688 190.210938 109.03125 189.917969 108.652344 189.542969 C 107.425781 188.191406 103.878906 187.367188 101.144531 187.316406 C 98.371094 187.246094 95.261719 187.902344 91.433594 189.335938 C 89.671875 189.980469 89.109375 190.683594 89.109375 190.890625 C 89.109375 191.121094 89.597656 191.730469 90.921875 192.375 C 93.777344 193.75 96.839844 194.585938 100.023438 194.855469 C 102.601562 195.074219 105.992188 194.601562 107.777344 193.042969 C 108.570312 192.351562 108.980469 191.535156 109.03125 190.480469 Z M 111.304688 38.703125 C 111.328125 38.644531 111.351562 38.570312 111.398438 38.523438 C 107.914062 35.738281 104.507812 32.832031 101.179688 29.839844 C 100.898438 31.117188 100.511719 32.441406 99.953125 33.949219 C 99.332031 35.589844 98.492188 37.039062 97.519531 38.265625 C 102.066406 38.777344 106.734375 38.777344 111.304688 38.703125 Z M 113.976562 136.804688 C 116.503906 130.652344 115.898438 123.355469 112.492188 117.898438 C 110.585938 120.21875 109.199219 123.453125 108.800781 126.773438 C 108.445312 129.738281 108.980469 132.804688 110.257812 135.550781 Z M 126.019531 40.515625 L 123.335938 33.878906 C 123.03125 33.113281 122.703125 32.273438 122.421875 31.398438 C 121.5 34.230469 120.867188 36.917969 120.527344 39.46875 C 122.035156 39.894531 123.515625 40.285156 125 40.734375 C 125.351562 40.636719 125.679688 40.589844 126.019531 40.515625 Z M 146.707031 44.671875 C 143.484375 38.824219 141.019531 32.625 139.304688 26.144531 C 134.539062 26.679688 129.8125 27.652344 125.195312 29.027344 C 125.402344 30.253906 125.886719 31.507812 126.347656 32.675781 L 129.339844 40.078125 C 135.425781 39.699219 141.675781 41.378906 146.707031 44.671875 Z M 141.953125 160.425781 C 141.90625 160.046875 141.929688 159.707031 141.855469 159.308594 C 141.296875 155.660156 139.679688 152.242188 138.003906 149.082031 C 132.691406 138.992188 125.730469 129.605469 117.597656 121.496094 C 119.410156 127.332031 119.082031 133.945312 116.296875 139.527344 C 116.019531 140.097656 115.433594 140.425781 114.839844 140.425781 C 114.667969 140.425781 114.488281 140.402344 114.328125 140.328125 L 110.867188 139.171875 C 110.839844 139.285156 110.816406 139.40625 110.742188 139.527344 C 106.914062 147.28125 107.0625 157.957031 108.472656 165.375 C 109.335938 169.894531 110.816406 174.746094 113.113281 180.667969 C 113.671875 182.136719 114.183594 183.621094 114.644531 185.105469 L 116.296875 184.546875 C 116.785156 184.363281 117.320312 184.460938 117.730469 184.738281 C 118.183594 185.042969 118.4375 185.53125 118.460938 186.042969 L 118.621094 191.328125 C 118.644531 191.9375 118.316406 192.496094 117.78125 192.800781 C 117.527344 192.933594 117.246094 193.007812 116.992188 193.007812 C 117.246094 193.820312 117.5 194.625 117.78125 195.4375 C 121.609375 206.332031 125.863281 217.226562 130.433594 227.8125 C 131.199219 229.625 131.988281 231.414062 132.800781 233.222656 C 133.507812 234.804688 134.222656 236.410156 134.941406 238.015625 C 137.082031 242.707031 139.230469 247.507812 141.1875 252.410156 C 141.1875 251.507812 141.210938 250.644531 141.1875 249.710938 C 141.164062 247.714844 140.253906 245.878906 139.207031 243.777344 C 138.417969 242.222656 137.628906 240.59375 137.09375 238.730469 C 136.824219 237.820312 136.726562 236.992188 136.65625 236.238281 C 136.59375 235.621094 136.519531 235.085938 136.375 234.683594 C 135.839844 233.320312 134.988281 231.875 134.175781 230.464844 C 133.871094 229.976562 133.59375 229.492188 133.3125 229.003906 C 132.921875 228.300781 132.5 227.609375 132.0625 226.914062 C 130.761719 224.773438 129.410156 222.585938 128.621094 219.960938 C 127.953125 217.6875 127.234375 215.4375 126.53125 213.164062 L 125.449219 209.675781 C 124.003906 204.984375 122.214844 199.160156 123.699219 193.324219 C 124.867188 188.800781 127.820312 185.179688 130.40625 181.992188 L 131.113281 181.140625 C 134.769531 176.605469 137.140625 172.960938 138.816406 169.3125 C 139.488281 167.804688 141.140625 164.132812 141.953125 160.425781 Z M 144.480469 190.355469 L 144.152344 173.128906 C 142.316406 176.910156 139.839844 180.691406 136.167969 185.226562 L 135.453125 186.101562 C 133.058594 189.03125 130.808594 191.792969 129.996094 194.929688 C 129.046875 198.695312 130.140625 202.78125 131.660156 207.753906 L 132.730469 211.230469 C 133.457031 213.503906 134.152344 215.789062 134.84375 218.089844 C 135.402344 219.925781 136.472656 221.664062 137.613281 223.5 C 138.078125 224.265625 138.539062 225.03125 138.976562 225.796875 C 139.230469 226.257812 139.511719 226.695312 139.765625 227.171875 C 140.738281 228.785156 141.722656 230.488281 142.441406 232.347656 C 142.550781 232.652344 142.597656 232.910156 142.671875 233.175781 C 142.523438 221.152344 142.390625 209.117188 142.292969 197.09375 C 142.28125 194.515625 143.082031 192.265625 144.480469 190.355469 Z M 139.460938 50.667969 C 143.046875 52.199219 145.964844 53.121094 148.722656 52.613281 C 143.996094 46.8125 135.683594 43.773438 128.050781 44.867188 C 131.734375 47.019531 135.5625 48.953125 139.460938 50.667969 Z M 148.285156 57.355469 C 147.921875 57.378906 147.519531 57.402344 147.15625 57.402344 C 143.847656 57.402344 140.652344 56.234375 137.628906 54.921875 C 135.730469 54.109375 133.871094 53.195312 132.011719 52.273438 C 132.546875 53.425781 132.921875 54.726562 132.875 56.175781 C 132.800781 58.910156 131.269531 61.097656 130.25 62.558594 L 121.085938 75.722656 C 128.621094 71.96875 135.890625 67.613281 142.769531 62.789062 C 145.039062 61.183594 147.167969 59.566406 148.285156 57.355469 Z M 157.800781 56.285156 C 157.59375 53.914062 157.023438 51.433594 156.136719 48.976562 C 155.296875 46.679688 154.253906 44.371094 153.257812 42.167969 C 152.1875 39.847656 151.09375 37.425781 150.21875 34.949219 C 148.457031 30.046875 147.496094 24.796875 147.335938 19.542969 C 145.429688 21.074219 143.714844 22.730469 142.234375 24.492188 C 144.410156 33.085938 147.980469 41.207031 152.855469 48.625 C 153.328125 49.292969 153.789062 50 154.253906 50.691406 C 155.480469 52.503906 156.730469 54.339844 157.800781 56.285156 Z M 159.078125 282.875 L 159.015625 275.351562 C 154.53125 274.425781 149.960938 273.964844 146.546875 273.707031 C 146.546875 274.292969 146.546875 274.863281 146.546875 275.449219 C 146.523438 277.722656 146.5 279.886719 146.875 282 C 148.722656 282.109375 150.605469 282.253906 152.515625 282.390625 C 154.714844 282.546875 156.902344 282.71875 159.078125 282.875 Z M 159.734375 180.046875 C 160.148438 172.496094 160.039062 164.875 159.382812 157.363281 C 158.25 157.445312 157.109375 157.542969 155.964844 157.652344 C 153.609375 157.871094 151.238281 158.078125 148.84375 158.285156 C 148.796875 159.003906 148.6875 159.71875 148.566406 160.449219 L 149.050781 186.222656 C 151.835938 184.4375 155.164062 183.207031 158.410156 182.464844 C 158.785156 181.628906 159.246094 180.8125 159.734375 180.046875 Z M 155.394531 151.171875 C 157.085938 151.015625 158.785156 150.882812 160.476562 150.710938 C 159.917969 150.40625 159.355469 150.089844 158.808594 149.8125 C 155.953125 148.414062 153.257812 146.445312 150.65625 144.511719 C 149.453125 143.609375 148.226562 142.722656 147.035156 141.910156 L 129.582031 130.164062 C 133.847656 135.625 137.675781 141.472656 140.882812 147.550781 C 141.785156 149.277344 142.671875 151.089844 143.410156 152.972656 C 143.945312 152.472656 144.601562 152.132812 145.320312 152.0625 C 148.6875 151.78125 152.054688 151.476562 155.394531 151.171875 Z M 160.828125 79.746094 C 160.828125 79.652344 160.828125 79.554688 160.804688 79.46875 C 160.707031 79.007812 160.136719 78.242188 159.84375 78.144531 C 159.78125 78.214844 159.175781 78.8125 158.917969 79.296875 C 158.664062 79.808594 158.738281 80.488281 159.066406 80.792969 C 159.34375 81.0625 159.917969 81.109375 160.269531 80.878906 C 160.621094 80.648438 160.828125 80.210938 160.828125 79.746094 Z M 160.730469 237.199219 C 161.058594 227.511719 161.386719 217.554688 161.542969 207.777344 C 155.882812 206.308594 151.238281 202.574219 148.796875 197.480469 C 148.894531 209.566406 149.027344 221.636719 149.171875 233.6875 C 149.304688 244.933594 149.453125 256.179688 149.539062 267.4375 C 152.601562 267.714844 156.234375 268.152344 159.867188 268.894531 C 160.011719 258.355469 160.378906 247.632812 160.730469 237.199219 Z M 161.640625 201.613281 C 161.640625 201.296875 161.703125 200.996094 161.777344 200.714844 C 160.9375 196.789062 160.195312 192.679688 160.339844 188.703125 C 156.976562 189.410156 152.855469 190.964844 150.582031 193.261719 C 150.679688 193.394531 150.753906 193.519531 150.800781 193.699219 C 152.308594 198.855469 156.367188 202.78125 161.59375 204.386719 C 161.617188 203.449219 161.617188 202.527344 161.640625 201.613281 Z M 177.285156 157.542969 C 176.90625 142.078125 176.140625 126.46875 174.9375 111.054688 C 171.339844 108.027344 167.488281 104.660156 163.027344 100.671875 C 159.683594 97.667969 156.828125 94.191406 154.53125 90.335938 C 153.4375 88.5 152.164062 86.058594 151.929688 83.320312 C 151.652344 80.039062 152.890625 77.097656 154.046875 74.242188 L 154.460938 73.195312 C 155.652344 70.242188 156.550781 67.175781 157.265625 64.089844 C 156.757812 60.84375 155.089844 57.839844 153.207031 54.957031 C 152.929688 55.410156 152.539062 55.796875 152.089844 56.148438 C 151.90625 57.050781 151.628906 57.9375 151.238281 58.777344 C 149.78125 61.667969 147.167969 63.652344 144.640625 65.4375 C 136.070312 71.480469 126.90625 76.695312 117.390625 81.085938 C 113.953125 86.105469 111.425781 90.75 108.542969 96.234375 C 107.984375 97.304688 107.476562 98.277344 107.121094 99.222656 C 107.121094 100.730469 107.5 102.3125 108.265625 103.917969 C 109.566406 106.496094 111.632812 108.753906 113.648438 110.90625 C 114.667969 112 115.667969 113.097656 116.652344 114.191406 C 120.613281 118.566406 124.378906 122.726562 129.203125 125.984375 L 148.84375 139.222656 C 150.070312 140.0625 151.335938 140.984375 152.585938 141.910156 C 155.066406 143.722656 157.644531 145.628906 160.21875 146.882812 C 162.261719 147.878906 164.242188 149.070312 166.113281 150.347656 C 166.601562 150.394531 167.097656 150.527344 167.488281 150.785156 C 168.910156 151.683594 170.210938 152.730469 171.472656 153.773438 C 173.480469 155.402344 175.375 156.9375 177.285156 157.542969 Z M 196.207031 113.921875 C 195.183594 114.738281 194.210938 115.550781 193.214844 116.316406 C 192.023438 117.265625 190.347656 118.589844 188.320312 119.101562 C 188.074219 119.222656 187.84375 119.296875 187.566406 119.296875 C 187.539062 119.296875 187.503906 119.296875 187.480469 119.296875 C 187.40625 119.296875 187.359375 119.273438 187.285156 119.273438 C 187.25 119.273438 187.199219 119.296875 187.128906 119.296875 C 187.101562 119.296875 187.054688 119.296875 187.03125 119.296875 C 186.761719 119.296875 186.519531 119.222656 186.289062 119.101562 C 184.246094 118.589844 182.558594 117.265625 181.390625 116.316406 C 180.394531 115.550781 179.398438 114.738281 178.402344 113.921875 C 179.496094 128.535156 180.210938 143.308594 180.539062 157.933594 C 182.789062 158.152344 185.035156 158.238281 187.285156 158.238281 C 189.546875 158.238281 191.820312 158.152344 194.066406 157.933594 C 194.394531 143.308594 195.113281 128.535156 196.207031 113.921875 Z M 208.601562 325.765625 L 209.0625 275.121094 C 208.554688 274.546875 208.25 273.792969 208.25 273.003906 C 208.1875 261.257812 207.765625 249.136719 207.375 237.429688 C 206.996094 226.71875 206.632812 215.667969 206.488281 204.847656 L 187.285156 204.570312 L 168.09375 204.847656 C 167.972656 215.667969 167.597656 226.71875 167.234375 237.429688 C 166.832031 249.136719 166.417969 261.257812 166.332031 273.003906 C 166.332031 273.792969 166.03125 274.546875 165.519531 275.121094 L 166.003906 325.765625 C 166.03125 328.164062 165.980469 330.507812 165.957031 332.78125 C 165.835938 339.261719 165.75 345.390625 167.050781 351.808594 C 167.585938 354.460938 168.253906 357.242188 169.675781 359.492188 C 171.265625 362.019531 174.015625 364.183594 177.40625 365.546875 C 180.089844 366.640625 183.203125 367.273438 187.285156 367.648438 C 191.40625 367.273438 194.515625 366.640625 197.179688 365.546875 C 200.59375 364.183594 203.328125 362.019531 204.933594 359.492188 C 206.355469 357.242188 207.023438 354.460938 207.558594 351.808594 C 208.832031 345.390625 208.734375 339.261719 208.652344 332.78125 C 208.625 330.484375 208.578125 328.164062 208.601562 325.765625 Z M 210.59375 156.9375 C 210.292969 156.910156 210.011719 156.886719 209.71875 156.863281 C 208.90625 157.445312 208.09375 158.128906 207.230469 158.820312 C 204.371094 161.140625 201.152344 163.769531 197.019531 164.230469 C 194.527344 164.511719 192.023438 164.644531 189.496094 164.714844 C 189.351562 164.742188 189.195312 164.765625 189.035156 164.765625 C 188.453125 164.789062 187.867188 164.742188 187.308594 164.742188 C 186.738281 164.742188 186.15625 164.789062 185.570312 164.765625 C 185.414062 164.765625 185.242188 164.742188 185.085938 164.714844 C 182.582031 164.644531 180.066406 164.511719 177.585938 164.230469 C 173.429688 163.769531 170.222656 161.140625 167.367188 158.820312 C 166.515625 158.128906 165.675781 157.445312 164.886719 156.863281 C 164.582031 156.886719 164.304688 156.910156 164.011719 156.9375 C 164.535156 162.855469 164.730469 168.851562 164.605469 174.796875 C 166.699219 173.167969 168.96875 171.890625 171.0625 171.0625 C 176.773438 168.777344 182.898438 168.667969 187.308594 168.851562 C 191.695312 168.667969 197.835938 168.800781 203.523438 171.0625 C 205.636719 171.890625 207.910156 173.167969 210 174.796875 C 209.855469 168.824219 210.0625 162.855469 210.59375 156.9375 Z M 209.976562 198.417969 C 210.777344 194.394531 211.335938 190.234375 210.777344 186.527344 C 210.742188 186.40625 210.667969 186.320312 210.621094 186.199219 C 209.441406 182.042969 205.003906 178.625 201.128906 177.09375 C 197.738281 175.742188 193.835938 175.195312 188.632812 175.304688 C 188.378906 175.355469 188.125 175.378906 187.867188 175.378906 C 187.6875 175.378906 187.503906 175.355469 187.285156 175.355469 C 187.101562 175.355469 186.921875 175.378906 186.714844 175.378906 C 186.457031 175.402344 186.179688 175.355469 185.925781 175.304688 C 180.746094 175.195312 176.847656 175.742188 173.453125 177.09375 C 169.601562 178.625 165.167969 182.042969 163.964844 186.199219 C 163.9375 186.320312 163.867188 186.40625 163.816406 186.527344 C 163.257812 190.234375 163.792969 194.394531 164.632812 198.417969 C 164.703125 198.417969 164.777344 198.394531 164.839844 198.394531 L 184.683594 198.113281 C 184.902344 198.066406 185.109375 198.039062 185.339844 198.039062 C 185.363281 198.039062 185.363281 198.039062 185.390625 198.039062 L 187.285156 198.066406 L 189.21875 198.039062 C 189.21875 198.039062 189.242188 198.039062 189.265625 198.039062 C 189.472656 198.039062 189.703125 198.066406 189.910156 198.113281 L 209.757812 198.394531 C 209.828125 198.394531 209.902344 198.417969 209.976562 198.417969 Z M 215.542969 80.792969 C 215.871094 80.488281 215.917969 79.808594 215.664062 79.296875 C 215.433594 78.8125 214.824219 78.214844 214.570312 78.144531 C 214.449219 78.242188 213.890625 79.007812 213.78125 79.46875 C 213.683594 80.003906 213.914062 80.597656 214.339844 80.855469 C 214.679688 81.109375 215.261719 81.0625 215.542969 80.792969 Z M 215.40625 47.859375 C 215.917969 46.484375 216.5 45.125 217.074219 43.796875 C 208.480469 40.492188 199.21875 38.777344 190.007812 38.777344 C 189.121094 38.777344 188.222656 38.800781 187.308594 38.824219 C 187.308594 38.824219 187.308594 38.824219 187.285156 38.824219 C 177.210938 38.449219 166.953125 40.164062 157.523438 43.796875 C 158.105469 45.125 158.6875 46.484375 159.175781 47.859375 C 160.65625 51.945312 161.3125 56.101562 161.132812 59.847656 C 166.03125 58.144531 171.109375 57.195312 176.285156 57.121094 C 178.65625 53.476562 183.042969 51.273438 187.285156 51.710938 C 191.5625 51.273438 195.949219 53.476562 198.320312 57.121094 C 203.496094 57.195312 208.578125 58.144531 213.476562 59.847656 C 213.292969 56.101562 213.9375 51.945312 215.40625 47.859375 Z M 219.417969 83.042969 C 219.515625 81.898438 219.320312 80.769531 219.03125 79.601562 C 219.140625 80.902344 218.75 82.226562 217.8125 83.117188 C 217.046875 83.882812 215.96875 84.269531 214.898438 84.269531 C 214.082031 84.269531 213.246094 84.0625 212.550781 83.601562 C 211.046875 82.605469 210.230469 80.648438 210.59375 78.8125 C 210.898438 77.351562 212.40625 75.105469 214.363281 74.910156 C 216.050781 74.726562 217.535156 76.136719 218.289062 77.351562 C 218.046875 76.71875 217.789062 76.101562 217.535156 75.46875 L 217.097656 74.398438 C 215.6875 70.824219 214.570312 67.105469 213.804688 63.347656 C 213.730469 63.324219 213.65625 63.324219 213.597656 63.296875 C 208.445312 61.355469 203.046875 60.367188 197.554688 60.367188 C 197.480469 60.367188 197.433594 60.367188 197.386719 60.367188 C 196.789062 60.367188 196.230469 60.027344 195.949219 59.492188 C 194.371094 56.515625 190.871094 54.617188 187.589844 54.933594 C 187.503906 54.933594 187.40625 54.921875 187.308594 54.898438 C 187.199219 54.921875 187.101562 54.933594 187.007812 54.933594 C 183.738281 54.617188 180.238281 56.515625 178.65625 59.492188 C 178.378906 60.027344 177.867188 60.308594 177.210938 60.367188 C 171.621094 60.257812 166.210938 61.328125 161.011719 63.296875 C 160.9375 63.324219 160.875 63.324219 160.804688 63.347656 C 160.039062 67.105469 158.917969 70.824219 157.484375 74.398438 L 157.058594 75.46875 C 156.804688 76.101562 156.550781 76.71875 156.292969 77.328125 C 157.058594 76.136719 158.554688 74.75 160.246094 74.910156 C 162.1875 75.105469 163.707031 77.351562 163.988281 78.8125 C 164.351562 80.648438 163.5625 82.605469 162.054688 83.601562 C 161.339844 84.0625 160.523438 84.269531 159.710938 84.269531 C 158.617188 84.269531 157.546875 83.882812 156.757812 83.117188 C 155.855469 82.226562 155.46875 80.902344 155.578125 79.601562 C 155.25 80.769531 155.066406 81.898438 155.164062 83.042969 C 155.347656 85.132812 156.417969 87.152344 157.316406 88.683594 C 159.453125 92.257812 162.105469 95.46875 165.214844 98.25 C 172.359375 104.660156 177.976562 109.449219 183.410156 113.789062 C 184.757812 114.859375 186.007812 115.746094 187.285156 115.976562 C 188.585938 115.746094 189.851562 114.859375 191.1875 113.789062 C 196.617188 109.449219 202.246094 104.660156 209.390625 98.25 C 212.503906 95.46875 215.152344 92.257812 217.28125 88.683594 C 218.191406 87.152344 219.261719 85.109375 219.417969 83.042969 Z M 223.78125 193.699219 C 223.832031 193.519531 223.925781 193.394531 224.011719 193.261719 C 221.714844 190.964844 217.632812 189.421875 214.242188 188.703125 C 214.410156 192.679688 213.65625 196.789062 212.808594 200.714844 C 212.890625 200.996094 212.964844 201.296875 212.964844 201.613281 C 212.964844 202.527344 212.988281 203.449219 213.015625 204.363281 C 218.167969 202.734375 222.324219 198.757812 223.78125 193.699219 Z M 221.328125 33.851562 C 223.222656 28.539062 224.109375 22.800781 224.011719 17.160156 C 220.488281 14.816406 216.476562 12.855469 212.175781 11.421875 C 203.558594 8.515625 194.371094 7.679688 187.285156 7.265625 C 180.238281 7.679688 171.035156 8.515625 162.433594 11.421875 C 158.105469 12.855469 154.117188 14.816406 150.582031 17.160156 C 150.472656 22.800781 151.347656 28.539062 153.28125 33.851562 C 154.117188 36.199219 155.1875 38.546875 156.210938 40.796875 C 166.042969 37.015625 176.773438 35.226562 187.285156 35.566406 C 197.835938 35.203125 208.554688 37.015625 218.398438 40.796875 C 219.417969 38.546875 220.488281 36.199219 221.328125 33.851562 Z M 225.410156 233.785156 C 225.566406 221.6875 225.714844 209.601562 225.800781 197.480469 C 223.367188 202.574219 218.726562 206.308594 213.0625 207.777344 C 213.195312 217.554688 213.523438 227.511719 213.875 237.199219 C 214.21875 247.632812 214.59375 258.355469 214.703125 268.894531 C 218.347656 268.152344 221.972656 267.714844 225.058594 267.4375 C 225.15625 256.191406 225.277344 245.003906 225.410156 233.785156 Z M 225.542969 186.222656 L 226.042969 160.425781 C 225.894531 159.71875 225.800781 159.003906 225.761719 158.285156 C 223.367188 158.078125 221 157.871094 218.628906 157.652344 C 217.5 157.542969 216.355469 157.445312 215.214844 157.363281 C 214.546875 164.875 214.421875 172.496094 214.875 180.046875 C 215.359375 180.8125 215.820312 181.628906 216.171875 182.464844 C 219.441406 183.207031 222.761719 184.4375 225.542969 186.222656 Z M 227.730469 282 C 228.097656 279.886719 228.082031 277.722656 228.058594 275.449219 C 228.035156 274.863281 228.035156 274.292969 228.035156 273.707031 C 224.644531 273.964844 220.074219 274.425781 215.566406 275.351562 L 215.492188 282.875 C 217.679688 282.71875 219.878906 282.546875 222.09375 282.390625 C 223.964844 282.253906 225.847656 282.109375 227.730469 282 Z M 232.375 24.492188 C 230.890625 22.730469 229.164062 21.074219 227.269531 19.542969 C 227.097656 24.796875 226.152344 30.046875 224.390625 34.949219 C 223.476562 37.425781 222.410156 39.847656 221.351562 42.167969 C 220.34375 44.371094 219.308594 46.679688 218.472656 48.976562 C 217.558594 51.433594 217 53.914062 216.769531 56.285156 C 217.839844 54.339844 219.089844 52.503906 220.34375 50.691406 C 220.816406 50 221.277344 49.292969 221.738281 48.625 C 226.613281 41.207031 230.1875 33.085938 232.375 24.492188 Z M 242.933594 207.753906 C 244.464844 202.78125 245.558594 198.695312 244.613281 194.929688 C 243.796875 191.792969 241.539062 189.03125 239.15625 186.101562 L 238.4375 185.226562 C 234.769531 180.691406 232.277344 176.910156 230.441406 173.128906 L 230.125 190.355469 C 231.488281 192.265625 232.324219 194.515625 232.300781 197.09375 C 232.214844 209.140625 232.070312 221.152344 231.9375 233.175781 C 231.996094 232.910156 232.046875 232.652344 232.167969 232.347656 C 232.882812 230.488281 233.855469 228.785156 234.839844 227.144531 C 235.085938 226.695312 235.375 226.234375 235.617188 225.796875 C 236.070312 225.03125 236.53125 224.265625 236.992188 223.5 C 238.132812 221.664062 239.203125 219.898438 239.75 218.089844 C 240.433594 215.789062 241.148438 213.503906 241.839844 211.230469 Z M 246.558594 44.867188 C 238.925781 43.773438 230.613281 46.8125 225.871094 52.613281 C 228.617188 53.121094 231.558594 52.199219 235.109375 50.667969 C 239.035156 48.953125 242.863281 47.019531 246.558594 44.867188 Z M 245.027344 130.164062 L 227.574219 141.910156 C 226.359375 142.722656 225.15625 143.609375 223.925781 144.511719 C 221.351562 146.445312 218.652344 148.414062 215.796875 149.8125 C 215.238281 150.089844 214.679688 150.40625 214.109375 150.710938 C 215.820312 150.882812 217.523438 151.015625 219.210938 151.171875 C 222.578125 151.476562 225.921875 151.78125 229.289062 152.0625 C 230.003906 152.132812 230.660156 152.472656 231.171875 152.972656 C 231.914062 151.089844 232.8125 149.277344 233.722656 147.550781 C 236.917969 141.472656 240.761719 135.625 245.027344 130.164062 Z M 248.257812 32.675781 C 248.71875 31.507812 249.207031 30.253906 249.414062 29.027344 C 244.792969 27.652344 240.054688 26.679688 235.277344 26.144531 C 233.578125 32.625 231.097656 38.824219 227.890625 44.671875 C 232.933594 41.378906 239.179688 39.699219 245.257812 40.078125 Z M 254.054688 39.46875 C 253.726562 36.917969 253.082031 34.230469 252.171875 31.398438 C 251.90625 32.273438 251.578125 33.113281 251.273438 33.878906 L 248.574219 40.515625 C 248.925781 40.589844 249.253906 40.636719 249.59375 40.734375 C 251.089844 40.285156 252.574219 39.894531 254.054688 39.46875 Z M 253.496094 75.722656 L 244.332031 62.558594 C 243.335938 61.097656 241.804688 58.910156 241.707031 56.175781 C 241.660156 54.726562 242.035156 53.425781 242.570312 52.273438 C 240.734375 53.195312 238.875 54.109375 236.96875 54.921875 C 233.953125 56.234375 230.746094 57.402344 227.453125 57.402344 C 227.0625 57.402344 226.6875 57.378906 226.285156 57.355469 C 227.425781 59.566406 229.566406 61.183594 231.839844 62.789062 C 238.71875 67.613281 245.972656 71.96875 253.496094 75.722656 Z M 264.335938 135.550781 C 265.589844 132.804688 266.148438 129.738281 265.785156 126.773438 C 265.382812 123.453125 264.019531 120.21875 262.113281 117.898438 C 258.699219 123.355469 258.101562 130.652344 260.628906 136.804688 Z M 266.136719 165.375 C 267.519531 157.933594 267.667969 147.257812 263.828125 139.527344 C 263.789062 139.40625 263.765625 139.285156 263.71875 139.171875 L 260.277344 140.328125 C 260.09375 140.402344 259.925781 140.425781 259.742188 140.425781 C 259.160156 140.425781 258.589844 140.097656 258.308594 139.527344 C 255.515625 133.945312 255.199219 127.332031 256.984375 121.496094 C 248.855469 129.605469 241.890625 138.992188 236.601562 149.082031 C 234.925781 152.242188 233.296875 155.660156 232.75 159.308594 C 232.679688 159.71875 232.679688 160.097656 232.652344 160.484375 C 233.320312 163.648438 234.671875 166.855469 235.789062 169.3125 C 237.429688 172.960938 239.824219 176.605469 243.46875 181.140625 L 244.1875 181.992188 C 246.789062 185.179688 249.742188 188.800781 250.894531 193.324219 C 252.390625 199.160156 250.59375 204.984375 249.132812 209.675781 L 248.0625 213.164062 C 247.347656 215.4375 246.652344 217.6875 245.972656 219.960938 C 245.160156 222.585938 243.847656 224.773438 242.546875 226.890625 C 242.097656 227.582031 241.683594 228.300781 241.269531 229.003906 C 241.015625 229.492188 240.710938 229.976562 240.433594 230.441406 C 239.617188 231.863281 238.730469 233.320312 238.21875 234.683594 C 238.0625 235.085938 238.011719 235.621094 237.953125 236.238281 C 237.855469 236.992188 237.78125 237.820312 237.503906 238.730469 C 236.96875 240.59375 236.179688 242.222656 235.386719 243.777344 C 234.34375 245.878906 233.445312 247.714844 233.417969 249.710938 C 233.394531 250.644531 233.417969 251.507812 233.417969 252.410156 C 235.375 247.507812 237.527344 242.71875 239.640625 238.015625 C 240.359375 236.410156 241.074219 234.828125 241.804688 233.222656 C 242.59375 231.414062 243.386719 229.625 244.164062 227.8125 C 248.746094 217.226562 252.984375 206.332031 256.8125 195.4375 C 257.09375 194.625 257.347656 193.820312 257.605469 193.007812 C 257.335938 193.007812 257.070312 192.933594 256.8125 192.800781 C 256.28125 192.496094 255.964844 191.9375 255.988281 191.304688 L 256.144531 186.042969 C 256.171875 185.53125 256.425781 185.042969 256.839844 184.738281 C 257.289062 184.460938 257.824219 184.363281 258.308594 184.546875 L 259.949219 185.105469 C 260.425781 183.621094 260.910156 182.136719 261.480469 180.644531 C 263.789062 174.746094 265.25 169.894531 266.136719 165.375 Z M 266.316406 103.917969 C 267.109375 102.3125 267.472656 100.730469 267.472656 99.222656 C 267.132812 98.277344 266.621094 97.304688 266.0625 96.234375 C 263.183594 90.773438 260.65625 86.128906 257.214844 81.085938 C 247.699219 76.695312 238.523438 71.480469 229.957031 65.4375 C 227.425781 63.652344 224.828125 61.667969 223.367188 58.777344 C 222.957031 57.9375 222.699219 57.050781 222.503906 56.148438 C 222.042969 55.796875 221.667969 55.410156 221.398438 54.957031 C 219.515625 57.839844 217.839844 60.84375 217.328125 64.089844 C 218.046875 67.175781 218.933594 70.242188 220.113281 73.195312 L 220.5625 74.242188 C 221.714844 77.097656 222.929688 80.039062 222.664062 83.320312 C 222.433594 86.058594 221.15625 88.5 220.074219 90.335938 C 217.765625 94.191406 214.921875 97.667969 211.566406 100.671875 C 207.121094 104.660156 203.265625 108.027344 199.65625 111.054688 C 198.453125 126.46875 197.664062 142.078125 197.324219 157.542969 C 199.21875 156.9375 201.128906 155.402344 203.121094 153.773438 C 204.371094 152.730469 205.699219 151.683594 207.09375 150.785156 C 207.507812 150.527344 207.96875 150.394531 208.457031 150.347656 C 210.363281 149.070312 212.320312 147.878906 214.386719 146.882812 C 216.964844 145.628906 219.539062 143.722656 221.996094 141.910156 C 223.269531 140.984375 224.511719 140.0625 225.761719 139.222656 L 245.402344 125.984375 C 250.203125 122.726562 253.957031 118.566406 257.957031 114.191406 C 258.929688 113.097656 259.925781 112 260.945312 110.90625 C 262.953125 108.753906 265.042969 106.519531 266.316406 103.917969 Z M 277.085938 38.265625 C 276.113281 37.039062 275.25 35.589844 274.65625 33.949219 C 274.097656 32.441406 273.695312 31.117188 273.390625 29.839844 C 270.074219 32.832031 266.683594 35.738281 263.207031 38.523438 C 263.253906 38.570312 263.269531 38.644531 263.292969 38.703125 C 267.875 38.777344 272.539062 38.777344 277.085938 38.265625 Z M 283.683594 192.375 C 285.011719 191.730469 285.496094 191.121094 285.496094 190.890625 C 285.496094 190.683594 284.9375 189.980469 283.175781 189.335938 C 279.480469 187.9375 276.453125 187.316406 273.742188 187.316406 C 273.648438 187.316406 273.5625 187.316406 273.464844 187.316406 C 270.730469 187.367188 267.167969 188.191406 265.917969 189.542969 C 265.578125 189.917969 265.550781 190.210938 265.550781 190.480469 C 265.613281 191.535156 266.015625 192.351562 266.828125 193.042969 C 268.613281 194.601562 272.007812 195.074219 274.582031 194.855469 C 277.765625 194.585938 280.804688 193.75 283.683594 192.375 Z M 286.601562 100.34375 C 287.976562 98.738281 288.582031 96.28125 288.230469 94.019531 C 280.085938 89.5 272.007812 84.695312 264.082031 79.699219 C 266.523438 83.429688 268.566406 87.078125 270.65625 91.03125 L 277.414062 96.0625 L 284.257812 100.039062 C 284.863281 100.390625 285.53125 100.78125 286.019531 100.828125 C 286.042969 100.828125 286.324219 100.671875 286.601562 100.34375 Z M 289.042969 115.320312 C 289.277344 114.554688 289.203125 113.558594 288.8125 112.511719 C 287.71875 109.679688 285.167969 107.613281 281.933594 105.195312 L 274.863281 99.941406 L 274.328125 99.625 C 274.414062 100.222656 274.484375 100.851562 274.507812 101.484375 C 278.664062 104.476562 282.90625 108.402344 287.113281 113.230469 C 287.488281 113.679688 287.695312 114.25 287.671875 114.835938 C 287.671875 115.320312 287.949219 115.855469 288.4375 116.269531 C 288.691406 116.039062 288.921875 115.699219 289.042969 115.320312 Z M 315.625 19.945312 C 315.089844 19.519531 314.371094 19.105469 313.835938 18.800781 L 313.070312 18.339844 C 309.800781 16.371094 306.082031 15.179688 302.328125 14.949219 C 301.816406 14.925781 301.320312 14.910156 300.832031 14.910156 C 297.613281 14.910156 294.550781 15.605469 290.648438 17.160156 C 287.746094 18.292969 284.914062 19.691406 282.238281 21.292969 C 281.933594 21.476562 281.621094 21.660156 281.292969 21.839844 C 279.894531 22.632812 277.996094 23.703125 277.644531 24.796875 C 277.460938 25.402344 277.242188 27.214844 278.617188 31.277344 C 290.648438 26.703125 303.09375 22.910156 315.625 19.945312 Z M 314.929688 25.769531 C 315.257812 25.027344 315.648438 24.128906 315.953125 23.214844 C 303.738281 26.121094 291.644531 29.816406 279.917969 34.253906 C 280.828125 35.761719 281.960938 36.917969 283.261719 37.574219 C 284.792969 38.339844 286.722656 38.546875 288.59375 38.726562 C 292.617188 39.128906 296.773438 39.542969 300.722656 39.007812 C 304.855469 38.425781 308.308594 36.78125 310.472656 34.339844 C 312.234375 32.34375 313.304688 29.671875 314.371094 27.070312 C 314.53125 26.679688 314.710938 26.242188 314.929688 25.769531 Z M 320.851562 19.691406 C 321.46875 22.402344 320.195312 25.304688 319.171875 27.652344 C 318.992188 28.066406 318.808594 28.46875 318.664062 28.820312 C 317.53125 31.652344 316.230469 34.824219 313.960938 37.402344 C 311.054688 40.6875 306.570312 42.886719 301.34375 43.605469 C 299.75 43.824219 298.171875 43.90625 296.59375 43.90625 C 293.734375 43.90625 290.902344 43.628906 288.132812 43.347656 C 286.285156 43.164062 284.230469 42.933594 282.261719 42.167969 C 282.238281 42.167969 282.214844 42.191406 282.191406 42.191406 C 277.269531 43.191406 272.285156 43.371094 267.363281 43.371094 C 265.550781 43.371094 263.742188 43.347656 261.980469 43.324219 C 261.503906 43.324219 260.835938 43.273438 260.144531 43.09375 C 259.972656 43.3125 259.792969 43.519531 259.585938 43.675781 C 255.792969 46.8125 252.707031 49.753906 250.15625 52.660156 C 249.558594 53.339844 248.183594 54.921875 248.210938 55.980469 C 248.234375 56.769531 249.035156 57.914062 249.667969 58.835938 L 257.3125 69.804688 C 268.335938 77.097656 279.808594 84.0625 291.414062 90.472656 C 291.949219 90.773438 292.339844 91.285156 292.519531 91.867188 C 293.613281 95.832031 292.691406 100.34375 290.136719 103.359375 C 289.6875 103.867188 289.152344 104.292969 288.632812 104.632812 C 290.480469 106.3125 292.179688 108.332031 293.152344 110.882812 C 293.917969 112.925781 294.027344 114.933594 293.480469 116.71875 C 292.765625 119.066406 290.832031 120.804688 288.582031 121.179688 C 288.4375 121.191406 288.328125 121.191406 288.207031 121.191406 C 287.855469 121.191406 287.511719 121.132812 287.210938 120.984375 C 284.960938 119.890625 283.429688 117.898438 283.101562 115.710938 C 279.894531 112.074219 276.671875 109.011719 273.511719 106.519531 C 272.261719 109.605469 270.050781 112.125 268.410156 113.972656 C 268.261719 114.117188 268.214844 114.226562 268.03125 114.6875 C 268.007812 114.738281 268.007812 114.785156 267.984375 114.808594 C 270.242188 117.945312 271.75 121.921875 272.238281 126.007812 C 272.746094 130.117188 272.066406 134.359375 270.351562 138.128906 C 273.648438 145.835938 274.460938 156.316406 272.515625 166.578125 C 271.570312 171.523438 269.988281 176.753906 267.546875 183.015625 C 267.472656 183.234375 267.398438 183.4375 267.339844 183.621094 C 270.144531 182.757812 272.90625 182.671875 273.367188 182.671875 C 276.78125 182.601562 280.402344 183.34375 284.792969 184.972656 C 289.25 186.636719 290.152344 189.152344 290.136719 190.964844 C 290.113281 192.53125 289.324219 194.792969 285.703125 196.558594 C 282.3125 198.1875 278.714844 199.160156 274.972656 199.488281 C 274.460938 199.523438 273.925781 199.546875 273.367188 199.546875 C 270.171875 199.546875 266.34375 198.757812 263.789062 196.558594 C 263.644531 196.4375 263.558594 196.300781 263.414062 196.179688 C 263.253906 196.65625 263.109375 197.117188 262.953125 197.601562 C 259.074219 208.628906 254.75 219.667969 250.128906 230.390625 C 249.339844 232.203125 248.5625 234.039062 247.746094 235.875 C 247.019531 237.480469 246.300781 239.085938 245.558594 240.675781 C 241.707031 249.273438 237.695312 258.171875 235.207031 267.277344 C 234.742188 268.917969 234.597656 270.621094 234.5625 272.335938 C 234.585938 272.542969 234.597656 272.75 234.621094 272.941406 C 234.695312 273.40625 234.648438 273.84375 234.539062 274.269531 C 234.539062 274.632812 234.539062 275.011719 234.5625 275.375 C 234.585938 278.789062 234.621094 282.316406 233.394531 286.085938 C 233.007812 287.335938 231.863281 288.226562 230.539062 288.308594 C 227.890625 288.503906 225.253906 288.6875 222.578125 288.894531 C 220.183594 289.050781 217.789062 289.246094 215.445312 289.40625 L 215.105469 325.839844 C 215.078125 328.164062 215.128906 330.4375 215.152344 332.695312 C 215.261719 339.519531 215.359375 345.972656 213.9375 353.085938 C 213.316406 356.199219 212.40625 359.796875 210.4375 362.957031 C 208.09375 366.691406 204.347656 369.691406 199.621094 371.589844 C 196.617188 372.804688 193.277344 373.546875 189.144531 373.984375 C 188.78125 374.140625 188.355469 374.238281 187.941406 374.238281 C 187.84375 374.238281 187.785156 374.238281 187.6875 374.214844 C 187.539062 374.214844 187.429688 374.191406 187.285156 374.191406 C 187.175781 374.191406 187.054688 374.214844 186.921875 374.214844 C 186.824219 374.238281 186.738281 374.238281 186.664062 374.238281 C 186.226562 374.238281 185.828125 374.140625 185.449219 373.984375 C 181.332031 373.546875 177.976562 372.804688 174.984375 371.589844 C 170.246094 369.691406 166.515625 366.691406 164.167969 362.957031 C 162.1875 359.796875 161.289062 356.199219 160.65625 353.085938 C 159.246094 345.972656 159.34375 339.519531 159.453125 332.695312 C 159.480469 330.4375 159.527344 328.164062 159.503906 325.839844 L 159.152344 289.40625 C 156.78125 289.246094 154.410156 289.050781 152.027344 288.894531 C 149.355469 288.6875 146.695312 288.503906 144.066406 288.308594 C 142.742188 288.226562 141.601562 287.335938 141.1875 286.085938 C 139.972656 282.316406 139.996094 278.789062 140.046875 275.375 C 140.046875 275.011719 140.046875 274.632812 140.046875 274.269531 C 139.9375 273.84375 139.910156 273.40625 139.972656 272.941406 C 139.996094 272.75 139.996094 272.542969 140.019531 272.359375 C 139.996094 270.621094 139.863281 268.917969 139.402344 267.277344 C 136.910156 258.171875 132.898438 249.273438 129.023438 240.675781 C 128.292969 239.085938 127.578125 237.480469 126.859375 235.875 C 126.046875 234.039062 125.253906 232.203125 124.464844 230.390625 C 119.847656 219.667969 115.53125 208.628906 111.65625 197.601562 C 111.472656 197.117188 111.328125 196.65625 111.195312 196.179688 C 111.046875 196.300781 110.960938 196.4375 110.816406 196.558594 C 108.265625 198.757812 104.4375 199.546875 101.226562 199.546875 C 100.667969 199.546875 100.132812 199.523438 99.636719 199.488281 C 95.894531 199.160156 92.296875 198.1875 88.90625 196.558594 C 85.28125 194.792969 84.492188 192.53125 84.46875 190.964844 C 84.445312 189.152344 85.355469 186.636719 89.804688 184.972656 C 94.203125 183.34375 97.789062 182.601562 101.226562 182.671875 C 101.691406 182.671875 104.460938 182.757812 107.269531 183.621094 C 107.195312 183.4375 107.121094 183.234375 107.0625 183.015625 C 104.59375 176.753906 103.039062 171.523438 102.089844 166.578125 C 100.132812 156.316406 100.949219 145.835938 104.253906 138.128906 C 102.527344 134.359375 101.859375 130.117188 102.347656 126.007812 C 102.832031 121.921875 104.363281 117.945312 106.613281 114.808594 C 106.585938 114.785156 106.574219 114.738281 106.574219 114.6875 C 106.382812 114.226562 106.332031 114.117188 106.199219 113.972656 C 104.546875 112.125 102.347656 109.605469 101.070312 106.519531 C 97.910156 109.011719 94.703125 112.074219 91.503906 115.710938 C 91.175781 117.898438 89.644531 119.890625 87.398438 120.984375 C 87.070312 121.132812 86.742188 121.191406 86.402344 121.191406 C 86.28125 121.191406 86.144531 121.191406 86.023438 121.179688 C 83.777344 120.804688 81.84375 119.066406 81.125 116.71875 C 80.566406 114.933594 80.6875 112.925781 81.453125 110.882812 C 82.402344 108.332031 84.117188 106.3125 85.953125 104.632812 C 85.417969 104.292969 84.90625 103.867188 84.46875 103.359375 C 81.917969 100.34375 80.992188 95.832031 82.074219 91.867188 C 82.246094 91.285156 82.65625 90.773438 83.191406 90.472656 C 94.773438 84.0625 106.273438 77.097656 117.292969 69.804688 L 124.9375 58.835938 C 125.558594 57.914062 126.347656 56.769531 126.398438 55.980469 C 126.421875 54.921875 125.046875 53.339844 124.441406 52.660156 C 121.886719 49.753906 118.800781 46.8125 114.996094 43.675781 C 114.792969 43.519531 114.632812 43.3125 114.464844 43.09375 C 113.769531 43.273438 113.089844 43.324219 112.628906 43.324219 C 110.839844 43.347656 109.054688 43.371094 107.242188 43.371094 C 102.320312 43.371094 97.328125 43.191406 92.40625 42.191406 C 92.378906 42.191406 92.355469 42.167969 92.34375 42.167969 C 90.363281 42.933594 88.296875 43.164062 86.460938 43.347656 C 83.703125 43.628906 80.871094 43.90625 78.015625 43.90625 C 76.433594 43.90625 74.855469 43.824219 73.25 43.605469 C 68.039062 42.886719 63.554688 40.6875 60.648438 37.402344 C 58.375 34.824219 57.074219 31.652344 55.933594 28.820312 C 55.800781 28.46875 55.617188 28.066406 55.421875 27.652344 C 54.402344 25.304688 53.101562 22.402344 53.757812 19.691406 C 54.363281 17.113281 56.710938 15.761719 58.449219 14.765625 L 59.117188 14.363281 C 63.019531 11.992188 67.476562 10.609375 71.976562 10.328125 C 76.460938 10.046875 80.566406 10.789062 85.671875 12.832031 C 88.808594 14.0625 91.859375 15.582031 94.726562 17.292969 L 95.613281 17.804688 C 97.679688 18.972656 100.511719 20.589844 101.398438 23.445312 C 101.421875 23.566406 101.421875 23.703125 101.445312 23.824219 C 105.6875 27.796875 110.148438 31.578125 114.695312 35.179688 C 115.324219 32.222656 116.199219 29.183594 117.441406 25.9375 C 117.78125 25.027344 118.511719 24.332031 119.410156 24.003906 C 125.328125 21.964844 131.476562 20.539062 137.675781 19.773438 C 143.230469 13.441406 151.238281 8.308594 160.367188 5.246094 C 169.761719 2.109375 179.554688 1.199219 187.054688 0.761719 C 187.152344 0.761719 187.226562 0.761719 187.308594 0.761719 C 187.382812 0.761719 187.457031 0.761719 187.539062 0.761719 C 195.039062 1.199219 204.847656 2.109375 214.242188 5.246094 C 223.367188 8.308594 231.351562 13.441406 236.90625 19.773438 C 243.128906 20.539062 249.253906 21.964844 255.171875 24.003906 C 256.074219 24.332031 256.8125 25.027344 257.140625 25.9375 C 258.394531 29.160156 259.28125 32.222656 259.890625 35.179688 C 264.433594 31.578125 268.894531 27.796875 273.136719 23.824219 C 273.183594 23.703125 273.183594 23.566406 273.210938 23.445312 C 274.097656 20.589844 276.929688 18.972656 278.992188 17.804688 L 279.867188 17.292969 C 282.75 15.582031 285.789062 14.0625 288.921875 12.832031 C 294.027344 10.789062 298.148438 10.046875 302.597656 10.328125 C 307.128906 10.609375 311.589844 11.992188 315.492188 14.363281 L 316.160156 14.765625 C 317.871094 15.761719 320.242188 17.113281 320.851562 19.691406 " fill-opacity="1" fill-rule="nonzero"/></g><path fill="#000000" d="M 240.359375 98.203125 C 240.542969 97.351562 240.175781 96.28125 239.410156 95.371094 C 238.695312 94.554688 237.695312 93.886719 236.664062 93.253906 C 228.265625 97.484375 220.28125 102.554688 212.867188 108.402344 C 210.765625 110.070312 208.554688 111.90625 207.253906 114.25 C 205.515625 117.386719 205.394531 121.21875 205.417969 125.21875 C 205.464844 129.789062 205.648438 134.359375 205.929688 138.941406 C 210.292969 136.339844 214.726562 133.617188 218.773438 130.503906 C 223.855469 126.566406 227.609375 122.519531 230.257812 118.152344 C 231.816406 115.574219 233.066406 112.742188 234.28125 110.007812 C 235.691406 106.773438 237.175781 103.453125 239.179688 100.414062 L 239.339844 100.160156 C 239.800781 99.480469 240.226562 98.8125 240.359375 98.203125 Z M 251.964844 91.359375 C 250.8125 89.582031 248.269531 88.039062 246.761719 88.660156 C 244.492188 89.582031 242.265625 90.59375 240.054688 91.613281 C 240.6875 92.101562 241.308594 92.636719 241.867188 93.253906 C 243.3125 94.933594 243.933594 97.023438 243.542969 98.882812 C 243.289062 100.113281 242.632812 101.085938 242.058594 101.972656 L 241.890625 102.203125 C 240.03125 105.011719 238.695312 108.074219 237.246094 111.308594 C 235.996094 114.152344 234.695312 117.082031 233.042969 119.832031 C 230.175781 124.558594 226.152344 128.886719 220.742188 133.070312 C 216.125 136.644531 211.070312 139.660156 206.160156 142.589844 C 206.207031 143.078125 206.230469 143.585938 206.257812 144.074219 C 207.421875 144.28125 208.722656 143.890625 210.59375 142.796875 C 217.558594 138.761719 225.484375 134.175781 231.65625 128.023438 C 241.707031 117.996094 247.1875 103.917969 251.964844 91.359375 Z M 255.222656 90.519531 C 255.40625 90.910156 255.429688 91.382812 255.257812 91.796875 C 250.324219 104.851562 244.699219 119.625 233.953125 130.324219 C 227.476562 136.777344 219.371094 141.472656 212.222656 145.605469 C 210.71875 146.492188 208.859375 147.367188 206.863281 147.367188 C 205.953125 147.367188 205.003906 147.1875 204.03125 146.722656 C 203.523438 146.46875 203.167969 145.96875 203.121094 145.398438 C 202.539062 138.734375 202.222656 131.953125 202.171875 125.242188 C 202.148438 120.960938 202.28125 116.488281 204.421875 112.644531 C 206.027344 109.8125 208.480469 107.722656 210.875 105.851562 C 221.410156 97.511719 233.089844 90.703125 245.535156 85.644531 C 249.023438 84.222656 253.59375 87.101562 255.222656 90.519531 " fill-opacity="1" fill-rule="nonzero"/><path fill="#000000" d="M 204.347656 89.144531 C 204.46875 88.839844 204.628906 88.476562 204.675781 88.171875 C 204.566406 88.222656 204.371094 88.332031 204.140625 88.476562 C 202.839844 89.292969 201.285156 90.238281 199.644531 91.078125 C 199.136719 91.332031 198.625 91.539062 198.125 91.722656 C 197.53125 91.953125 196.996094 92.171875 196.535156 92.464844 C 193.859375 94.191406 191.101562 95.164062 188.292969 95.492188 C 188.074219 95.578125 187.84375 95.625 187.613281 95.625 C 187.503906 95.625 187.40625 95.601562 187.285156 95.601562 C 187.199219 95.601562 187.101562 95.625 186.992188 95.625 C 186.761719 95.625 186.519531 95.578125 186.3125 95.492188 C 183.503906 95.164062 180.746094 94.191406 178.074219 92.464844 C 177.613281 92.171875 177.078125 91.953125 176.46875 91.722656 C 175.984375 91.539062 175.472656 91.332031 174.960938 91.078125 C 173.320312 90.238281 171.765625 89.292969 170.464844 88.476562 C 170.222656 88.332031 170.0625 88.246094 169.941406 88.171875 C 169.96875 88.5 170.113281 88.816406 170.246094 89.144531 C 172.105469 93.425781 174.378906 97.511719 177.078125 101.289062 C 180.492188 106.140625 183.761719 109.070312 187.285156 110.421875 C 190.847656 109.070312 194.117188 106.140625 197.53125 101.289062 C 200.203125 97.511719 202.5 93.425781 204.347656 89.144531 Z M 206.160156 85.085938 C 207.253906 85.59375 207.957031 86.761719 207.933594 88.074219 C 207.933594 89.035156 207.558594 89.886719 207.324219 90.445312 C 205.394531 94.910156 202.988281 99.199219 200.179688 103.175781 C 197.859375 106.46875 194.320312 110.859375 189.339844 113.121094 C 189.058594 113.65625 188.523438 113.996094 187.917969 113.996094 C 187.785156 113.996094 187.613281 113.972656 187.457031 113.921875 C 187.40625 113.898438 187.359375 113.886719 187.285156 113.863281 C 187.25 113.886719 187.199219 113.898438 187.128906 113.921875 C 186.992188 113.972656 186.824219 113.996094 186.691406 113.996094 C 186.082031 113.996094 185.546875 113.65625 185.269531 113.121094 C 180.273438 110.859375 176.722656 106.46875 174.402344 103.175781 C 171.59375 99.199219 169.203125 94.910156 167.28125 90.445312 C 166.976562 89.730469 166.671875 88.964844 166.648438 88.074219 C 166.648438 86.761719 167.355469 85.59375 168.4375 85.085938 C 170.015625 84.367188 171.523438 85.316406 172.179688 85.703125 C 173.429688 86.496094 174.890625 87.40625 176.445312 88.171875 C 176.847656 88.378906 177.257812 88.550781 177.660156 88.707031 C 178.351562 88.988281 179.09375 89.265625 179.835938 89.730469 C 182.277344 91.308594 184.78125 92.171875 187.285156 92.332031 C 189.824219 92.171875 192.328125 91.308594 194.773438 89.730469 C 195.511719 89.265625 196.230469 88.988281 196.945312 88.707031 C 197.335938 88.550781 197.761719 88.378906 198.152344 88.171875 C 199.707031 87.40625 201.175781 86.496094 202.402344 85.703125 C 203.046875 85.316406 204.578125 84.367188 206.160156 85.085938 " fill-opacity="1" fill-rule="nonzero"/><path fill="#000000" d="M 163.609375 123.355469 C 164.632812 121.496094 165.277344 119.480469 165.566406 117.386719 C 163.257812 119.625 159.917969 121.058594 156.113281 121.410156 C 155.445312 121.449219 154.761719 121.472656 154.117188 121.472656 C 151.566406 121.472656 149.074219 121.082031 146.644531 120.644531 C 146.753906 120.984375 146.898438 121.339844 147.082031 121.679688 C 147.921875 123.257812 149.453125 124.585938 151.421875 125.449219 C 153.121094 126.164062 155.089844 126.578125 157.644531 126.722656 C 158.6875 126.796875 159.78125 126.796875 160.632812 126.46875 C 161.726562 126.054688 162.699219 125.023438 163.609375 123.355469 Z M 164.097656 114.191406 C 164.558594 113.605469 165.070312 112.695312 165.042969 111.84375 C 165.042969 111.308594 164.839844 110.773438 164.496094 110.261719 C 163.5625 109.398438 162.6875 108.488281 161.800781 107.613281 L 155.480469 102.3125 C 151.75 104.878906 148.796875 108.585938 147.191406 112.839844 C 146.804688 113.898438 146.316406 115.503906 146.21875 117.253906 C 149.402344 117.847656 152.648438 118.433594 155.832031 118.152344 C 159.382812 117.847656 162.40625 116.390625 164.097656 114.191406 Z M 167.585938 124.121094 C 167.863281 123.054688 168.023438 121.957031 168.144531 120.875 C 167.71875 122.261719 167.183594 123.636719 166.46875 124.9375 C 165.167969 127.285156 163.660156 128.792969 161.824219 129.484375 C 160.777344 129.910156 159.683594 130.019531 158.640625 130.019531 C 158.25 130.019531 157.824219 129.996094 157.460938 129.96875 C 154.507812 129.8125 152.1875 129.300781 150.121094 128.414062 C 147.496094 127.285156 145.394531 125.449219 144.203125 123.210938 C 142.523438 120.109375 142.523438 116.015625 144.152344 111.671875 C 145.78125 107.40625 148.589844 103.589844 152.136719 100.730469 C 149.988281 101.289062 148.238281 101.898438 146.667969 102.640625 C 145.367188 103.25 143.898438 104.585938 142.488281 106.519531 C 139.972656 109.960938 138.84375 114.25 139.378906 118.300781 C 140.144531 123.988281 144.25 129.191406 149.609375 131.222656 C 152.902344 132.511719 156.695312 132.574219 160.21875 131.492188 C 162.054688 130.929688 163.707031 130.066406 165.167969 128.949219 C 166.394531 128.023438 167.074219 125.984375 167.585938 124.121094 Z M 171.621094 113.765625 C 171.667969 117.460938 171.691406 121.289062 170.707031 124.960938 C 170.039062 127.464844 169.140625 130.019531 167.109375 131.550781 C 165.371094 132.875 163.378906 133.898438 161.191406 134.601562 C 159.222656 135.199219 157.207031 135.503906 155.199219 135.503906 C 152.890625 135.503906 150.582031 135.089844 148.457031 134.273438 C 142.003906 131.804688 137.054688 125.558594 136.144531 118.738281 C 135.5 113.835938 136.863281 108.707031 139.886719 104.585938 C 141.648438 102.203125 143.460938 100.550781 145.296875 99.6875 C 147.496094 98.675781 149.9375 97.886719 153.207031 97.132812 C 153.585938 97.046875 153.972656 97.097656 154.324219 97.277344 C 158.105469 99.25 161.105469 102.261719 164.011719 105.195312 L 164.277344 105.425781 C 165.238281 106.238281 166.234375 107.125 166.976562 108.148438 C 168.253906 109.328125 169.53125 110.445312 170.925781 111.417969 C 171.363281 111.722656 171.621094 112.207031 171.621094 112.742188 L 171.621094 113.765625 " fill-opacity="1" fill-rule="nonzero"/></svg>