<svg xmlns="http://www.w3.org/2000/svg" xmlns:xlink="http://www.w3.org/1999/xlink" width="500" zoomAndPan="magnify" viewBox="0 0 375 374.999991" height="500" preserveAspectRatio="xMidYMid meet" version="1.0"><defs><clipPath id="92cdd059de"><path d="M 266 246 L 273 246 L 273 264.09375 L 266 264.09375 Z M 266 246 " clip-rule="nonzero"/></clipPath><clipPath id="2a691c9554"><path d="M 253 246 L 260 246 L 260 264.09375 L 253 264.09375 Z M 253 246 " clip-rule="nonzero"/></clipPath><clipPath id="f76c307e7b"><path d="M 180 111.09375 L 194 111.09375 L 194 156 L 180 156 Z M 180 111.09375 " clip-rule="nonzero"/></clipPath><clipPath id="aa9993a3b8"><path d="M 104 246 L 111 246 L 111 264.09375 L 104 264.09375 Z M 104 246 " clip-rule="nonzero"/></clipPath><clipPath id="46490f1978"><path d="M 117 246 L 124 246 L 124 264.09375 L 117 264.09375 Z M 117 246 " clip-rule="nonzero"/></clipPath></defs><g clip-path="url(#92cdd059de)"><path fill="#393536" d="M 269.46875 246.632812 C 267.679688 246.632812 266.226562 248.085938 266.226562 249.875 L 266.226562 260.875 C 266.226562 262.667969 267.679688 264.117188 269.46875 264.117188 C 271.257812 264.117188 272.710938 262.667969 272.710938 260.875 L 272.710938 249.875 C 272.710938 248.085938 271.257812 246.632812 269.46875 246.632812 " fill-opacity="1" fill-rule="nonzero"/></g><g clip-path="url(#2a691c9554)"><path fill="#393536" d="M 256.421875 246.632812 C 254.628906 246.632812 253.179688 248.085938 253.179688 249.875 L 253.179688 260.875 C 253.179688 262.667969 254.628906 264.117188 256.421875 264.117188 C 258.207031 264.117188 259.660156 262.667969 259.660156 260.875 L 259.660156 249.875 C 259.660156 248.085938 258.207031 246.632812 256.421875 246.632812 " fill-opacity="1" fill-rule="nonzero"/></g><path fill="#393536" d="M 260.339844 257.351562 L 265.402344 257.351562 L 265.402344 253.394531 L 260.339844 253.394531 L 260.339844 257.351562 " fill-opacity="1" fill-rule="nonzero"/><g clip-path="url(#f76c307e7b)"><path fill="#393536" d="M 193.714844 155.136719 C 192.726562 133.007812 190.015625 113.867188 190.015625 113.867188 L 189.984375 113.867188 C 189.839844 112.296875 188.542969 111.074219 186.941406 111.074219 C 185.339844 111.074219 184.039062 112.296875 183.894531 113.867188 L 183.867188 113.867188 C 183.867188 113.867188 181.152344 133.007812 180.171875 155.136719 C 182.378906 154.816406 184.636719 154.648438 186.941406 154.648438 C 189.242188 154.648438 191.5 154.816406 193.714844 155.136719 " fill-opacity="1" fill-rule="nonzero"/></g><path fill="#393536" d="M 111.832031 162.675781 L 111.820312 162.707031 C 111.820312 162.707031 127.160156 169.8125 146.835938 177.101562 C 149.664062 172.507812 153.253906 168.445312 157.429688 165.070312 C 134.171875 159.261719 113.792969 156.148438 113.792969 156.148438 L 113.78125 156.179688 C 112.070312 155.828125 110.347656 156.820312 109.832031 158.53125 C 109.320312 160.234375 110.210938 162.019531 111.832031 162.675781 " fill-opacity="1" fill-rule="nonzero"/><path fill="#393536" d="M 226.824219 176.757812 C 246.050781 169.59375 260.914062 162.707031 260.914062 162.707031 L 260.90625 162.675781 C 262.523438 162.019531 263.417969 160.234375 262.90625 158.53125 C 262.386719 156.820312 260.664062 155.828125 258.953125 156.179688 L 258.941406 156.148438 C 258.941406 156.148438 239.070312 159.179688 216.179688 164.859375 C 220.363281 168.1875 223.972656 172.210938 226.824219 176.757812 " fill-opacity="1" fill-rule="nonzero"/><path fill="#393536" d="M 215.761719 192.875 C 215.71875 193.453125 215.671875 194.074219 215.621094 194.734375 C 207.804688 188.320312 197.824219 184.464844 186.941406 184.464844 C 176.039062 184.464844 166.050781 188.328125 158.238281 194.75 C 158.195312 194.066406 158.160156 193.417969 158.121094 192.816406 C 157.484375 183.308594 159.3125 179.625 161.992188 177.296875 C 169.144531 172.558594 177.71875 169.792969 186.941406 169.792969 C 196.003906 169.792969 204.4375 172.472656 211.519531 177.0625 C 211.628906 177.152344 211.746094 177.246094 211.84375 177.324219 C 214.632812 179.464844 216.394531 183.324219 215.761719 192.875 Z M 232.234375 201.769531 C 232.234375 176.726562 211.957031 156.417969 186.941406 156.417969 C 161.925781 156.417969 141.648438 176.726562 141.648438 201.769531 C 141.648438 226.8125 161.925781 247.117188 186.941406 247.117188 C 211.957031 247.117188 232.234375 226.8125 232.234375 201.769531 " fill-opacity="1" fill-rule="nonzero"/><path fill="#393536" d="M 211.296875 242.101562 C 218.660156 242.480469 224.554688 238.183594 224.554688 238.183594 C 227.539062 232.96875 228.96875 227.273438 229.511719 221.871094 C 225.550781 230.273438 219.183594 237.3125 211.296875 242.101562 " fill-opacity="1" fill-rule="nonzero"/><path fill="#393536" d="M 145.859375 224.761719 C 146.585938 229.269531 147.992188 233.886719 150.449219 238.183594 C 150.449219 238.183594 155.773438 242.074219 162.632812 242.125 C 155.644531 237.894531 149.855469 231.902344 145.859375 224.761719 " fill-opacity="1" fill-rule="nonzero"/><path fill="#393536" d="M 266.226562 233.355469 C 264.007812 233.699219 261.808594 234.035156 259.640625 234.367188 L 259.640625 240.117188 C 259.640625 240.640625 259.773438 241.125 259.988281 241.566406 L 253.800781 235.265625 C 253.269531 235.347656 252.730469 235.433594 252.199219 235.511719 L 260.957031 244.4375 L 260.957031 252.605469 L 264.910156 252.605469 L 264.910156 242.742188 C 265.707031 242.136719 266.226562 241.195312 266.226562 240.117188 L 266.226562 233.355469 " fill-opacity="1" fill-rule="nonzero"/><g clip-path="url(#aa9993a3b8)"><path fill="#393536" d="M 107.515625 246.632812 C 105.726562 246.632812 104.277344 248.085938 104.277344 249.875 L 104.277344 260.875 C 104.277344 262.667969 105.726562 264.117188 107.515625 264.117188 C 109.304688 264.117188 110.753906 262.667969 110.753906 260.875 L 110.753906 249.875 C 110.753906 248.085938 109.304688 246.632812 107.515625 246.632812 " fill-opacity="1" fill-rule="nonzero"/></g><g clip-path="url(#46490f1978)"><path fill="#393536" d="M 120.5625 246.632812 C 118.773438 246.632812 117.324219 248.085938 117.324219 249.875 L 117.324219 260.875 C 117.324219 262.667969 118.773438 264.117188 120.5625 264.117188 C 122.351562 264.117188 123.804688 262.667969 123.804688 260.875 L 123.804688 249.875 C 123.804688 248.085938 122.351562 246.632812 120.5625 246.632812 " fill-opacity="1" fill-rule="nonzero"/></g><path fill="#393536" d="M 111.582031 257.351562 L 116.636719 257.351562 L 116.636719 253.394531 L 111.582031 253.394531 L 111.582031 257.351562 " fill-opacity="1" fill-rule="nonzero"/><path fill="#393536" d="M 116.992188 241.566406 C 117.207031 241.125 117.339844 240.640625 117.339844 240.117188 L 117.339844 234.367188 C 115.171875 234.035156 112.976562 233.699219 110.753906 233.355469 L 110.753906 240.117188 C 110.753906 241.195312 111.273438 242.136719 112.070312 242.742188 L 112.070312 252.605469 L 116.023438 252.605469 L 116.023438 244.4375 L 124.785156 235.511719 C 124.253906 235.433594 123.71875 235.347656 123.179688 235.265625 L 116.992188 241.566406 " fill-opacity="1" fill-rule="nonzero"/><path fill="#393536" d="M 69.535156 211.292969 C 61.175781 211.292969 54.40625 218.074219 54.40625 226.4375 C 54.40625 234.804688 61.175781 241.585938 69.535156 241.585938 C 77.890625 241.585938 84.664062 234.804688 84.664062 226.4375 C 84.664062 218.074219 77.890625 211.292969 69.535156 211.292969 " fill-opacity="1" fill-rule="nonzero"/><path fill="#393536" d="M 305.464844 211.292969 C 297.113281 211.292969 290.339844 218.074219 290.339844 226.4375 C 290.339844 234.804688 297.113281 241.585938 305.464844 241.585938 C 313.820312 241.585938 320.597656 234.804688 320.597656 226.4375 C 320.597656 218.074219 313.820312 211.292969 305.464844 211.292969 " fill-opacity="1" fill-rule="nonzero"/><path fill="#393536" d="M 139.871094 201.769531 C 139.871094 200.796875 139.914062 199.84375 139.972656 198.890625 L 14.421875 198.890625 C 14.421875 198.890625 0.0625 197.484375 0.0625 205.675781 C 0.0625 213.867188 1.777344 213.867188 20.367188 217.589844 C 25.210938 218.5625 37.476562 220.597656 52.960938 223.066406 C 54.519531 215.332031 61.347656 209.507812 69.535156 209.507812 C 78.871094 209.507812 86.445312 217.085938 86.445312 226.4375 C 86.445312 227.074219 86.398438 227.699219 86.335938 228.316406 C 109.105469 231.859375 132.652344 235.46875 148.34375 237.859375 C 145.664062 232.019531 143.929688 224.914062 143.03125 219.351562 C 143.3125 219.855469 139.871094 208.5625 139.871094 201.769531 " fill-opacity="1" fill-rule="nonzero"/><path fill="#393536" d="M 360.582031 198.890625 L 233.910156 198.890625 C 233.96875 199.84375 234.007812 200.796875 234.007812 201.769531 C 234.007812 207.128906 233.09375 212.269531 231.449219 217.066406 C 230.875 222.878906 230.28125 231.207031 227.941406 237.664062 C 243.535156 235.285156 266.269531 231.804688 288.320312 228.371094 C 288.25 227.734375 288.207031 227.09375 288.207031 226.4375 C 288.207031 216.894531 295.933594 209.15625 305.464844 209.15625 C 313.828125 209.15625 320.796875 215.109375 322.386719 223.011719 C 337.710938 220.558594 349.824219 218.558594 354.632812 217.589844 C 373.222656 213.867188 374.9375 213.867188 374.9375 205.675781 C 374.9375 197.484375 360.582031 198.890625 360.582031 198.890625 " fill-opacity="1" fill-rule="nonzero"/></svg>