<svg xmlns="http://www.w3.org/2000/svg" xmlns:xlink="http://www.w3.org/1999/xlink" width="500" zoomAndPan="magnify" viewBox="0 0 375 374.999991" height="500" preserveAspectRatio="xMidYMid meet" version="1.0"><path fill="#000000" d="M 53.234375 256.628906 C 57.53125 256.726562 78.414062 257.183594 74.191406 249.109375 C 63.6875 235.625 51.617188 217.644531 34.691406 211.828125 C 35.160156 213.21875 35.730469 214.597656 36.644531 215.710938 C 38 216.058594 39.097656 217.304688 38.613281 219.046875 C 34.375 233.800781 24.089844 244.671875 13.539062 255.214844 C 26.757812 255.988281 39.988281 256.386719 53.234375 256.628906 Z M 98.019531 202.128906 C 100.652344 202.445312 103.292969 202.710938 105.890625 202.988281 C 103.425781 197.910156 101.375 192.664062 100.09375 187.113281 C 100.023438 186.738281 100.023438 186.410156 100.058594 186.097656 C 99.164062 186.761719 98.296875 187.5 97.5 188.355469 C 93.804688 192.324219 90.679688 196.773438 87.335938 201.054688 C 90.980469 201.367188 94.542969 201.71875 98.019531 202.128906 Z M 111.839844 291.9375 C 116.886719 284.742188 121.328125 277.1875 125.566406 269.519531 C 109.4375 266.121094 93.480469 262.082031 77.785156 257.039062 C 75.09375 259.472656 70.859375 261.078125 66.8125 261.671875 C 51.578125 263.957031 34.957031 262.601562 19.167969 261.320312 C 19.273438 261.503906 19.347656 261.683594 19.40625 261.914062 C 19.625 262.734375 19.867188 263.304688 20.265625 263.957031 C 21.859375 263.714844 23.441406 263.363281 24.960938 262.746094 C 25.480469 262.542969 26.035156 262.566406 26.542969 262.746094 C 27.449219 262.542969 28.414062 262.84375 29.210938 263.472656 C 30.695312 264.632812 31.707031 266.328125 32.675781 267.921875 C 35.679688 267.898438 38.105469 267.863281 40.785156 267.609375 C 41.257812 267.574219 41.644531 267.621094 41.992188 267.753906 C 42.863281 267.441406 43.851562 267.574219 44.710938 268.417969 C 46.328125 270.101562 47.679688 272.011719 48.742188 274.066406 C 51.507812 273.910156 54.222656 273.21875 56.964844 272.894531 C 57.230469 272.855469 57.445312 272.894531 57.6875 272.941406 C 58.808594 272.722656 59.882812 273.316406 60.621094 274.269531 C 61.984375 276.035156 62.878906 278.152344 63.601562 280.257812 C 65.605469 280.113281 67.574219 279.675781 69.542969 279.179688 C 69.652344 279.15625 69.746094 279.15625 69.84375 279.144531 C 71.195312 278.382812 72.789062 278.902344 73.621094 280.160156 C 74.273438 281.164062 74.816406 282.253906 75.480469 283.257812 C 75.503906 283.292969 75.503906 283.328125 75.542969 283.363281 C 78.199219 283.714844 80.839844 284.257812 83.4375 284.996094 C 83.496094 284.996094 83.546875 284.984375 83.605469 284.984375 C 83.679688 284.984375 83.714844 284.984375 83.75 284.984375 C 83.773438 284.960938 83.773438 284.960938 83.785156 284.960938 C 83.8125 284.949219 83.847656 284.925781 83.980469 284.875 C 84.101562 284.78125 84.160156 284.765625 84.195312 284.742188 C 84.222656 284.71875 84.257812 284.683594 84.292969 284.644531 C 84.4375 284.527344 84.582031 284.390625 84.714844 284.234375 C 85.03125 283.945312 85.402344 283.75 85.789062 283.605469 C 86.78125 282.664062 88.363281 282.335938 89.582031 283.628906 C 91.296875 285.410156 92.40625 287.621094 92.925781 290.027344 C 92.949219 290.039062 92.984375 290.027344 93.007812 290.039062 C 96.183594 290.65625 99.226562 291.769531 102.378906 292.46875 C 103.535156 291.925781 104.683594 291.382812 105.734375 290.621094 C 105.925781 290.476562 106.15625 290.402344 106.398438 290.328125 C 107.253906 289.832031 108.339844 289.726562 109.148438 290.328125 C 109.996094 290.933594 110.910156 291.453125 111.839844 291.9375 Z M 120.640625 204.234375 C 122.972656 201.367188 125.265625 198.550781 127.921875 196.046875 C 120.882812 194.367188 114.0625 191.804688 106.890625 190.738281 C 108.339844 195.214844 110.273438 199.445312 112.503906 203.640625 C 115.160156 203.894531 117.839844 204.171875 120.472656 204.476562 C 120.53125 204.402344 120.570312 204.308594 120.640625 204.234375 Z M 136.902344 158.054688 C 134.535156 156.894531 132.144531 155.878906 129.648438 155.03125 C 125.300781 162.285156 122.222656 170.109375 119.84375 178.199219 C 121.402344 178.441406 122.972656 178.757812 124.527344 179.09375 C 124.527344 179.09375 124.527344 179.070312 124.527344 179.058594 C 128.667969 172.058594 133.367188 165.382812 136.902344 158.054688 Z M 132.847656 191.464844 C 132.628906 189.796875 132.738281 188.152344 133.195312 186.566406 C 125.085938 184.632812 112.300781 180.316406 106.601562 185.128906 C 115.546875 186.386719 123.972656 190.050781 132.847656 191.464844 Z M 142.152344 207.933594 C 139.351562 204.816406 136.503906 201.101562 134.679688 197.292969 C 134.644531 197.292969 134.632812 197.292969 134.597656 197.292969 C 134.355469 197.703125 134.015625 198.066406 133.605469 198.394531 C 131.082031 200.339844 128.972656 202.785156 126.941406 205.25 C 132.011719 205.9375 137.082031 206.761719 142.152344 207.933594 Z M 136.296875 181.621094 C 136.769531 181.269531 137.253906 180.96875 137.773438 180.726562 C 137.132812 177.125 136.84375 173.328125 136.949219 169.542969 C 134.742188 173.195312 132.4375 176.773438 130.226562 180.414062 C 132.363281 180.921875 134.425781 181.367188 136.296875 181.621094 Z M 143.734375 228.480469 C 143.566406 228.480469 143.398438 228.480469 143.226562 228.441406 C 124.671875 225.40625 106.398438 222.515625 88.023438 218.371094 C 73.984375 215.191406 59.898438 212.179688 45.605469 210.898438 C 58.605469 218.925781 68.589844 232.867188 77.605469 244.476562 C 77.847656 244.644531 78.066406 244.851562 78.269531 245.105469 C 80.203125 247.691406 80.839844 250.027344 80.585938 252.046875 C 96.292969 257.039062 112.226562 261.054688 128.355469 264.429688 C 132.953125 255.832031 137.398438 247.113281 142.164062 238.601562 C 142.359375 238.296875 142.539062 238.078125 142.769531 237.875 C 142.914062 234.730469 143.421875 231.597656 143.734375 228.480469 Z M 144.0625 216.046875 C 144.15625 215.394531 144.300781 214.800781 144.496094 214.257812 C 125.746094 209.289062 106.636719 208.890625 87.40625 206.339844 C 71.640625 204.246094 54.511719 204.101562 39.410156 198.574219 C 38.09375 200.679688 36.644531 202.710938 35.234375 204.730469 C 52.449219 205.164062 69.398438 208.429688 86.164062 212.226562 C 105.40625 216.566406 124.527344 219.773438 143.976562 222.929688 C 143.917969 220.644531 143.746094 218.332031 144.0625 216.046875 Z M 149.914062 207.957031 C 151.992188 202.273438 154.453125 196.773438 157.027344 191.320312 C 154.054688 189.699219 147.199219 186.277344 142.636719 185.832031 C 141.804688 186.351562 140.730469 186.457031 139.871094 186.070312 C 138.433594 186.652344 137.808594 188.078125 138.566406 190.847656 C 138.773438 191.660156 139.050781 192.457031 139.363281 193.230469 C 139.535156 193.496094 139.644531 193.773438 139.714844 194.078125 C 141.972656 199.277344 145.921875 204.003906 149.914062 207.957031 Z M 159.453125 186.253906 C 160.417969 184.269531 161.359375 182.273438 162.324219 180.28125 C 155.953125 179.433594 149.566406 178.890625 143.121094 178.925781 C 143.179688 179.265625 143.214844 179.613281 143.265625 179.953125 C 148.816406 180.449219 155.226562 183.871094 159.453125 186.253906 Z M 164.8125 175.019531 C 165.199219 174.183594 165.597656 173.328125 165.984375 172.46875 C 158.59375 171.390625 151.121094 170.847656 143.664062 170.558594 C 143.214844 170.535156 142.839844 170.425781 142.503906 170.269531 C 142.492188 171.285156 142.503906 172.300781 142.539062 173.328125 C 150.023438 173.230469 157.425781 173.957031 164.8125 175.019531 Z M 168.289062 167.207031 C 168.761719 166.121094 169.195312 165.03125 169.640625 163.945312 C 160.804688 164.707031 152.292969 163.074219 143.53125 161.851562 C 143.289062 162.890625 143.082031 163.945312 142.9375 165.03125 C 143.15625 164.996094 143.398438 164.960938 143.664062 164.972656 C 151.90625 165.308594 160.128906 165.960938 168.289062 167.207031 Z M 166.394531 282.167969 C 172.914062 275.273438 175.386719 259.253906 172.695312 250.183594 C 168.640625 236.628906 159.5625 227.546875 151.90625 216.179688 C 150.507812 215.660156 149.503906 215.566406 149.46875 217.703125 C 149.457031 219.410156 149.542969 221.089844 149.566406 222.796875 C 149.601562 228.683594 148.152344 234.429688 148.296875 240.328125 C 148.335938 241.875 147.320312 242.773438 146.148438 242.964844 C 136.878906 259.675781 128.730469 277.003906 117.984375 292.820312 C 133.570312 293.207031 155.527344 293.726562 166.394531 282.167969 Z M 174.3125 144.183594 C 174.941406 144.183594 175.640625 144.183594 176.316406 144.183594 C 176.125 141.078125 175.917969 137.96875 175.628906 134.886719 C 175.21875 134.886719 174.773438 134.886719 174.3125 134.886719 C 174.3125 137.523438 174.3125 141.355469 174.3125 144.183594 Z M 181.953125 167.765625 C 179.707031 165.828125 178.210938 163.207031 176.847656 160.519531 C 170.667969 177.957031 160.769531 193.796875 154.636719 211.285156 C 155.382812 211.585938 155.855469 212.082031 156.15625 212.664062 C 156.300781 212.808594 156.457031 212.976562 156.589844 213.183594 C 157.605469 214.695312 158.691406 216.179688 159.777344 217.667969 C 165.886719 200.449219 175.421875 184.789062 181.953125 167.765625 Z M 190.175781 104.570312 C 189.59375 104.28125 189.089844 103.796875 188.800781 103.070312 C 187.941406 100.945312 184.875 101.003906 183.078125 101.523438 C 180.554688 102.25 179.191406 103.566406 178.355469 106.121094 C 177.632812 108.367188 177.125 111.234375 179.25 112.914062 C 181.277344 114.511719 184.285156 114.125 186.566406 113.582031 C 186.988281 113.484375 187.398438 113.484375 187.773438 113.542969 C 188.535156 110.546875 189.316406 107.546875 190.175781 104.570312 Z M 189.171875 146.191406 C 189.171875 145.601562 189.171875 145.042969 189.171875 144.464844 C 187.53125 143.980469 185.902344 143.628906 184.222656 143.53125 C 184.210938 144.171875 184.261719 144.800781 184.394531 145.417969 C 185.1875 146.699219 187.289062 146.589844 189.171875 146.191406 Z M 191.527344 184.390625 C 191.828125 184.078125 192.144531 183.871094 192.46875 183.75 C 191.105469 178.574219 189.96875 173.304688 190.089844 167.933594 C 189.257812 168.078125 188.425781 168.261719 187.605469 168.488281 C 187.589844 168.574219 187.566406 168.695312 187.519531 168.804688 C 180.554688 187.101562 170.015625 203.785156 163.992188 222.46875 C 163.941406 222.613281 163.871094 222.757812 163.796875 222.890625 C 165.125 224.609375 166.453125 226.339844 167.734375 228.066406 C 170.484375 219.882812 175.554688 212.832031 179.382812 205.054688 C 183.015625 197.644531 185.707031 190.425781 191.527344 184.390625 Z M 203.863281 146.941406 C 200.808594 146.664062 197.78125 146.398438 194.738281 146.363281 C 194.738281 146.871094 194.738281 147.402344 194.738281 147.910156 C 194.738281 149.023438 194.242188 149.785156 193.554688 150.230469 C 193.21875 150.679688 192.734375 151.042969 192.082031 151.222656 C 188.96875 152.09375 184.984375 152.648438 182.050781 150.910156 C 181.675781 150.679688 181.351562 150.425781 181.023438 150.160156 C 180.757812 150.074219 180.46875 149.941406 180.226562 149.734375 C 180.121094 149.746094 180.011719 149.773438 179.878906 149.773438 C 178.355469 149.773438 175.628906 149.773438 173.636719 149.773438 C 172.417969 151.1875 169.808594 150.980469 168.988281 149.15625 C 161.9375 151.257812 155.25 154.304688 148.394531 157.003906 C 155.941406 158.210938 163.484375 159.386719 171.089844 158.234375 C 171.332031 158.199219 171.558594 158.199219 171.777344 158.210938 C 172.054688 157.414062 172.320312 156.617188 172.574219 155.816406 C 172.429688 154.777344 172.804688 153.652344 173.660156 153.046875 C 174.625 151.816406 176.363281 151.777344 177.535156 152.566406 C 181.328125 152.578125 184.984375 152.78125 188.535156 154.292969 C 193.699219 151.960938 198.722656 149.265625 203.863281 146.941406 Z M 203.515625 97.523438 C 201.777344 97.507812 200.050781 97.484375 198.324219 97.460938 C 193.457031 110.75 191.464844 124.898438 186.457031 138.140625 C 187.738281 138.332031 189.003906 138.621094 190.246094 138.972656 C 195.488281 125.417969 199.761719 111.574219 203.515625 97.523438 Z M 210.527344 97.59375 C 210.105469 97.59375 209.695312 97.59375 209.285156 97.59375 C 206.121094 109.445312 202.597656 121.175781 198.480469 132.722656 C 198.566406 132.710938 198.660156 132.710938 198.769531 132.710938 C 201.148438 132.914062 203.515625 133.230469 205.867188 133.582031 C 205.757812 130.945312 207.003906 128.925781 208.984375 127.558594 C 206.796875 125.503906 206.328125 122.359375 209.488281 119.832031 C 209.597656 119.734375 209.742188 119.6875 209.875 119.589844 C 209.863281 119.421875 209.828125 119.25 209.828125 119.070312 C 209.863281 111.898438 210.273438 104.765625 210.527344 97.59375 Z M 213.871094 170.015625 C 213.835938 169.144531 213.835938 168.261719 213.933594 167.390625 C 207.894531 167.246094 201.691406 166.796875 195.632812 167.21875 C 195.644531 167.390625 195.667969 167.570312 195.667969 167.765625 C 195.644531 168.429688 195.644531 169.117188 195.691406 169.796875 C 201.738281 169.277344 207.800781 169.542969 213.871094 170.015625 Z M 198.25 183.785156 C 203.117188 180.472656 208.945312 178.515625 215.707031 178.585938 C 215.515625 177.609375 215.25 176.640625 214.945312 175.671875 C 208.730469 175.1875 202.5 174.839844 196.285156 175.308594 C 196.765625 178.164062 197.464844 180.96875 198.25 183.785156 Z M 218.484375 143.605469 C 218.640625 142.734375 218.882812 141.898438 219.21875 141.066406 C 212.726562 140.375 206.316406 139.058594 199.808594 138.40625 C 199.179688 139.203125 198.625 140.039062 198.117188 140.90625 C 203.394531 141.234375 208.632812 141.9375 213.933594 142.007812 C 214.621094 142.03125 215.175781 142.238281 215.585938 142.566406 C 215.875 142.566406 216.191406 142.601562 216.527344 142.734375 C 217.214844 142.976562 217.84375 143.277344 218.484375 143.605469 Z M 222.175781 155.960938 C 220.703125 152.914062 218.699219 149.820312 215.660156 148.40625 C 215.632812 148.40625 215.621094 148.429688 215.597656 148.429688 C 206.664062 150.992188 198.734375 155.890625 190.257812 159.625 C 189.355469 160.027344 188.484375 159.929688 187.761719 159.554688 C 187.277344 159.613281 186.746094 159.554688 186.214844 159.3125 C 184.839844 158.683594 183.378906 158.382812 181.871094 158.234375 C 182.800781 160.109375 183.835938 161.960938 185.359375 163.316406 C 185.453125 163.277344 185.527344 163.242188 185.636719 163.207031 C 195.355469 160.558594 205.640625 161.71875 215.585938 161.851562 C 215.621094 161.804688 215.632812 161.792969 215.671875 161.753906 C 217.84375 159.820312 219.8125 157.644531 222.175781 155.960938 Z M 221.246094 179.117188 C 224.554688 179.554688 227.949219 180.136719 231.316406 180.921875 C 228.25 177.945312 224.722656 175.683594 220.570312 175.019531 C 220.863281 175.964844 221.101562 176.894531 221.273438 177.863281 C 221.34375 178.296875 221.320312 178.71875 221.246094 179.117188 Z M 225.449219 136.15625 C 225.460938 136.132812 225.460938 136.132812 225.484375 136.132812 C 225.425781 135.890625 225.386719 135.625 225.386719 135.347656 C 225.519531 129.652344 210.914062 129.421875 211.457031 134.171875 C 211.480469 134.269531 211.457031 134.34375 211.457031 134.4375 C 215.355469 135.03125 219.28125 135.585938 223.214844 135.816406 C 223.382812 135.816406 223.53125 135.855469 223.699219 135.890625 C 224.289062 135.78125 224.882812 135.855469 225.449219 136.15625 Z M 229.25 130.097656 C 230.589844 129.652344 231.894531 128.925781 231.074219 127.703125 C 229.769531 125.78125 227.308594 124.742188 225.136719 124.183594 C 222.417969 123.484375 219.558594 123.011719 216.757812 123.179688 C 216.515625 123.179688 216.238281 123.207031 215.972656 123.21875 C 215.949219 123.242188 215.949219 123.253906 215.949219 123.277344 C 215.914062 123.351562 215.875 123.410156 215.863281 123.433594 C 215.839844 123.484375 215.839844 123.53125 215.828125 123.605469 C 215.78125 123.761719 215.765625 123.835938 215.742188 123.847656 C 215.742188 123.90625 215.742188 123.929688 215.742188 123.980469 C 215.730469 124.257812 215.730469 124.523438 215.742188 124.800781 C 215.742188 124.898438 215.742188 124.945312 215.742188 124.984375 C 215.765625 125.019531 215.765625 125.019531 215.765625 125.078125 C 215.78125 125.175781 215.765625 125.25 215.78125 125.34375 C 215.78125 125.359375 215.78125 125.359375 215.78125 125.359375 C 220.835938 124.945312 226.488281 126.542969 229.25 130.097656 Z M 238.898438 266.472656 C 236.179688 266.847656 233.246094 266.605469 230.144531 265.578125 C 227.707031 267.292969 225.136719 268.140625 223.082031 268.382812 C 220.703125 268.710938 218.929688 268.550781 217.625 268.335938 C 215.019531 267.863281 214.101562 267.136719 214.101562 266.375 C 214.078125 265.601562 215.078125 264.925781 217.53125 264.367188 C 218.738281 264.089844 220.28125 263.8125 222.070312 263.339844 C 222.707031 263.160156 223.382812 262.917969 224.074219 262.613281 C 222.382812 261.503906 220.863281 260.257812 219.535156 258.84375 C 216.867188 260.269531 214.304688 260.996094 212.144531 261.234375 C 209.394531 261.574219 207.28125 261.40625 205.710938 261.089844 C 202.597656 260.460938 201.617188 259.496094 201.703125 258.769531 C 201.8125 257.972656 203.042969 257.535156 205.84375 257.125 C 207.257812 256.945312 209.042969 256.691406 211.203125 256.183594 C 212.726562 255.832031 214.414062 255.226562 216.191406 254.296875 C 214.257812 251.03125 212.980469 247.367188 212.289062 243.507812 C 210.238281 244.550781 208.320312 245.480469 206.53125 246.195312 C 203.453125 247.378906 200.871094 248.007812 198.832031 248.105469 C 196.816406 248.285156 195.425781 248.007812 194.558594 247.71875 C 193.6875 247.414062 193.351562 247.0625 193.351562 246.675781 C 193.351562 246.300781 193.710938 245.902344 194.484375 245.539062 C 195.257812 245.164062 196.429688 244.851562 198.070312 244.234375 C 199.699219 243.691406 201.765625 242.808594 204.417969 241.476562 C 206.421875 240.5 208.765625 239.121094 211.640625 237.597656 C 211.492188 233.945312 211.773438 230.21875 212.421875 226.617188 C 210.191406 227.171875 208.1875 227.644531 206.421875 228.007812 C 203.464844 228.71875 201.183594 229.203125 199.386719 229.457031 C 195.777344 230.003906 194.21875 229.722656 193.953125 229 C 193.699219 228.273438 194.796875 227.234375 198.191406 225.6875 C 199.90625 224.921875 202.175781 224.015625 205.121094 223.023438 C 207.558594 222.261719 210.480469 221.417969 213.871094 220.511719 C 214.210938 219.410156 214.570312 218.320312 214.96875 217.269531 C 215.804688 215.019531 216.867188 212.664062 218.085938 210.316406 C 216.625 210.390625 215.273438 210.425781 214.039062 210.449219 C 211.398438 210.59375 209.34375 210.65625 207.703125 210.570312 C 204.480469 210.460938 203.1875 209.929688 203.105469 209.15625 C 203.007812 208.382812 204.140625 207.546875 207.21875 206.652344 C 208.765625 206.21875 210.84375 205.734375 213.535156 205.324219 C 214.910156 205.140625 216.457031 204.972656 218.144531 204.828125 C 219.148438 204.789062 220.222656 204.789062 221.355469 204.789062 C 223.289062 201.863281 225.519531 199.132812 227.996094 196.859375 C 225.136719 196.75 222.453125 196.617188 220.246094 196.578125 C 216.152344 196.507812 213.148438 196.542969 210.746094 196.699219 C 209.527344 196.75 208.5 196.808594 207.65625 196.847656 C 206.796875 196.917969 206.085938 196.941406 205.53125 196.917969 C 204.417969 196.882812 203.839844 196.652344 203.707031 196.289062 C 203.597656 195.914062 203.914062 195.441406 204.914062 194.839844 C 205.421875 194.511719 206.074219 194.1875 206.929688 193.796875 C 207.777344 193.425781 208.800781 193.144531 210.070312 192.78125 C 212.59375 192.105469 215.898438 191.632812 220.210938 191.429688 C 224.519531 191.210938 230.035156 191.453125 235.601562 191.464844 L 235.601562 191.839844 C 237.59375 191.042969 239.65625 190.570312 241.804688 190.535156 C 234.117188 186.820312 225.558594 185.105469 217.035156 184.1875 C 214.96875 184.101562 213.003906 184.234375 211.144531 184.546875 C 211.253906 184.828125 211.347656 185.105469 211.457031 185.359375 C 211.878906 186.53125 212.183594 187.582031 212.277344 188.429688 C 212.460938 190.183594 211.867188 191.019531 211.144531 191.164062 C 210.359375 191.332031 209.636719 191.019531 208.632812 190 C 208.148438 189.492188 207.558594 188.769531 206.847656 187.691406 C 206.570312 187.222656 206.242188 186.6875 205.90625 186.011719 C 201.003906 188.007812 196.972656 191.453125 193.796875 195.769531 C 194.121094 196.011719 194.425781 196.253906 194.726562 196.496094 C 195.765625 197.5 196.488281 198.371094 196.875 199.09375 C 197.671875 200.570312 197.597656 201.476562 197.054688 202.019531 C 196.523438 202.578125 195.59375 202.648438 194.183594 201.996094 C 193.277344 201.648438 192.277344 200.957031 190.910156 200.207031 C 189.425781 202.929688 188.207031 205.832031 187.21875 208.828125 C 187.773438 209.144531 188.292969 209.480469 188.761719 209.808594 C 190.585938 211.078125 191.878906 212.347656 192.675781 213.496094 C 193.074219 214.113281 193.386719 214.597656 193.566406 215.058594 C 193.710938 215.566406 193.808594 215.976562 193.832031 216.300781 C 193.882812 216.980469 193.6875 217.355469 193.351562 217.535156 C 193.011719 217.71875 192.554688 217.703125 192.011719 217.5 C 191.730469 217.390625 191.429688 217.234375 191.117188 217.015625 C 190.765625 216.835938 190.34375 216.605469 189.910156 216.328125 C 189.003906 215.769531 187.796875 215.09375 186.117188 214.246094 C 186.023438 214.1875 185.902344 214.125 185.78125 214.078125 C 185.1875 216.714844 184.777344 219.398438 184.5625 221.996094 C 184.355469 224.65625 184.285156 227.316406 184.355469 229.964844 C 184.707031 230.351562 185.042969 230.726562 185.417969 231.078125 C 186.214844 231.792969 186.914062 232.457031 187.53125 233.074219 C 188.882812 234.246094 189.910156 235.226562 190.671875 236.0625 C 192.214844 237.679688 192.527344 238.746094 192.105469 239.398438 C 191.695312 240.050781 190.597656 240.160156 188.449219 239.324219 C 187.53125 238.976562 186.398438 238.371094 185.058594 237.558594 C 185.625 241.128906 186.515625 244.585938 187.808594 247.8125 L 188.003906 247.609375 C 189.535156 248.902344 191.878906 249.820312 193.640625 250.425781 C 195.488281 251.042969 196.972656 251.515625 198.117188 251.9375 C 200.410156 252.773438 201.292969 253.484375 201.246094 254.285156 C 201.183594 255.019531 200.183594 255.722656 197.550781 255.867188 C 196.222656 255.914062 194.519531 255.832031 192.3125 255.394531 C 192.179688 255.382812 192.023438 255.347656 191.902344 255.3125 C 196.320312 261.527344 202.8125 266.15625 211.964844 267.996094 C 220.742188 269.761719 230.640625 270.414062 238.898438 266.472656 Z M 236.652344 178.382812 C 237.375 177.847656 238.039062 177.257812 238.691406 176.617188 C 233.285156 171.367188 227.34375 167.765625 219.667969 166.6875 C 219.496094 167.535156 219.425781 168.394531 219.425781 169.277344 C 226.171875 169.625 232.0625 173.421875 236.652344 178.382812 Z M 237.980469 134.050781 C 238.304688 125.539062 238.691406 116.90625 239.355469 108.355469 C 234.515625 108.285156 229.902344 106.578125 225.136719 105.984375 C 224.109375 109.964844 223.636719 114.027344 223.769531 118.164062 C 224.21875 118.246094 224.6875 118.34375 225.109375 118.441406 C 229.457031 119.421875 235.289062 121.730469 236.628906 126.542969 C 237.351562 129.117188 236.601562 131.160156 235.167969 132.683594 C 236.144531 132.914062 237.097656 133.363281 237.980469 134.050781 Z M 240.042969 170.328125 C 239.839844 165.5625 239.765625 160.789062 239.453125 156.023438 C 239.246094 153.0625 238.378906 134.125 230.566406 139.023438 C 227.175781 141.148438 225.050781 144.078125 223.480469 147.726562 C 225.253906 149.820312 226.667969 152.300781 227.804688 154.863281 C 228.042969 155.429688 228.105469 155.988281 228.007812 156.484375 C 228.417969 157.605469 228.152344 158.902344 226.800781 159.625 C 225.652344 160.230469 224.664062 161.003906 223.722656 161.851562 C 229.925781 163.316406 235.214844 166.21875 240.042969 170.328125 Z M 239.839844 102.769531 C 240.066406 100.316406 240.34375 97.859375 240.636719 95.417969 C 233.789062 95.757812 227.066406 97.28125 220.171875 97.507812 C 218.808594 97.546875 217.457031 97.558594 216.105469 97.582031 C 215.863281 104.257812 215.515625 110.917969 215.429688 117.617188 C 216.347656 117.511719 217.277344 117.484375 218.207031 117.511719 C 218.109375 112.613281 218.738281 107.679688 220.148438 102.976562 C 220.136719 101.574219 221.019531 100.171875 222.828125 100.242188 C 228.625 100.410156 234.066406 102.832031 239.839844 102.769531 Z M 247.007812 88.390625 C 247.070312 86.976562 246.960938 85.5625 246.863281 84.148438 C 238.859375 82.988281 230.457031 83.808594 222.429688 84.085938 C 214.054688 84.390625 205.808594 84.957031 197.585938 86.46875 C 197.636719 88.269531 197.625 90.097656 197.769531 91.886719 C 205.242188 91.972656 212.738281 92.371094 220.171875 91.921875 C 227.839844 91.453125 235.347656 89.796875 243.039062 89.757812 C 243.484375 89.757812 243.894531 89.855469 244.21875 90 C 245.078125 89.914062 246.152344 89.757812 246.597656 89.324219 C 246.960938 88.984375 246.972656 88.925781 247.007812 88.390625 Z M 248.601562 147.460938 C 248.601562 138.453125 248.601562 123.882812 248.601562 118.441406 C 247.117188 118.308594 245.667969 118.03125 244.269531 117.617188 C 243.808594 125.769531 243.554688 133.929688 243.253906 141.863281 C 243.253906 142.042969 243.242188 142.214844 243.207031 142.382812 C 243.796875 144.015625 244.28125 145.707031 244.65625 147.460938 C 245.972656 147.484375 247.285156 147.484375 248.601562 147.460938 Z M 255.617188 110.363281 C 256.738281 105.9375 255.6875 101.257812 255.773438 96.734375 C 252.585938 96.277344 249.386719 95.890625 246.152344 95.695312 C 245.488281 101.015625 244.992188 106.457031 244.617188 111.949219 C 247.589844 113.058594 254.601562 114.207031 255.617188 110.363281 Z M 256.136719 239.578125 C 258.925781 228.480469 260.964844 212.902344 253.625 202.988281 C 239.910156 184.476562 223.25 207.65625 219.523438 221.296875 C 216.308594 232.976562 214.621094 252.722656 228.347656 258.867188 C 243.421875 265.601562 252.273438 252.492188 256.136719 239.578125 Z M 257.582031 181.886719 C 257.523438 177.257812 258.972656 171.5625 261.53125 166.386719 C 256.351562 166.964844 251.148438 167.523438 245.933594 167.632812 C 245.933594 173.023438 246.007812 178.308594 246.765625 183.109375 C 250.378906 182.796875 254.011719 182.492188 257.582031 181.886719 Z M 259.453125 197.644531 C 259.601562 194.160156 259.625 190.667969 259.601562 187.183594 C 256.414062 187.765625 253.164062 188.117188 249.929688 188.394531 C 252.101562 189.84375 254.105469 191.488281 255.929688 193.386719 C 257.234375 194.742188 258.394531 196.15625 259.453125 197.644531 Z M 262.484375 146.808594 C 262.183594 140.957031 263.558594 134.101562 261.628906 128.597656 C 260.457031 125.285156 257.246094 125.210938 254.179688 125.296875 C 254.179688 132.226562 254.179688 139.734375 254.179688 147.28125 C 256.945312 147.148438 259.71875 146.976562 262.484375 146.808594 Z M 268.027344 146.507812 C 269.582031 146.433594 271.140625 146.386719 272.722656 146.324219 C 272.445312 130.652344 271.082031 115.03125 270.71875 99.347656 C 267.589844 98.792969 264.488281 98.199219 261.375 97.65625 C 261.554688 103.433594 263.355469 111.679688 258.875 115.585938 C 257.511719 116.796875 255.90625 117.558594 254.179688 118.03125 C 254.179688 118.597656 254.179688 119.167969 254.179688 119.757812 C 258.585938 119.757812 263.800781 120.109375 265.925781 124.5 C 269.171875 131.234375 267.617188 139.203125 268.027344 146.507812 Z M 272.902344 153.714844 C 272.820312 153.433594 272.757812 153.132812 272.757812 152.78125 C 272.757812 152.503906 272.757812 152.203125 272.757812 151.910156 C 263.65625 152.152344 254.589844 153.132812 245.464844 153.046875 C 245.765625 156 245.875 159.023438 245.910156 162.046875 C 252.382812 161.898438 258.792969 161.078125 265.214844 160.386719 C 267.421875 157.523438 270.03125 155.152344 272.902344 153.714844 Z M 278.324219 152.007812 C 281.726562 151.308594 285.214844 151.164062 288.679688 151.511719 C 284.976562 134.691406 283.03125 117.96875 280.628906 100.90625 C 279.179688 100.726562 277.753906 100.519531 276.308594 100.289062 C 276.765625 117.546875 278.371094 134.730469 278.324219 152.007812 Z M 287.546875 95.9375 C 287.511719 94.558594 287.472656 93.191406 287.449219 91.8125 C 275.789062 89.445312 264.101562 87.160156 252.488281 84.546875 C 252.660156 86.613281 252.828125 88.742188 252.175781 90.675781 C 262.074219 91.863281 271.769531 94.304688 281.667969 95.441406 C 282.839844 94.679688 284.445312 94.679688 285.214844 95.792969 C 286 95.839844 286.761719 95.902344 287.546875 95.9375 Z M 289.089844 169.710938 C 292.484375 166.484375 296.082031 163.109375 300.4375 161.417969 C 294.316406 157.402344 285.902344 155.371094 279.144531 157.414062 C 270.113281 160.109375 263.316406 171.875 263.171875 181.308594 C 268.449219 180.96875 273.722656 181.609375 279 181.285156 C 280.375 176.230469 285.3125 173.304688 289.089844 169.710938 Z M 311.386719 120.21875 C 310.820312 119.046875 310.21875 117.898438 309.589844 116.75 C 305.414062 120.8125 302.902344 125.261719 300.644531 131.015625 C 298.710938 135.902344 296.625 140.449219 292.820312 144.148438 C 293.003906 145.105469 293.183594 146.046875 293.390625 147.003906 C 295.753906 142.964844 298.589844 139.238281 301.488281 135.515625 C 303.792969 132.578125 306.65625 129.46875 308.175781 126.011719 C 309.128906 123.882812 310.058594 122.03125 311.386719 120.21875 Z M 314.199219 176.410156 C 313.523438 175.84375 312.824219 175.296875 312.027344 174.789062 C 307.511719 171.949219 302.40625 170.292969 297.058594 169.917969 C 297.058594 169.917969 297.035156 169.917969 297.023438 169.917969 C 295.585938 171.125 294.269531 172.46875 293.027344 173.664062 C 290.417969 176.15625 284.457031 179.589844 284.214844 183.410156 C 284.164062 184.113281 283.925781 184.679688 283.550781 185.105469 C 283.140625 185.902344 282.378906 186.53125 281.269531 186.664062 C 277.515625 187.136719 273.761719 186.941406 269.992188 186.832031 C 269.96875 186.894531 269.96875 186.929688 269.957031 186.980469 C 270.175781 187.183594 270.417969 187.390625 270.632812 187.582031 C 271.34375 188.117188 271.972656 188.597656 272.515625 189.070312 C 273.664062 190.085938 274.582031 190.910156 275.136719 191.742188 C 276.269531 193.425781 276.246094 194.367188 275.691406 194.886719 C 275.136719 195.40625 274.132812 195.46875 272.648438 194.816406 C 271.902344 194.476562 270.839844 194.054688 269.621094 193.328125 C 269.222656 193.109375 268.761719 192.832031 268.316406 192.566406 C 267.289062 196.324219 266.359375 200.363281 265.804688 204.441406 C 266.867188 204.828125 267.785156 205.273438 268.519531 205.722656 C 269.957031 206.59375 270.921875 207.425781 271.5625 208.140625 C 272.867188 209.566406 273.011719 210.535156 272.613281 211.175781 C 272.179688 211.828125 271.214844 211.984375 269.460938 211.488281 C 268.414062 211.222656 267.179688 210.617188 265.320312 210.039062 C 265.320312 210.050781 265.320312 210.074219 265.320312 210.097656 C 265.320312 213.195312 266.6875 216.421875 266.832031 219.675781 C 266.941406 219.734375 267.058594 219.808594 267.167969 219.855469 C 268.253906 220.402344 269.222656 220.921875 270.101562 221.40625 C 270.960938 221.828125 271.730469 222.226562 272.421875 222.578125 C 273.097656 222.929688 273.664062 223.304688 274.207031 223.519531 C 276.28125 224.535156 277.066406 225.445312 276.933594 226.207031 C 276.800781 226.96875 275.789062 227.449219 273.109375 227.316406 C 271.972656 227.28125 270.5625 226.917969 268.894531 226.386719 C 269.898438 228.066406 271.152344 229.628906 272.699219 231.042969 C 278.699219 236.605469 288.066406 239.640625 296.925781 239.335938 C 294.523438 238.019531 292.421875 235.804688 290.925781 232.519531 C 290.816406 232.3125 290.734375 232.070312 290.648438 231.839844 C 290.417969 231.914062 290.203125 232.007812 289.996094 232.070312 C 289.007812 232.382812 288.113281 232.625 287.304688 232.84375 C 285.589844 233.160156 284.238281 233.386719 283.164062 233.28125 C 280.96875 233.039062 280.207031 232.398438 280.183594 231.636719 C 280.171875 230.875 280.859375 230.074219 282.476562 229.375 C 283.285156 229.011719 284.324219 228.453125 285.722656 227.933594 C 286.421875 227.621094 287.207031 227.269531 288.101562 226.929688 C 288.320312 226.835938 288.597656 226.726562 288.851562 226.628906 C 288.234375 224.28125 287.824219 221.828125 287.582031 219.324219 C 286.386719 219.652344 285.277344 219.976562 284.238281 220.207031 C 282.042969 220.738281 280.230469 220.980469 278.816406 220.945312 C 277.417969 220.957031 276.414062 220.714844 275.800781 220.414062 C 275.195312 220.125 274.929688 219.773438 274.929688 219.398438 C 274.90625 219.011719 275.148438 218.613281 275.667969 218.238281 C 276.1875 217.875 276.996094 217.511719 278.140625 217.050781 C 279.289062 216.605469 280.796875 216.023438 282.753906 215.285156 C 284.03125 214.816406 285.53125 214.222656 287.316406 213.628906 C 287.339844 210.183594 287.679688 206.699219 288.269531 203.277344 C 288.027344 203.339844 287.761719 203.386719 287.523438 203.449219 C 285.902344 203.714844 284.445312 203.933594 283.105469 204.113281 C 280.542969 204.546875 278.492188 204.683594 276.996094 204.898438 C 273.988281 205.347656 272.589844 205.070312 272.289062 204.34375 C 271.996094 203.640625 272.890625 202.613281 275.933594 201.089844 C 277.441406 200.339844 279.492188 199.785156 282.136719 199.046875 C 283.441406 198.71875 284.867188 198.40625 286.460938 198.066406 C 287.449219 197.824219 288.511719 197.570312 289.621094 197.304688 C 290.082031 195.613281 290.625 193.957031 291.238281 192.382812 C 287.800781 192.25 285.386719 192.382812 283.648438 192.492188 C 282.355469 192.542969 281.425781 192.578125 280.785156 192.492188 C 280.109375 192.382812 279.722656 192.140625 279.578125 191.78125 C 279.410156 191.429688 279.492188 191.003906 279.964844 190.460938 C 280.421875 189.929688 281.28125 189.253906 282.65625 188.660156 C 284.867188 187.59375 288.644531 186.859375 293.691406 186.941406 C 294.304688 185.804688 294.933594 184.71875 295.609375 183.691406 C 296.105469 182.929688 296.695312 182.238281 297.335938 181.5625 C 295.898438 181.285156 294.753906 181.089844 293.882812 180.847656 C 292 180.484375 291.132812 179.84375 291.023438 179.070312 C 290.902344 178.308594 291.578125 177.546875 293.761719 176.882812 C 295.71875 176.433594 298.988281 176.132812 303.515625 177.292969 C 306.957031 175.84375 310.761719 175.46875 314.199219 176.410156 Z M 318.472656 135.453125 C 316.832031 132.480469 315.46875 129.371094 314.105469 126.253906 C 313.101562 128.222656 312.304688 130.304688 311 132.117188 C 309.625 134.027344 308.210938 135.925781 306.765625 137.765625 C 303.625 141.789062 300.546875 145.734375 298.035156 150.085938 C 298.109375 150.160156 298.179688 150.230469 298.277344 150.316406 C 298.710938 149.699219 299.386719 149.25 300.304688 149.15625 C 304.421875 148.707031 308.441406 149.421875 312.484375 149.976562 C 313.789062 144.972656 315.25 139.578125 318.472656 135.453125 Z M 316.144531 171.285156 C 316.230469 165.9375 316.445312 161.078125 317.023438 156.058594 C 312.511719 155.757812 308.042969 154.71875 303.542969 154.621094 C 303.554688 155.332031 303.554688 156.035156 303.457031 156.75 C 305.074219 157.789062 306.59375 158.996094 308.007812 160.351562 C 309.382812 161.695312 308.902344 163.410156 307.765625 164.378906 C 307.402344 165.152344 306.679688 165.757812 305.617188 165.867188 C 309.648438 167.050781 313.175781 168.878906 316.144531 171.285156 Z M 318.59375 219.410156 C 323.167969 208.636719 322.242188 196.097656 317.375 185.457031 C 313.851562 179.3125 303.480469 180.484375 300.414062 186.519531 C 297.757812 191.742188 295.378906 197.257812 294.355469 203.074219 C 292.90625 211.417969 291.890625 223.582031 296.492188 231.382812 C 303.925781 243.96875 315.550781 226.617188 318.59375 219.410156 Z M 329.859375 113.207031 C 328.3125 110.640625 327.457031 107.789062 326.683594 104.800781 C 325.851562 101.621094 324.546875 98.660156 323.410156 95.625 C 321.578125 102.914062 320.960938 111.234375 316.097656 117.171875 C 316.507812 118.03125 316.90625 118.875 317.304688 119.757812 C 321.480469 117.558594 325.679688 115.40625 329.859375 113.207031 Z M 339.960938 113.472656 C 341.035156 110.339844 342.195312 107.257812 343.472656 104.222656 C 340.035156 99.515625 335.277344 95.695312 330.195312 92.867188 C 329.652344 93.097656 329.132812 93.3125 328.578125 93.507812 C 329.675781 96.375 330.96875 99.140625 331.753906 102.152344 C 332.585938 105.359375 333.226562 108.925781 335.410156 111.511719 C 336.28125 112.550781 336.242188 113.785156 335.75 114.730469 C 335.820312 115.648438 335.445312 116.578125 334.371094 117.136719 C 329.445312 119.757812 324.472656 122.273438 319.546875 124.875 C 320.371094 126.734375 321.203125 128.597656 322.109375 130.414062 C 326.925781 128.5 331.714844 126.589844 336.375 124.292969 C 336.929688 120.53125 338.753906 117.074219 339.960938 113.472656 Z M 346.203125 175.550781 C 348.316406 174.402344 350.378906 173.15625 352.480469 172.007812 C 349.125 165.082031 346.988281 157.621094 343.582031 150.703125 C 340.445312 144.304688 337.28125 137.859375 334.554688 131.269531 C 332.164062 132.335938 329.75 133.339844 327.308594 134.328125 C 330.835938 148.9375 339.746094 162.105469 346.203125 175.550781 Z M 350.5 152.324219 C 353.191406 151.28125 355.75 150.386719 354.570312 147.605469 C 353.300781 144.691406 352.058594 141.753906 350.960938 138.753906 C 348.582031 132.394531 346.3125 126.023438 343.449219 119.902344 C 342.652344 121.800781 341.894531 123.726562 341.796875 125.734375 C 341.785156 125.988281 341.722656 126.214844 341.675781 126.433594 C 341.675781 127.28125 341.265625 128.089844 340.261719 128.609375 C 340.035156 128.71875 339.792969 128.839844 339.550781 128.949219 C 342.824219 136.917969 346.988281 144.464844 350.5 152.324219 Z M 362.921875 213.90625 C 371.433594 204.828125 364.855469 192.105469 354.0625 190.4375 C 353.507812 196.410156 350.609375 201.863281 348.230469 207.355469 C 346.46875 211.417969 344.585938 215.457031 342.039062 219.046875 C 349.414062 219.335938 358.105469 219.023438 362.921875 213.90625 Z M 364.925781 189.226562 C 365.191406 186.011719 365.566406 182.796875 365.445312 179.578125 C 365.410156 178.550781 365.613281 174.5 364.070312 174.679688 C 362.921875 174.839844 361.789062 175.261719 360.675781 175.671875 C 360.316406 176.121094 359.832031 176.472656 359.265625 176.652344 C 358.46875 176.894531 357.648438 177.027344 356.8125 177.0625 C 356.332031 177.085938 355.882812 176.929688 355.472656 176.710938 C 354.0625 177.5 352.648438 178.308594 351.238281 179.132812 C 352.238281 180.992188 353.203125 182.832031 354 184.765625 C 358.105469 185.203125 361.882812 186.820312 364.925781 189.226562 Z M 369.550781 194.355469 C 372.785156 199.46875 373.617188 206.035156 370.515625 212.554688 C 364.515625 225.105469 348.617188 224.960938 336.691406 224.34375 C 336.570312 224.34375 336.449219 224.332031 336.339844 224.308594 C 334.15625 224.308594 332.210938 221.5 334.265625 219.578125 C 338.140625 215.9375 340.554688 211.152344 342.652344 206.3125 C 344.996094 200.921875 348.410156 195.09375 348.605469 189.15625 C 348.617188 188.804688 348.691406 188.503906 348.785156 188.222656 C 348.675781 187.730469 348.675781 187.207031 348.808594 186.699219 C 348.074219 184.960938 347.15625 183.277344 346.261719 181.609375 C 345.742188 181.683594 345.261719 181.585938 344.828125 181.40625 C 343.824219 181.621094 342.75 181.269531 342.171875 180.027344 C 335.929688 166.554688 327.019531 153.398438 322.785156 138.972656 C 320.273438 142.179688 319.101562 146.507812 318.101562 150.507812 C 318.617188 150.535156 319.136719 150.546875 319.65625 150.546875 C 320.851562 150.535156 321.648438 151.125 322.035156 151.949219 C 322.613281 152.578125 322.964844 153.410156 322.820312 154.414062 C 321.722656 161.972656 321.683594 169.976562 321.660156 177.328125 C 324.800781 181.972656 326.730469 187.730469 327.308594 194.425781 C 328.664062 209.699219 326.03125 231.960938 311.929688 241.296875 C 301.164062 248.417969 279.664062 245.09375 270.550781 236.664062 C 268.785156 235.019531 267.289062 233.292969 266.035156 231.488281 C 265.960938 231.914062 265.902344 232.347656 265.804688 232.757812 C 260.347656 260.125 242.375 279.796875 212.980469 273.871094 C 199.386719 271.140625 189.691406 265.675781 183.730469 252.808594 C 180.675781 246.242188 179.191406 239.265625 178.828125 232.179688 C 178.804688 232.15625 178.765625 232.117188 178.742188 232.082031 L 178.828125 232.035156 C 178.621094 228.03125 178.765625 223.992188 179.226562 219.976562 C 179.394531 218.503906 179.625 217.027344 179.878906 215.566406 C 176.628906 221.199219 173.503906 226.929688 172.042969 233.316406 C 171.984375 233.558594 171.910156 233.761719 171.8125 233.945312 C 175.386719 239.578125 178.128906 245.613281 178.765625 252.480469 C 179.601562 261.597656 178.671875 275.734375 172.804688 283.269531 C 160.007812 299.652344 132.941406 298.671875 114.304688 298.308594 C 113.941406 298.515625 113.507812 298.625 113.011719 298.625 C 111.949219 298.625 111.203125 298.175781 110.765625 297.523438 C 110.511719 297.464844 110.273438 297.429688 110.054688 297.320312 C 109.234375 296.90625 108.460938 296.460938 107.675781 296 C 106.652344 296.617188 105.574219 297.101562 104.5 297.621094 C 103.835938 297.949219 103.089844 298.042969 102.425781 297.898438 C 102.027344 297.984375 101.582031 298.007812 101.121094 297.898438 C 97.886719 297.210938 94.773438 296.050781 91.511719 295.421875 C 90.621094 295.25 90.0625 294.765625 89.773438 294.175781 C 88.785156 293.933594 87.878906 293.242188 87.722656 292.242188 C 87.566406 291.273438 87.324219 290.367188 86.925781 289.519531 C 85.949219 290.125 84.871094 290.511719 83.605469 290.570312 C 83.546875 290.570312 83.507812 290.546875 83.472656 290.546875 C 83.097656 290.609375 82.6875 290.582031 82.230469 290.449219 C 79.332031 289.617188 76.398438 289 73.378906 288.710938 C 71.847656 288.550781 70.976562 287.402344 70.773438 286.195312 C 70.726562 286.15625 70.6875 286.121094 70.652344 286.085938 C 70.398438 285.675781 70.15625 285.238281 69.917969 284.839844 C 67.5 285.410156 65.050781 285.878906 62.539062 285.917969 C 61.03125 285.929688 60.160156 284.949219 59.921875 283.8125 C 59.171875 283.472656 58.605469 282.820312 58.304688 282.011719 C 57.894531 280.777344 57.398438 279.605469 56.746094 278.503906 C 53.8125 278.878906 50.964844 279.640625 47.992188 279.699219 C 46.8125 279.738281 46.027344 279.144531 45.617188 278.324219 C 44.953125 278.140625 44.371094 277.730469 44.035156 277.078125 C 43.308594 275.648438 42.464844 274.320312 41.414062 273.109375 C 41.292969 273.148438 41.171875 273.183594 41.027344 273.183594 C 37.949219 273.484375 31.273438 273.507812 31.273438 273.507812 C 30.695312 273.507812 30.308594 272.964844 30.089844 272.238281 C 29.234375 272.144531 28.414062 271.660156 27.929688 270.875 C 27.304688 269.796875 26.832031 268.988281 26.15625 268.238281 C 23.730469 269.144531 21.15625 269.472656 18.585938 269.785156 C 17.234375 269.953125 16.074219 268.683594 15.847656 267.414062 C 15.410156 266.773438 15.039062 266.0625 14.722656 265.335938 C 10.992188 264.960938 7.261719 264.367188 3.605469 263.472656 C 1.335938 262.929688 1.167969 260.460938 2.300781 259.023438 C 2.421875 258.636719 2.640625 258.25 2.988281 257.898438 C 14.351562 246.316406 27.316406 235.285156 32.601562 219.507812 C 30.164062 216.433594 29.367188 212.734375 27.964844 209.132812 C 27.832031 208.792969 27.796875 208.492188 27.785156 208.210938 C 27.449219 207.488281 27.410156 206.628906 27.929688 205.734375 C 30.234375 201.886719 33.074219 198.40625 35.367188 194.574219 C 35.714844 193.980469 36.164062 193.605469 36.660156 193.425781 C 37.238281 192.625 38.203125 192.179688 39.445312 192.664062 C 52.171875 197.667969 66.984375 199.203125 81.289062 200.484375 C 81.335938 199.964844 81.542969 199.445312 81.925781 198.960938 C 86.648438 193.183594 90.679688 186.554688 96.472656 181.753906 C 101.675781 177.449219 108.160156 176.121094 114.714844 175.855469 C 117.320312 167.21875 120.703125 158.828125 125.457031 151.148438 C 125.496094 151.113281 125.53125 151.078125 125.542969 151.042969 C 125.90625 149.636719 127.148438 148.464844 128.921875 148.9375 C 133.183594 150.085938 137.132812 151.925781 141.054688 153.882812 C 141.25 153.773438 141.441406 153.675781 141.671875 153.582031 C 150.796875 150.425781 159.402344 146.011719 168.734375 143.410156 C 168.734375 140 168.734375 136.785156 168.734375 134.222656 C 167.058594 132.746094 167.671875 129.300781 170.59375 129.300781 C 172.320312 129.300781 174.023438 129.300781 175.75 129.300781 C 177.078125 127.800781 180.46875 128.429688 180.808594 131.160156 C 180.988281 132.78125 181.15625 134.414062 181.3125 136.058594 C 183.332031 130.570312 184.875 124.945312 186.3125 119.3125 C 182.183594 119.941406 177.257812 119.566406 174.566406 116.105469 C 171.574219 112.238281 171.65625 107.605469 173.550781 103.242188 C 175.496094 98.765625 179.152344 96.09375 184.078125 95.71875 C 187.277344 95.476562 190.089844 96.386719 192.105469 98.417969 C 192.394531 97.523438 192.710938 96.652344 193.035156 95.769531 C 192.769531 95.453125 192.566406 95.101562 192.515625 94.691406 C 192.070312 91.414062 192.179688 88.164062 191.949219 84.875 C 191.9375 84.609375 191.949219 84.367188 192.011719 84.125 C 191.914062 82.949219 192.492188 81.800781 194 81.488281 C 210.660156 78.101562 230.554688 76.082031 247.601562 78.632812 C 248.179688 78.222656 248.929688 78.015625 249.820312 78.222656 C 263.449219 81.425781 277.199219 84.015625 290.902344 86.84375 C 292.132812 87.085938 292.929688 88.355469 292.964844 89.515625 C 293.027344 92.625 293.136719 95.730469 293.183594 98.828125 C 293.230469 100.605469 291.890625 101.5 290.515625 101.523438 C 290.25 101.597656 289.996094 101.632812 289.695312 101.621094 C 288.558594 101.597656 287.425781 101.535156 286.300781 101.453125 C 287.933594 113.398438 289.441406 125.226562 291.492188 137.027344 C 294.171875 133.046875 295.488281 128.367188 297.492188 123.882812 C 299.933594 118.488281 303.410156 114.476562 307.933594 110.726562 C 308.007812 110.679688 308.09375 110.640625 308.164062 110.582031 C 309.335938 109.492188 311.472656 109.25 312.617188 110.992188 C 312.789062 111.257812 312.933594 111.511719 313.101562 111.777344 C 314.753906 109.058594 315.660156 105.816406 316.347656 102.503906 C 317.0625 99.203125 317.542969 95.839844 318.351562 92.890625 C 318.351562 92.066406 318.761719 91.257812 319.8125 90.761719 C 322.652344 89.40625 325.851562 88.960938 328.625 87.507812 C 328.867188 87.375 329.132812 87.292969 329.386719 87.230469 C 330.074219 86.929688 330.894531 86.917969 331.753906 87.339844 C 338.441406 90.824219 344.574219 95.925781 348.847656 102.152344 C 349.304688 102.832031 349.402344 103.496094 349.269531 104.085938 C 349.269531 104.476562 349.171875 104.875 349.003906 105.285156 C 347.917969 107.738281 346.988281 110.253906 346.105469 112.757812 C 351.886719 123.59375 355.496094 135.441406 360.375 146.664062 C 362.8125 152.261719 357.140625 155.199219 352.613281 157.339844 C 354.339844 161.851562 355.859375 166.433594 358.070312 170.714844 C 358.128906 170.703125 358.164062 170.667969 358.238281 170.640625 C 362.511719 169.144531 368.34375 167.667969 370.164062 173.421875 C 372.097656 179.519531 370.539062 186.324219 370.273438 192.566406 C 370.238281 193.328125 369.960938 193.90625 369.550781 194.355469 " fill-opacity="1" fill-rule="nonzero"/><path fill="#000000" d="M 311.449219 213.15625 C 312.378906 209.132812 314.273438 192.636719 307.308594 194.390625 C 302.453125 197.304688 300.027344 205.648438 300.449219 211.003906 C 300.714844 214.015625 301.597656 219.820312 305.484375 220.414062 C 309.035156 220.957031 310.867188 215.671875 311.449219 213.15625 Z M 305.449219 189.105469 C 321.867188 183.652344 319.453125 214.742188 313.269531 222.226562 C 306.582031 230.28125 296.695312 223.714844 295.34375 214.839844 C 294.039062 206.242188 296.453125 193.945312 304.785156 189.386719 C 304.988281 189.277344 305.183594 189.179688 305.398438 189.121094 C 305.414062 189.121094 305.4375 189.105469 305.449219 189.105469 " fill-opacity="1" fill-rule="nonzero"/><path fill="#000000" d="M 226.003906 240.015625 C 238.425781 240.667969 236.386719 223.039062 233.875 214.015625 C 231.871094 215.769531 230.144531 218.078125 228.996094 220.292969 C 226.535156 224.984375 224.253906 233.242188 225.21875 240.085938 C 225.460938 240.027344 225.726562 239.992188 226.003906 240.015625 Z M 248.699219 236.796875 C 250.378906 229.929688 250.097656 220.957031 246.25 214.777344 C 244.113281 211.378906 241.480469 210.558594 238.835938 211.1875 C 242.566406 222.953125 243.773438 245.648438 226.96875 245.613281 C 228.03125 247.476562 229.492188 249.058594 231.59375 250.097656 C 239.65625 254.136719 246.695312 243.121094 248.699219 236.796875 Z M 247.960938 208.03125 C 255.445312 215.46875 256.460938 228.515625 254.09375 238.285156 C 251.234375 247.210938 240.996094 261.054688 229.878906 255.46875 C 217.589844 249.300781 217.734375 231.417969 222.671875 220.535156 C 226.414062 212.324219 238.484375 198.613281 247.960938 208.03125 " fill-opacity="1" fill-rule="nonzero"/><path fill="#000000" d="M 168.761719 254.054688 C 169.398438 258.988281 168.941406 264.632812 166.804688 270.027344 C 164.703125 275.421875 161.09375 279.882812 157.074219 282.84375 C 156.566406 283.195312 156.097656 283.628906 155.589844 283.921875 C 155.058594 284.222656 154.527344 284.527344 154.019531 284.816406 C 153.5 285.09375 153.007812 285.394531 152.5 285.675781 C 152.332031 285.746094 152.355469 285.757812 152.039062 285.917969 L 151.640625 286.0625 L 150.90625 286.339844 C 149.902344 286.703125 148.949219 287.054688 148.019531 287.402344 C 147.089844 287.71875 146.089844 287.898438 145.195312 288.140625 C 144.289062 288.347656 143.421875 288.578125 142.601562 288.722656 C 141.804688 288.832031 141.019531 288.953125 140.320312 289.058594 C 138.871094 289.265625 137.640625 289.398438 136.636719 289.445312 C 134.609375 289.566406 133.472656 289.542969 133.4375 289.3125 C 133.402344 289.097656 134.476562 288.722656 136.429688 288.238281 C 137.421875 287.996094 138.605469 287.707031 139.957031 287.332031 C 140.644531 287.160156 141.394531 286.96875 142.164062 286.773438 C 142.9375 286.570312 143.699219 286.265625 144.53125 286.023438 C 145.351562 285.734375 146.222656 285.542969 147.113281 285.15625 C 148.019531 284.765625 148.949219 284.355469 149.914062 283.921875 L 150.664062 283.605469 L 151.027344 283.4375 C 151.085938 283.390625 151.230469 283.304688 151.269531 283.269531 C 151.703125 283.015625 152.160156 282.734375 152.609375 282.433594 C 153.078125 282.15625 153.539062 281.878906 154.007812 281.574219 C 154.464844 281.285156 154.878906 280.886719 155.324219 280.535156 C 158.847656 277.765625 161.988281 273.726562 163.882812 268.867188 C 165.800781 264.015625 166.320312 258.914062 165.886719 254.390625 C 165.464844 249.832031 164.074219 245.902344 162.589844 242.773438 C 159.402344 236.605469 155.769531 233.667969 156.191406 233.28125 C 156.351562 233.109375 157.292969 233.726562 158.886719 234.972656 C 160.429688 236.253906 162.554688 238.5625 164.535156 241.683594 C 166.394531 244.910156 168.121094 249.109375 168.761719 254.054688 " fill-opacity="1" fill-rule="nonzero"/><path fill="#000000" d="M 113.871094 231.34375 C 121.4375 233 126.085938 234.246094 126.011719 234.671875 C 125.941406 235.082031 121.148438 234.621094 113.472656 233.535156 C 109.632812 232.976562 105.058594 232.277344 100.011719 231.453125 C 98.742188 231.222656 97.441406 231.019531 96.125 230.800781 C 95.449219 230.691406 94.785156 230.582031 94.121094 230.460938 L 93.613281 230.378906 L 93.480469 230.351562 L 93.300781 230.316406 L 93.058594 230.246094 L 92.019531 229.964844 C 90.644531 229.589844 89.230469 229.214844 87.820312 228.828125 C 86.441406 228.359375 85.054688 227.898438 83.640625 227.4375 C 81.46875 226.714844 79.332031 226 77.253906 225.3125 C 76.253906 225.007812 75.226562 224.777344 74.238281 224.535156 C 74.683594 225.417969 75.132812 226.300781 75.554688 227.148438 C 76.433594 228.902344 77.4375 230.546875 78.269531 232.105469 C 80.019531 235.214844 81.515625 238.128906 82.722656 240.472656 C 84.910156 245.273438 85.910156 248.238281 85.609375 248.382812 C 85.269531 248.550781 83.691406 245.832031 81.058594 241.296875 C 79.671875 239.082031 77.992188 236.421875 76.085938 233.398438 C 75.15625 231.863281 74.09375 230.292969 73.128906 228.515625 C 72.160156 226.75 71.136719 224.886719 70.097656 222.964844 L 68.550781 220.136719 L 71.679688 220.859375 C 73.753906 221.332031 75.964844 221.742188 78.148438 222.347656 C 80.238281 223.023438 82.484375 223.714844 84.644531 224.453125 C 86.019531 224.921875 87.394531 225.382812 88.75 225.855469 C 90.101562 226.21875 91.441406 226.617188 92.742188 226.992188 L 93.722656 227.269531 L 93.976562 227.316406 C 93.988281 227.34375 94.023438 227.355469 94.046875 227.355469 L 94.167969 227.378906 L 94.675781 227.476562 C 95.339844 227.597656 96.015625 227.730469 96.667969 227.839844 C 97.984375 228.105469 99.261719 228.359375 100.53125 228.613281 C 105.5625 229.589844 110.066406 230.523438 113.871094 231.34375 " fill-opacity="1" fill-rule="nonzero"/><path fill="#000000" d="M 78.703125 274.511719 C 94.652344 280.5 108.535156 282.820312 108.363281 283.738281 C 108.304688 284.152344 104.765625 284.113281 99.128906 283.195312 C 93.503906 282.265625 85.777344 280.570312 77.570312 277.453125 C 74.539062 276.277344 71.691406 274.949219 69.082031 273.523438 C 66.476562 272.046875 64.15625 270.4375 62.226562 268.660156 L 59.957031 266.617188 L 62.960938 266.375 C 66.996094 266.074219 70.328125 265.128906 72.703125 264.574219 C 75.058594 263.957031 76.472656 263.703125 76.566406 263.957031 C 76.640625 264.222656 75.433594 264.949219 73.199219 265.988281 C 71.507812 266.726562 69.203125 267.695312 66.304688 268.382812 C 67.585938 269.242188 68.988281 270.074219 70.484375 270.875 C 73.019531 272.144531 75.757812 273.375 78.703125 274.511719 " fill-opacity="1" fill-rule="nonzero"/></svg>