<svg xmlns="http://www.w3.org/2000/svg" xmlns:xlink="http://www.w3.org/1999/xlink" width="500" zoomAndPan="magnify" viewBox="0 0 375 374.999991" height="500" preserveAspectRatio="xMidYMid meet" version="1.0"><defs><clipPath id="016ed4c571"><path d="M 42 1 L 332.953125 1 L 332.953125 374 L 42 374 Z M 42 1 " clip-rule="nonzero"/></clipPath></defs><g clip-path="url(#016ed4c571)"><path fill="#000000" d="M 64.570312 157.605469 C 64.425781 156.359375 64.265625 154.3125 63.480469 153.269531 C 63.273438 153.148438 63.082031 152.96875 62.898438 152.761719 C 61.578125 152.035156 60.140625 151.855469 58.832031 152.761719 C 56.980469 154.058594 55.964844 158.125 58.832031 158.9375 C 60.902344 159.519531 63.3125 159.214844 64.570312 157.605469 Z M 70.839844 119.917969 C 71.019531 116.457031 71.878906 112.160156 70.921875 108.769531 C 69.980469 105.523438 62.269531 104.179688 60.1875 107.21875 C 60.066406 107.375 59.945312 107.496094 59.835938 107.65625 C 58.832031 116.480469 55.492188 137.15625 65.246094 136.625 C 75.449219 136.042969 70.4375 126.902344 70.839844 119.917969 Z M 81.644531 212.046875 C 81.644531 211.539062 81.667969 211.066406 81.667969 210.558594 C 81.441406 210.605469 81.1875 210.628906 80.929688 210.628906 C 78.765625 210.628906 75.425781 210.628906 74.035156 210.628906 C 74.058594 210.957031 74.105469 211.320312 74.15625 211.648438 C 76.636719 212.023438 79.140625 212.132812 81.644531 212.046875 Z M 81.828125 203.148438 C 81.851562 201.429688 81.851562 199.699219 81.851562 197.980469 C 79.164062 197.980469 76.128906 197.980469 73.898438 197.980469 C 73.898438 198.34375 73.898438 198.691406 73.898438 199.019531 C 73.851562 200.363281 73.804688 201.695312 73.777344 203.039062 C 76.128906 203.039062 78.28125 203.039062 80.929688 203.039062 C 81.269531 203.039062 81.535156 203.0625 81.828125 203.148438 Z M 81.851562 190.386719 C 81.875 188.269531 81.898438 186.140625 81.949219 184.042969 C 79.394531 183.816406 76.839844 183.65625 74.289062 183.5625 C 74.058594 185.8125 73.949219 188.089844 73.949219 190.386719 C 76.683594 190.386719 78.863281 190.386719 81.851562 190.386719 Z M 83.0625 145.679688 C 82.152344 130.730469 82.855469 115.828125 83.871094 100.898438 C 80.605469 99.980469 77.375 98.949219 74.203125 97.886719 C 72.035156 97.121094 69.300781 95.753906 66.976562 95.777344 C 66.84375 95.777344 66.84375 96.917969 66.894531 98.140625 C 72.316406 98.492188 77.347656 101.25 78.234375 106.734375 C 79.261719 113.273438 77.953125 119.773438 78.765625 126.296875 C 79.296875 130.570312 80.53125 137.046875 76.539062 140.269531 C 73.777344 142.496094 70.367188 143.78125 66.953125 144.058594 C 66.84375 145.125 67.074219 145.777344 68.867188 145.753906 C 71.347656 145.730469 73.804688 145.476562 76.285156 145.378906 C 78.535156 145.28125 80.808594 145.425781 83.0625 145.679688 Z M 94.570312 103.453125 C 93.480469 103.25 92.417969 103.019531 91.328125 102.789062 C 90.371094 117.414062 89.742188 132.011719 90.699219 146.699219 C 92.210938 146.890625 93.734375 147.046875 95.25 147.121094 C 94.800781 132.496094 93.882812 118.101562 94.570312 103.453125 Z M 95.453125 157.519531 C 95.453125 156.589844 95.429688 155.679688 95.429688 154.734375 C 92.269531 154.566406 89.136719 154.035156 85.992188 153.574219 C 85.992188 156.105469 85.992188 158.683594 85.992188 161.601562 C 88.652344 159.652344 91.789062 158.257812 95.453125 157.519531 Z M 96.109375 210.859375 C 96.109375 204.285156 96.109375 195.75 96.109375 190.386719 C 93.785156 190.386719 90.902344 190.386719 89.4375 190.386719 C 89.4375 197.421875 89.488281 204.457031 89.234375 211.488281 C 91.53125 211.273438 93.832031 211.015625 96.109375 210.859375 Z M 95.476562 55.019531 C 95.476562 42.453125 97.125 29.292969 96.445312 16.761719 C 96.191406 12.210938 92.71875 7.332031 90.578125 14.511719 C 89.535156 17.949219 89.28125 20.707031 89.210938 24.351562 C 89.003906 32.269531 88.929688 40.1875 89.027344 48.140625 C 89.234375 63.550781 89.71875 78.988281 89.789062 94.421875 C 91.53125 94.945312 93.300781 95.402344 95.078125 95.816406 C 95.222656 94.339844 95.296875 92.875 95.476562 91.410156 C 95.550781 90.828125 95.707031 90.34375 95.9375 89.90625 C 96.058594 88.828125 96.265625 87.742188 96.519531 86.675781 C 96.3125 76.117188 95.476562 65.464844 95.476562 55.019531 Z M 99.90625 361.519531 C 101.953125 359.039062 102.160156 355.613281 102.132812 352.429688 C 91.53125 352.707031 80.097656 353.589844 69.023438 353.214844 C 69.457031 357.695312 69.75 362.851562 74.433594 363.738281 C 78.679688 364.582031 82.941406 364.328125 87.238281 364.125 C 91 363.964844 97.195312 364.851562 99.90625 361.519531 Z M 102.898438 148.34375 C 104.617188 148.34375 106.359375 148.367188 108.101562 148.390625 C 107.957031 135.304688 107.375 122.230469 107.796875 109.144531 C 105.875 109.070312 103.925781 109.023438 102 108.792969 C 101.976562 108.792969 101.953125 108.792969 101.929688 108.769531 C 101.652344 122 102.484375 135.074219 102.898438 148.34375 Z M 110.425781 187.859375 C 108.101562 187.859375 106.152344 187.859375 103.695312 187.859375 C 103.695312 194.03125 103.695312 201.527344 103.695312 209.1875 C 106.285156 209.1875 108.839844 209.214844 111.417969 209.492188 C 110.835938 203.316406 109.867188 195.171875 110.425781 187.859375 Z M 118.628906 23.613281 C 112.507812 26.507812 108.078125 31.796875 106.40625 41.507812 C 104.386719 53.371094 105.34375 65.441406 105.898438 77.414062 C 107.265625 77.207031 108.632812 77.015625 110.023438 76.808594 C 109.953125 62.304688 109.46875 37.535156 118.628906 23.613281 Z M 112.179688 222.773438 C 112.070312 220.882812 111.996094 219.007812 111.925781 217.105469 C 109.238281 216.804688 106.5625 216.78125 103.878906 216.78125 C 103.273438 217.613281 102.316406 218.21875 100.972656 218.21875 C 94.171875 218.21875 87.492188 219.335938 80.785156 219.492188 C 80.738281 220.195312 80.691406 220.933594 80.628906 221.632812 C 91 220.859375 102.460938 222.371094 112.179688 222.773438 Z M 111.769531 180.269531 C 111.925781 179.785156 112.070312 179.335938 112.253906 178.875 C 106.84375 175.132812 103.394531 169.191406 98.613281 164.640625 C 98.539062 164.640625 98.492188 164.664062 98.445312 164.664062 C 90.769531 165.390625 86.570312 170.230469 84.175781 176.625 C 84.429688 176.648438 84.683594 176.648438 84.9375 176.671875 C 85.433594 176.734375 85.894531 176.878906 86.304688 177.058594 C 88.046875 177.203125 89.632812 178.425781 89.585938 180.703125 C 89.558594 181.382812 89.558594 182.097656 89.535156 182.796875 C 91.691406 182.796875 94.714844 182.796875 97.027344 182.796875 C 97.28125 182.496094 97.546875 182.242188 97.910156 182.070312 C 98.492188 181.03125 99.582031 180.269531 101.167969 180.269531 C 104.589844 180.269531 109.167969 180.269531 111.769531 180.269531 Z M 112.046875 286.535156 C 112.144531 285.738281 112.226562 284.902344 112.324219 284.089844 C 94.96875 284.464844 77.722656 286.136719 60.394531 284.972656 C 60.601562 285.433594 60.695312 285.953125 60.695312 286.535156 C 79.164062 286.535156 102.558594 286.535156 112.046875 286.535156 Z M 112.992188 276.476562 C 113.996094 261.136719 113.339844 245.75 112.554688 230.398438 C 103.019531 230.035156 93.300781 229.589844 83.761719 229.683594 C 72.410156 229.816406 64.171875 231.148438 60.417969 241.828125 C 60.480469 242.082031 60.503906 242.382812 60.503906 242.6875 C 60.296875 254.261719 58.023438 265.664062 58.46875 277.25 C 76.660156 278.703125 94.777344 276.828125 112.992188 276.476562 Z M 117.613281 344.742188 C 118.398438 344.742188 119.210938 344.742188 119.984375 344.742188 C 119.609375 342.914062 119.101562 340.867188 118.144531 340.007812 C 116.5 338.59375 112.578125 338.59375 110.605469 338.484375 C 108.984375 338.386719 105.851562 337.828125 104.664062 339.34375 C 103.625 340.660156 103.367188 342.816406 103.222656 344.742188 C 108.027344 344.742188 112.808594 344.742188 117.613281 344.742188 Z M 131.980469 74.679688 C 134.691406 74.53125 137.363281 74.421875 140.074219 74.328125 C 137.449219 56.710938 134.96875 39.160156 135.476562 21.289062 C 135.367188 21.265625 135.292969 21.21875 135.199219 21.167969 C 116.960938 24.402344 117.457031 59.546875 117.589844 75.902344 C 121.136719 75.511719 124.644531 75.1875 128.191406 74.933594 C 127.5 68.988281 127.914062 63.953125 128.15625 59.859375 C 128.492188 54.921875 128.773438 51.121094 128.820312 48.261719 C 128.84375 46.820312 128.867188 45.609375 128.867188 44.570312 C 128.84375 43.554688 128.820312 42.753906 128.84375 42.113281 C 128.894531 40.804688 129.050781 40.222656 129.328125 40.140625 C 129.582031 40.089844 129.910156 40.597656 130.308594 41.859375 C 130.515625 42.5 130.746094 43.335938 131 44.363281 C 131.214844 45.40625 131.324219 46.675781 131.496094 48.164062 C 131.808594 51.144531 131.808594 55.078125 131.652344 60.003906 C 131.578125 64.183594 131.300781 69.109375 131.980469 74.679688 Z M 165.089844 174.855469 C 165.164062 174.785156 165.273438 174.699219 165.34375 174.652344 C 158.871094 174.757812 152.417969 174.878906 145.96875 174.675781 C 139.191406 174.457031 128.867188 173.050781 123.070312 177.230469 C 115.6875 182.542969 118.847656 202.058594 119.1875 209.539062 C 119.5625 219.105469 120.167969 228.644531 120.601562 238.183594 C 121.183594 250.992188 121.378906 263.714844 120.542969 276.425781 C 124.089844 276.449219 127.597656 276.425781 131.144531 276.425781 C 130.464844 263.363281 130.1875 250.179688 130.9375 237.128906 C 131.699219 223.691406 133.117188 209.976562 129.753906 196.769531 C 128.988281 193.730469 131.726562 191.828125 134.109375 192.082031 C 134.132812 192.082031 134.179688 192.082031 134.207031 192.082031 C 143.621094 192.082031 153.050781 192.144531 162.488281 192.214844 C 161.847656 186.625 161.195312 178.753906 165.089844 174.855469 Z M 184.417969 146.914062 C 184.371094 146.746094 184.34375 146.589844 184.34375 146.417969 C 183.605469 134.023438 185.375 121.335938 182.796875 109.097656 C 178.597656 109.097656 174.492188 109.070312 170.425781 109.046875 C 171.566406 110.910156 172.558594 112.582031 173.417969 114.082031 C 174.785156 116.589844 175.765625 118.609375 176.480469 120.148438 C 177.894531 123.285156 178.136719 124.652344 177.6875 124.929688 C 177.230469 125.183594 176.164062 124.324219 174.167969 121.515625 C 173.164062 120.148438 171.917969 118.246094 170.378906 115.851562 C 169.109375 113.949219 167.644531 111.675781 165.972656 109.023438 C 161.980469 109 158.011719 108.9375 154.066406 108.914062 C 156.292969 112.507812 157.9375 115.800781 159.355469 118.585938 C 161.449219 122.726562 163.046875 125.972656 164.351562 128.34375 C 165.625 130.777344 166.578125 132.398438 167.136719 133.515625 C 167.644531 134.628906 167.777344 135.207031 167.570312 135.355469 C 167.367188 135.535156 166.859375 135.257812 165.949219 134.398438 C 165.019531 133.539062 163.675781 132.097656 162.078125 129.761719 C 160.40625 127.484375 158.542969 124.300781 156.269531 120.234375 C 154.417969 116.964844 152.324219 113.042969 149.503906 108.867188 C 143.210938 108.792969 136.988281 108.707031 130.769531 108.660156 C 131.980469 109.90625 133.042969 111.164062 134 112.375 C 136.203125 115.246094 137.921875 117.921875 139.421875 120.378906 C 142.300781 125.257812 144.527344 129.058594 146.246094 131.964844 C 149.660156 137.714844 151.257812 139.6875 150.796875 140.113281 C 150.519531 140.414062 148.125 138.996094 144.019531 133.464844 C 141.949219 130.730469 139.542969 126.953125 136.457031 122.253906 C 134.917969 119.894531 133.164062 117.339844 131.070312 114.6875 C 129.402344 112.582031 127.453125 110.464844 125.105469 108.613281 C 121.886719 108.5625 118.652344 108.539062 115.410156 108.539062 C 115.363281 110.441406 115.3125 112.328125 115.289062 114.253906 C 121.632812 122.980469 124.972656 129.386719 126.894531 133.441406 C 128.773438 137.789062 129.148438 139.554688 128.664062 139.785156 C 128.214844 140.015625 126.96875 138.648438 124.546875 134.722656 C 122.492188 131.710938 119.683594 127.035156 115.230469 120.707031 C 115.265625 129.941406 115.566406 139.203125 115.6875 148.464844 C 138.609375 148.792969 161.542969 149.371094 184.417969 146.914062 Z M 170.101562 192.265625 C 183.351562 192.363281 196.628906 192.496094 209.917969 192.59375 C 209.640625 183.863281 207.761719 180.800781 197.996094 180.546875 C 193.167969 180.449219 188.363281 180.523438 183.535156 180.148438 C 181.332031 179.988281 170.707031 178.246094 170.199219 181.355469 C 169.640625 184.953125 169.773438 188.644531 170.101562 192.265625 Z M 226.484375 73.042969 C 229.113281 55.429688 231.542969 37.949219 230.902344 20.078125 C 223.75 18.359375 215.472656 19.085938 208.441406 18.964844 C 200.527344 18.808594 192.585938 18.636719 184.671875 18.6875 C 170.753906 18.785156 156.898438 19.390625 143.066406 20.867188 C 142.53125 38.554688 144.929688 55.902344 147.566406 73.371094 C 173.671875 70.332031 199.523438 72.8125 226.484375 73.042969 Z M 234.679688 221.054688 C 234.628906 219.792969 234.605469 218.523438 234.605469 217.265625 C 203.382812 217.265625 171.058594 217.011719 139.386719 216.660156 C 139.386719 217.917969 139.359375 219.1875 139.335938 220.449219 C 171.082031 220.8125 203.382812 221.054688 234.679688 221.054688 Z M 234.605469 213.460938 C 234.65625 212.203125 234.679688 210.933594 234.75 209.671875 C 203.441406 209.671875 170.984375 209.417969 139.214844 209.066406 C 139.289062 210.328125 139.3125 211.597656 139.359375 212.859375 C 171.082031 213.21875 203.332031 213.460938 234.605469 213.460938 Z M 234.980469 228.644531 C 234.910156 227.386719 234.847656 226.113281 234.800781 224.855469 C 203.46875 224.855469 171.007812 224.601562 139.214844 224.25 C 139.167969 225.507812 139.121094 226.78125 139.035156 228.039062 C 170.984375 228.390625 203.492188 228.644531 234.980469 228.644531 Z M 235.355469 236.246094 C 235.308594 235.253906 235.308594 234.261719 235.234375 233.304688 C 235.234375 233.003906 235.210938 232.722656 235.210938 232.445312 C 203.613281 232.445312 170.863281 232.191406 138.828125 231.839844 C 138.804688 232.3125 138.78125 232.796875 138.757812 233.304688 C 138.707031 234.066406 138.683594 234.84375 138.660156 235.628906 C 170.863281 235.980469 203.636719 236.246094 235.355469 236.246094 Z M 235.054688 205.871094 C 235.234375 204.007812 235.464844 202.15625 235.792969 200.292969 C 203.238281 200.230469 170.546875 199.746094 138.125 199.675781 C 138.453125 201.550781 138.683594 203.402344 138.890625 205.265625 C 170.910156 205.617188 203.492188 205.871094 235.054688 205.871094 Z M 235.285156 275.894531 C 235.355469 274.066406 235.429688 272.25 235.511719 270.398438 C 203.722656 270.398438 170.730469 270.144531 138.453125 269.792969 C 138.539062 272.019531 138.636719 274.222656 138.730469 276.449219 C 170.9375 276.425781 203.105469 276.089844 235.285156 275.894531 Z M 235.683594 243.835938 C 235.660156 242.566406 235.585938 241.308594 235.539062 240.035156 C 203.746094 240.035156 170.753906 239.78125 138.503906 239.429688 C 138.429688 240.691406 138.382812 241.960938 138.332031 243.21875 C 170.730469 243.582031 203.769531 243.835938 235.683594 243.835938 Z M 235.660156 266.597656 C 235.71875 265.335938 235.71875 264.066406 235.742188 262.808594 C 203.816406 262.808594 170.65625 262.554688 138.246094 262.203125 C 138.273438 263.460938 138.273438 264.730469 138.308594 265.992188 C 170.730469 266.355469 203.746094 266.597656 235.660156 266.597656 Z M 235.792969 251.425781 C 235.792969 250.15625 235.792969 248.898438 235.769531 247.625 C 203.816406 247.625 170.65625 247.371094 138.246094 247.019531 C 138.222656 248.28125 138.222656 249.550781 138.199219 250.808594 C 170.683594 251.171875 203.792969 251.425781 235.792969 251.425781 Z M 235.792969 259.007812 C 235.816406 257.746094 235.839844 256.476562 235.839844 255.21875 C 203.84375 255.21875 170.632812 254.960938 138.152344 254.613281 C 138.152344 255.871094 138.175781 257.140625 138.199219 258.402344 C 170.683594 258.765625 203.792969 259.007812 235.792969 259.007812 Z M 242.800781 289.828125 C 245.328125 290.058594 254.101562 292.46875 253.800781 287.324219 C 253.75 286.015625 253.617188 284.695312 253.496094 283.375 C 209.410156 283.507812 165.34375 284.210938 121.230469 284.003906 C 121.4375 285.882812 121.535156 287.710938 121.582031 289.550781 C 149.539062 290.035156 177.507812 289.9375 205.464844 289.730469 C 217.734375 289.660156 230.574219 288.714844 242.800781 289.828125 Z M 254.636719 214.296875 C 254.984375 205.726562 259.488281 178.875 247.808594 176.394531 C 235.609375 173.789062 222.359375 173.441406 209.941406 173.441406 C 209.941406 174.09375 209.941406 174.601562 209.941406 174.90625 C 210.753906 175.183594 211.527344 175.460938 212.3125 175.8125 C 217.140625 178.0625 217.445312 187.507812 217.503906 192.617188 C 224.429688 192.664062 231.339844 192.6875 238.273438 192.6875 C 240.691406 190.945312 245.195312 192.96875 244.238281 196.769531 C 240.875 210.023438 242.363281 223.644531 243.054688 237.128906 C 243.707031 250.011719 243.523438 262.964844 242.871094 275.859375 C 246.417969 275.832031 249.953125 275.808594 253.472656 275.785156 C 252.273438 255.3125 253.777344 234.902344 254.636719 214.296875 Z M 256.402344 75.902344 C 256.558594 59.726562 257.042969 25.1875 239.386719 21.3125 C 239.132812 21.496094 238.855469 21.652344 238.550781 21.75 C 238.976562 39.460938 236.554688 56.871094 233.917969 74.328125 C 236.519531 74.421875 239.132812 74.507812 241.710938 74.652344 C 241.832031 71.84375 241.941406 69.519531 242.085938 67.113281 C 242.4375 63.578125 242.773438 60.234375 243.054688 57.355469 C 243.683594 51.652344 244.191406 47.234375 244.566406 43.808594 C 245.195312 37.050781 245.777344 34.472656 246.308594 34.472656 C 246.816406 34.472656 247.203125 37.136719 247.277344 44.039062 C 247.300781 47.488281 246.914062 52.015625 246.539062 57.777344 C 246.308594 60.609375 246.078125 63.878906 245.8125 67.390625 C 245.703125 69.824219 245.605469 72.074219 245.496094 74.90625 C 249.140625 75.164062 252.757812 75.488281 256.402344 75.902344 Z M 258.300781 148.464844 C 258.484375 135.160156 259.066406 121.84375 258.582031 108.539062 C 251.828125 108.585938 245.074219 108.636719 238.320312 108.707031 C 239.835938 111.117188 241.152344 113.25 242.242188 115.089844 C 243.660156 117.667969 244.664062 119.75 245.402344 121.359375 C 246.839844 124.578125 247.070312 125.949219 246.613281 126.203125 C 246.164062 126.433594 245.074219 125.511719 243.054688 122.679688 C 242.035156 121.261719 240.828125 119.363281 239.253906 116.941406 C 237.742188 114.714844 235.9375 112 233.84375 108.769531 C 229.292969 108.792969 224.742188 108.839844 220.179688 108.890625 C 220.917969 110.050781 221.65625 111.164062 222.335938 112.230469 C 223.933594 114.640625 225.371094 116.78125 226.679688 118.730469 C 229.183594 122.726562 231.207031 125.789062 232.476562 128.320312 C 235.054688 133.378906 235.683594 135.4375 235.234375 135.679688 C 234.773438 135.910156 233.285156 134.324219 230.199219 129.738281 C 228.652344 127.460938 226.4375 124.554688 223.773438 120.730469 C 222.429688 118.804688 220.917969 116.6875 219.25 114.324219 C 218.160156 112.667969 216.972656 110.839844 215.726562 108.9375 C 210.523438 109 205.332031 109.023438 200.175781 109.046875 C 201.238281 110.378906 202.246094 111.675781 203.164062 112.945312 C 205.003906 115.777344 206.699219 118.355469 208.222656 120.679688 C 211.054688 125.390625 213.148438 129.132812 214.699219 132.011719 C 217.734375 137.761719 218.617188 140.136719 218.160156 140.414062 C 217.699219 140.691406 216.042969 138.828125 212.363281 133.378906 C 210.546875 130.707031 208.222656 127.132812 205.257812 122.558594 C 203.722656 120.332031 202.027344 117.847656 200.125 115.113281 C 198.6875 113.1875 197.039062 111.164062 195.347656 109.070312 C 193.722656 109.070312 192.101562 109.097656 190.492188 109.097656 C 192.683594 121.394531 191.195312 134 191.933594 146.417969 C 191.933594 146.671875 191.898438 146.890625 191.871094 147.121094 C 213.984375 149.300781 236.144531 148.792969 258.300781 148.464844 Z M 268.117188 209.1875 C 268.117188 201.671875 268.117188 192.289062 268.117188 187.859375 C 266.121094 187.859375 264.21875 187.859375 262.804688 187.859375 C 262.851562 195.074219 262.621094 202.289062 262.320312 209.492188 C 264.246094 209.285156 266.167969 209.214844 268.117188 209.1875 Z M 268.191406 77.4375 C 268.832031 65.597656 270.296875 53.117188 267.765625 41.507812 C 265.636719 31.820312 261.339844 26.507812 255.398438 23.613281 C 264.523438 37.558594 264.039062 62.328125 263.964844 76.808594 C 265.382812 77.015625 266.796875 77.207031 268.191406 77.4375 Z M 270.210938 100.898438 C 269.859375 96.289062 269.738281 91.6875 269.738281 87.050781 C 269.507812 86.421875 269.230469 85.792969 268.902344 85.160156 C 256.171875 83.03125 243.355469 82.074219 230.453125 81.796875 C 229.269531 81.761719 228.375 81.3125 227.769531 80.621094 C 201.191406 80.453125 172.703125 77.460938 145.484375 81.238281 C 144.953125 81.566406 144.324219 81.796875 143.535156 81.796875 C 130.636719 82.074219 117.820312 83.03125 105.085938 85.160156 C 104.808594 85.660156 104.554688 86.191406 104.363281 86.722656 C 104.335938 91.480469 104.15625 96.214844 103.804688 100.898438 C 131.445312 100.925781 157.273438 101.53125 187.175781 101.53125 C 214.445312 101.53125 242.59375 100.949219 270.210938 100.898438 Z M 270.949219 158.402344 C 270.949219 157.570312 270.972656 156.757812 270.972656 155.933594 C 243.199219 156.078125 215.425781 157.496094 187.78125 154.335938 C 187.503906 154.3125 187.25 154.226562 186.996094 154.15625 C 186.742188 154.226562 186.488281 154.3125 186.210938 154.335938 C 158.566406 157.496094 130.792969 156.078125 103.019531 155.933594 C 103.042969 156.757812 103.042969 157.570312 103.042969 158.402344 C 107.957031 162.738281 111.210938 168.984375 116.597656 172.652344 C 116.730469 172.554688 116.828125 172.421875 116.984375 172.324219 C 129.097656 163.597656 147.179688 167.289062 161.167969 167.085938 C 183.074219 166.804688 206.296875 164.277344 228.070312 166.78125 C 228.601562 166.828125 229.0625 166.988281 229.488281 167.21875 C 239.132812 167.085938 250.277344 167.496094 256.957031 172.929688 C 262.597656 169.289062 265.914062 162.835938 270.949219 158.402344 Z M 271.128906 148.34375 C 271.503906 135.074219 272.339844 122 272.0625 108.769531 C 272.039062 108.792969 272.015625 108.792969 271.988281 108.792969 C 270.066406 109.023438 268.117188 109.070312 266.191406 109.144531 C 266.628906 122.230469 266.070312 135.304688 265.914062 148.390625 C 267.632812 148.367188 269.375 148.34375 271.128906 148.34375 Z M 273.707031 346.484375 C 274.109375 344.632812 274.566406 342.839844 274.6875 340.964844 C 267.933594 340.285156 259.414062 339.148438 257.648438 346.109375 C 263.011719 346.230469 268.371094 346.351562 273.707031 346.484375 Z M 283.292969 146.671875 C 284.25 131.988281 283.621094 117.386719 282.664062 102.765625 C 281.597656 102.996094 280.507812 103.25 279.421875 103.453125 C 280.109375 118.078125 279.191406 132.496094 278.742188 147.121094 C 280.253906 147.046875 281.78125 146.867188 283.292969 146.671875 Z M 284.757812 211.488281 C 284.503906 204.457031 284.589844 197.421875 284.5625 190.386719 C 281.851562 190.386719 277.859375 190.386719 275.707031 190.386719 C 275.707031 196.441406 275.707031 203.449219 275.707031 210.582031 C 275.730469 210.628906 275.777344 210.691406 275.800781 210.738281 C 278.792969 210.859375 281.78125 211.1875 284.757812 211.488281 Z M 284.988281 43.359375 C 285.011719 35.164062 286.476562 24.765625 284.128906 16.847656 C 281.246094 7.222656 277.167969 12.027344 277.605469 19.847656 C 278.308594 33.105469 278.464844 46.242188 278.535156 59.546875 C 278.5625 68.660156 277.800781 77.875 277.582031 87.050781 C 277.773438 87.996094 277.933594 88.949219 278.054688 89.90625 C 278.28125 90.34375 278.464844 90.828125 278.511719 91.410156 C 278.695312 92.875 278.792969 94.339844 278.914062 95.816406 C 280.691406 95.402344 282.457031 94.945312 284.226562 94.421875 C 284.308594 77.390625 284.964844 60.378906 284.988281 43.359375 Z M 288.351562 161.878906 C 288.351562 158.441406 288.351562 155.378906 288.351562 153.730469 C 285.121094 154.15625 281.851562 154.566406 278.5625 154.710938 C 278.5625 155.644531 278.535156 156.589844 278.535156 157.519531 C 282.363281 158.308594 285.617188 159.773438 288.351562 161.878906 Z M 289.054688 176.671875 C 289.308594 176.648438 289.5625 176.648438 289.816406 176.625 C 287.421875 170.230469 283.21875 165.390625 275.546875 164.664062 C 275.5 164.664062 275.449219 164.640625 275.378906 164.640625 C 270.488281 169.289062 267.050781 175.363281 261.4375 179.105469 C 261.59375 179.480469 261.738281 179.867188 261.871094 180.269531 C 264.59375 180.269531 268.878906 180.269531 273.175781 180.269531 C 275.125 180.269531 276.308594 181.40625 276.769531 182.796875 C 278.949219 182.796875 282.507812 182.796875 284.453125 182.796875 C 284.429688 182.097656 284.429688 181.382812 284.40625 180.703125 C 284.359375 178.425781 285.957031 177.203125 287.722656 177.058594 C 288.097656 176.878906 288.558594 176.734375 289.054688 176.671875 Z M 293.363281 221.632812 C 293.3125 220.933594 293.265625 220.195312 293.203125 219.492188 C 286.5 219.335938 279.832031 218.21875 273.019531 218.21875 C 271.6875 218.21875 270.71875 217.613281 270.113281 216.78125 C 267.425781 216.78125 264.753906 216.804688 262.066406 217.105469 C 262.042969 217.105469 261.992188 217.105469 261.945312 217.105469 C 261.871094 219.007812 261.761719 220.882812 261.667969 222.773438 C 271.410156 222.371094 282.917969 220.859375 293.363281 221.632812 Z M 299.933594 190.386719 C 299.957031 188.089844 299.910156 185.8125 299.703125 183.5625 C 297.148438 183.65625 294.597656 183.816406 292.066406 184.042969 C 292.089844 186.140625 292.152344 188.269531 292.152344 190.386719 C 294.148438 190.386719 297.429688 190.386719 299.933594 190.386719 Z M 299.8125 211.648438 C 299.859375 211.320312 299.910156 210.957031 299.957031 210.628906 C 297.765625 210.628906 295.589844 210.628906 293.410156 210.628906 C 293.011719 210.628906 292.648438 210.582031 292.320312 210.484375 C 292.320312 211.015625 292.347656 211.527344 292.347656 212.046875 C 294.851562 212.132812 297.332031 212.023438 299.8125 211.648438 Z M 300.210938 203.039062 C 300.164062 201.34375 300.117188 199.675781 300.066406 197.980469 C 296.980469 197.980469 294.148438 197.980469 292.152344 197.980469 C 292.152344 199.722656 292.152344 201.476562 292.175781 203.246094 C 292.550781 203.125 292.949219 203.039062 293.410156 203.039062 C 295.335938 203.039062 298.675781 203.039062 300.210938 203.039062 Z M 307.316406 98.089844 C 307.402344 96.699219 307.074219 95.632812 305.355469 96.117188 C 303.066406 96.746094 300.902344 97.582031 298.652344 98.261719 C 295.820312 99.097656 292.976562 99.980469 290.117188 100.789062 C 291.136719 115.742188 291.835938 130.644531 290.929688 145.609375 C 293.203125 145.378906 295.457031 145.234375 297.707031 145.378906 C 300.164062 145.523438 302.667969 145.835938 305.125 145.753906 C 306.773438 145.703125 307.097656 145.148438 307.050781 144.265625 C 303.175781 144.117188 299.351562 142.570312 296.75 139.410156 C 293.289062 135.207031 295.03125 129.386719 295.433594 124.554688 C 295.964844 118.101562 294.367188 111.625 296.195312 105.292969 C 297.5625 100.535156 302.292969 98.285156 307.316406 98.089844 Z M 313.644531 286.535156 C 313.644531 285.929688 313.742188 285.398438 313.949219 284.949219 C 296.496094 286.160156 279.09375 284.464844 261.617188 284.089844 C 261.714844 284.902344 261.8125 285.738281 261.921875 286.535156 C 279.652344 286.535156 297.285156 286.535156 313.644531 286.535156 Z M 313.851562 362.015625 C 314.964844 359.644531 315.265625 356.980469 315.414062 354.355469 C 305.550781 354.449219 295.6875 354.425781 285.824219 354.304688 C 286.171875 359.085938 286.453125 364.960938 291.027344 365.746094 C 295.335938 366.496094 299.558594 365.757812 303.855469 365.660156 C 307.242188 365.589844 312.15625 365.710938 313.851562 362.015625 Z M 310.304688 136.492188 C 318.609375 134.070312 315.160156 116.300781 314.152344 107.65625 C 314.046875 107.496094 313.925781 107.375 313.828125 107.21875 C 312.507812 105.355469 307.703125 105.574219 305.828125 106.128906 C 303.296875 106.84375 302.875 108.5625 302.851562 111.09375 C 302.789062 114.53125 303.296875 117.96875 303.203125 121.417969 C 303.066406 127.035156 299.328125 139.710938 310.304688 136.492188 Z M 315.523438 277.25 C 315.96875 265.664062 313.695312 254.261719 313.488281 242.6875 C 313.488281 242.382812 313.523438 242.105469 313.574219 241.828125 C 309.859375 231.332031 301.53125 229.429688 290.226562 229.683594 C 280.582031 229.890625 270.902344 230.035156 261.253906 230.398438 C 260.480469 245.773438 259.875 261.160156 260.929688 276.476562 C 279.167969 276.828125 297.308594 278.726562 315.523438 277.25 Z M 315.160156 158.9375 C 318.21875 157.796875 316.960938 153.5 314.527344 152.410156 C 310.789062 150.742188 309.882812 154.867188 309.421875 157.605469 C 310.632812 159.140625 313.246094 159.652344 315.160156 158.9375 Z M 318.378906 346.738281 C 320.375 346.714844 322.371094 346.691406 324.367188 346.667969 C 324.175781 346.207031 324.042969 345.675781 324.042969 345.042969 C 324.066406 328.058594 324.199219 311.085938 323.230469 294.125 C 305.5 294.125 269.605469 294.125 260.273438 294.125 C 259.597656 295.371094 258.605469 296.367188 257.117188 296.945312 C 248.085938 300.480469 232.9375 297.417969 223.375 297.371094 C 188.183594 297.117188 153 297.746094 117.820312 297.09375 C 116.039062 297.042969 114.503906 295.796875 114.128906 294.125 C 92.996094 294.125 71.878906 294.125 50.761719 294.125 C 49.851562 310.433594 49.925781 326.753906 49.949219 343.070312 C 51.0625 343.375 52.175781 343.652344 53.3125 343.859375 C 53.714844 336.339844 54.101562 329.984375 54.476562 324.644531 C 54.730469 318.472656 54.886719 313.664062 55.105469 309.996094 C 55.542969 302.636719 56.074219 299.828125 56.605469 299.828125 C 57.101562 299.828125 57.5625 302.636719 57.792969 310.019531 C 57.914062 313.714844 58.046875 318.554688 57.972656 324.777344 C 57.769531 330.238281 57.464844 336.738281 57.078125 344.464844 C 65.984375 345.554688 75.269531 344.742188 84.125 344.742188 C 87.964844 344.742188 91.835938 344.742188 95.683594 344.742188 C 96.011719 340.941406 96.59375 336.667969 99.277344 333.980469 C 102.28125 330.976562 106.527344 330.542969 110.605469 330.890625 C 114.574219 331.230469 120.601562 331.351562 123.507812 334.644531 C 125.988281 337.453125 126.691406 341.21875 127.730469 344.742188 C 147.179688 344.742188 166.640625 344.742188 186.089844 344.742188 C 207.386719 344.742188 228.710938 345.347656 250.023438 345.902344 C 250.871094 340.40625 253.546875 335.394531 259.464844 333.90625 C 265.613281 332.34375 271.988281 333.421875 278.234375 333.652344 C 279.796875 333.738281 281.597656 334.765625 281.902344 336.460938 C 282.507812 340.03125 282.082031 343.214844 281.394531 346.605469 C 292.480469 346.8125 303.527344 346.898438 314.578125 346.789062 C 314.40625 318.242188 315.160156 309.320312 316.175781 309.28125 C 317.191406 309.28125 318.097656 318.191406 318.378906 346.738281 Z M 332.257812 350.226562 C 332.464844 352.332031 330.371094 354.125 328.472656 354.171875 C 326.644531 354.222656 324.828125 354.222656 323 354.257812 C 322.78125 358.980469 322.140625 364.039062 319.140625 367.71875 C 315.242188 372.5 309.652344 372.925781 303.855469 373.25 C 297.539062 373.601562 289.488281 375.019531 284.078125 370.78125 C 278.632812 366.496094 279.347656 360.296875 278.390625 354.195312 C 245.980469 353.640625 213.558594 352.332031 181.175781 352.332031 C 157.355469 352.332031 133.527344 352.332031 109.722656 352.332031 C 109.675781 357.394531 109.117188 363.410156 105.292969 366.871094 C 100.585938 371.15625 94.996094 371.410156 88.929688 371.652344 C 82.710938 371.90625 73.707031 373.25 68.1875 369.4375 C 62.039062 365.152344 62.828125 359.234375 61.460938 352.730469 C 56.023438 352.199219 50.738281 351.265625 45.773438 349.667969 C 44.660156 349.292969 43.960938 348.617188 43.546875 347.804688 C 42.847656 347.199219 42.363281 346.28125 42.363281 345.042969 C 42.335938 327.128906 42.15625 309.1875 43.292969 291.304688 C 43.449219 289.152344 44.988281 287.964844 46.65625 287.6875 C 46.960938 286.996094 47.445312 286.535156 48.050781 286.535156 C 49.648438 286.535156 51.339844 286.535156 53.109375 286.535156 C 53.109375 285.457031 53.460938 284.621094 54.015625 283.980469 C 53.6875 283.761719 53.386719 283.507812 53.132812 283.207031 C 52.019531 282.648438 51.136719 281.585938 51.015625 280.011719 C 50.082031 268.28125 52.359375 256.707031 52.804688 245 C 52.296875 244.238281 52.105469 243.242188 52.40625 242.082031 C 55.542969 230.195312 63.359375 224.878906 73.015625 222.699219 C 73.066406 221.511719 73.148438 220.328125 73.222656 219.140625 C 72.4375 219.03125 71.625 218.933594 70.839844 218.777344 C 69.203125 218.984375 67.558594 218.195312 67.148438 216.078125 C 65.984375 209.601562 66.144531 203.222656 66.421875 196.671875 C 66.640625 190.921875 66.3125 185.183594 67.148438 179.457031 C 67.257812 178.898438 67.425781 178.453125 67.65625 178.0625 C 68.140625 176.828125 69.253906 175.847656 71.019531 175.847656 C 72.785156 175.847656 74.566406 175.945312 76.332031 176.042969 C 76.914062 174.167969 77.617188 172.398438 78.449219 170.726562 C 78.425781 170.558594 78.402344 170.351562 78.402344 170.148438 C 78.402344 163.523438 78.402344 154.988281 78.402344 152.921875 C 76.609375 152.894531 74.785156 153.089844 72.96875 153.246094 C 73.34375 155.957031 72.714844 158.9375 71.296875 161.1875 C 68.03125 166.429688 59.488281 168.9375 54.199219 165.0625 C 47.820312 160.402344 47.820312 149.347656 55.613281 145.863281 C 56.859375 145.304688 58.226562 144.894531 59.632812 144.699219 C 59.632812 144.144531 59.632812 143.550781 59.667969 142.945312 C 56.65625 141.636719 54.148438 139.203125 52.855469 135.535156 C 49.367188 125.765625 52.105469 115.015625 52.480469 104.992188 C 52.550781 102.96875 53.917969 101.785156 55.492188 101.457031 C 56.605469 100.511719 57.890625 99.761719 59.367188 99.230469 C 59.230469 93.175781 60.804688 87.378906 68.261719 88.347656 C 72.96875 88.976562 77.542969 90.390625 82.128906 91.941406 C 81.765625 68.082031 79.042969 43.203125 81.765625 19.59375 C 82.734375 11.496094 86.59375 -0.0898438 96.664062 2.136719 C 105.800781 4.136719 104.554688 17.523438 103.597656 26.808594 C 111.308594 13.046875 126.800781 12.632812 141.648438 12.632812 C 142.421875 12.632812 143.066406 12.839844 143.597656 13.167969 C 160.40625 11.398438 177.289062 10.914062 194.207031 11.144531 C 206.273438 11.300781 220.3125 9.632812 232.425781 12.65625 C 232.523438 12.65625 232.597656 12.632812 232.707031 12.632812 C 246.648438 12.632812 262.34375 13.046875 270.246094 26.300781 C 269.277344 17.039062 268.492188 4.085938 277.328125 2.136719 C 286.984375 0.0078125 291.921875 11.398438 292.226562 19.59375 C 293.082031 43.710938 292.019531 67.824219 291.8125 91.941406 C 296.425781 90.414062 301.023438 88.976562 305.730469 88.347656 C 313.222656 87.351562 314.757812 93.199219 314.636719 99.253906 C 316.101562 99.808594 317.386719 100.535156 318.5 101.433594 C 320.046875 101.785156 321.441406 102.945312 321.511719 104.992188 C 321.910156 115.0625 325.105469 126.832031 320.75 136.445312 C 319.441406 139.386719 317.082031 141.503906 314.300781 142.824219 C 314.335938 143.453125 314.335938 144.058594 314.335938 144.640625 C 315.96875 144.75 317.566406 145.234375 319.007812 146.214844 C 325.058594 150.4375 327.152344 160.742188 319.792969 165.0625 C 314.273438 168.332031 305.378906 166.9375 302.414062 160.714844 C 301.375 158.488281 300.816406 155.679688 301.09375 153.148438 C 299.378906 153.042969 297.660156 152.921875 295.941406 152.945312 C 295.941406 157.824219 295.941406 162.8125 295.941406 170.148438 C 295.941406 170.558594 295.867188 170.910156 295.792969 171.261719 C 296.519531 172.785156 297.148438 174.371094 297.683594 176.042969 C 299.425781 175.945312 301.203125 175.847656 302.972656 175.847656 C 304.738281 175.847656 305.851562 176.828125 306.335938 178.0625 C 306.589844 178.453125 306.773438 178.898438 306.84375 179.457031 C 307.777344 185.910156 307.449219 192.519531 307.703125 199.019531 C 307.910156 204.78125 307.847656 210.375 306.84375 216.078125 C 306.46875 218.195312 304.800781 218.984375 303.152344 218.777344 C 302.367188 218.933594 301.554688 219.03125 300.769531 219.140625 C 300.839844 220.328125 300.925781 221.511719 300.976562 222.699219 C 310.632812 224.878906 318.449219 230.195312 321.585938 242.082031 C 321.886719 243.242188 321.695312 244.238281 321.183594 245 C 321.632812 256.707031 323.921875 268.28125 322.976562 280.011719 C 322.878906 281.585938 321.996094 282.648438 320.859375 283.207031 C 320.675781 283.425781 320.421875 283.652344 320.167969 283.835938 C 320.808594 284.464844 321.234375 285.347656 321.234375 286.535156 C 322.070312 286.535156 322.929688 286.535156 323.761719 286.535156 C 324.972656 286.535156 325.894531 286.972656 326.523438 287.625 C 328.445312 287.578125 330.515625 288.800781 330.699219 291.304688 C 331.507812 303.980469 331.628906 316.679688 331.652344 329.378906 C 331.882812 329.886719 332.042969 330.492188 331.980469 331.230469 C 331.53125 337.597656 331.652344 343.859375 332.257812 350.226562 " fill-opacity="1" fill-rule="nonzero"/></g><path fill="#000000" d="M 277.375 254.101562 C 280.96875 254.007812 281.746094 252.03125 281.695312 248.945312 C 278.71875 248.789062 275.730469 248.738281 272.777344 248.945312 C 272.667969 250.230469 272.546875 251.695312 272.996094 252.867188 C 273.550781 254.222656 276.214844 254.152344 277.375 254.101562 Z M 298.070312 254.175781 C 298.542969 252.734375 298.214844 251.199219 297.660156 249.746094 C 295.988281 249.722656 294.320312 249.695312 292.625 249.648438 C 292.550781 249.648438 292.480469 249.625 292.371094 249.625 C 292.371094 249.722656 292.394531 249.828125 292.347656 249.925781 C 291.945312 251.453125 291.898438 253.339844 292.804688 254.355469 C 293.6875 255.339844 294.667969 255.773438 295.914062 255.675781 C 296.75 255.628906 297.765625 255.097656 298.070312 254.175781 Z M 303.925781 261.621094 C 303.804688 257.648438 303.105469 253.726562 302.691406 249.722656 C 302.34375 249.746094 301.992188 249.746094 301.605469 249.746094 C 302.210938 251.828125 302.34375 254.03125 301.375 256.027344 C 300.371094 258.097656 298.191406 259.394531 295.914062 259.464844 C 293.6875 259.574219 291.414062 258.605469 289.996094 256.886719 C 288.230469 254.757812 288 252.007812 288.582031 249.394531 C 287.566406 249.34375 286.535156 249.273438 285.519531 249.199219 C 285.542969 251.425781 285.265625 253.847656 283.691406 255.542969 C 281.949219 257.46875 279.214844 258.027344 276.683594 257.90625 C 274.773438 257.796875 272.363281 257.515625 270.828125 256.148438 C 270.71875 258.714844 270.597656 260.738281 270.390625 260.738281 C 274.726562 260.929688 278.996094 260.859375 283.316406 260.835938 C 290.226562 260.785156 297.101562 260.882812 303.925781 261.621094 Z M 310.003906 245.882812 C 310.183594 252.664062 312.109375 259.042969 311.417969 265.871094 C 311.140625 268.496094 309.214844 269.949219 306.613281 269.539062 C 298.929688 268.304688 291.085938 268.328125 283.316406 268.425781 C 278.632812 268.496094 272.59375 269.464844 268.042969 268.023438 C 259.816406 265.410156 263.457031 252.105469 263.335938 245.859375 C 263.3125 244.261719 264.5 242.492188 266.121094 242.191406 C 274.992188 240.542969 283.691406 241.683594 292.625 242.058594 C 297.175781 242.191406 301.6875 242.289062 306.214844 242.082031 C 308.308594 241.984375 309.953125 243.886719 310.003906 245.882812 " fill-opacity="1" fill-rule="nonzero"/><path fill="#000000" d="M 247.144531 301.171875 C 264.402344 301.546875 275.074219 302.078125 275.074219 302.683594 C 275.074219 303.265625 264.402344 303.800781 247.144531 304.175781 C 229.898438 304.550781 206.070312 304.78125 179.734375 305.046875 C 153.398438 305.238281 129.582031 305.191406 112.324219 304.914062 C 95.078125 304.660156 84.429688 304.199219 84.429688 303.617188 C 84.429688 303.035156 95.078125 302.40625 112.324219 301.898438 C 129.582031 301.390625 153.398438 300.964844 179.734375 300.761719 C 206.070312 300.507812 229.898438 300.761719 247.144531 301.171875 " fill-opacity="1" fill-rule="nonzero"/><path fill="#000000" d="M 256.933594 91.082031 C 256.933594 92.945312 255.214844 95.125 253.148438 94.871094 C 251.320312 94.640625 249.503906 94.472656 247.675781 94.449219 C 245.605469 94.449219 243.886719 92.753906 243.886719 90.644531 C 243.886719 88.601562 245.605469 86.855469 247.675781 86.855469 C 249.503906 86.882812 251.320312 87.050781 253.148438 87.28125 C 255.191406 87.535156 256.933594 88.828125 256.933594 91.082031 " fill-opacity="1" fill-rule="nonzero"/><path fill="#000000" d="M 218.535156 38.25 C 220.617188 32.984375 219.394531 30.152344 214.84375 29.714844 C 208.671875 28.578125 202.632812 29.160156 196.410156 29.109375 C 185.699219 29.011719 175.027344 28.503906 164.328125 29.207031 C 155.734375 29.765625 157.128906 32.574219 155.324219 37.585938 C 167.644531 37.789062 179.941406 37.390625 192.234375 37.609375 C 198.070312 37.765625 203.914062 37.742188 209.761719 37.898438 C 212.699219 37.972656 215.628906 38.070312 218.535156 38.25 Z M 213.101562 25.5625 C 222.261719 26.605469 226.375 32.148438 224.742188 40.972656 C 224.585938 41.761719 223.675781 42.425781 222.890625 42.367188 C 212.699219 41.578125 202.472656 41.664062 192.234375 41.410156 C 178.949219 41.15625 165.671875 41.6875 152.394531 41.363281 C 150.980469 41.335938 150.035156 39.765625 150.773438 38.492188 C 152.191406 35.128906 152.722656 31.664062 152.417969 28.105469 C 152.394531 26.980469 153.304688 26.300781 154.320312 26.203125 C 173.308594 24.449219 194.050781 23.46875 213.101562 25.5625 " fill-opacity="1" fill-rule="nonzero"/><path fill="#000000" d="M 207.582031 86.773438 C 209.613281 87.136719 210.714844 89.617188 210.21875 91.457031 C 209.640625 93.585938 207.582031 94.472656 205.558594 94.121094 C 205.28125 94.058594 204.046875 94.035156 203.417969 94.035156 C 198.503906 94.011719 198.503906 86.421875 203.417969 86.445312 C 204.808594 86.445312 206.164062 86.554688 207.582031 86.773438 " fill-opacity="1" fill-rule="nonzero"/><path fill="#000000" d="M 188.871094 85.816406 C 193.75 85.816406 193.75 93.40625 188.871094 93.40625 C 187.09375 93.40625 185.375 93.308594 183.632812 93.054688 C 181.585938 92.753906 180.496094 90.199219 180.980469 88.371094 C 181.5625 86.238281 183.511719 85.488281 185.507812 85.71875 C 185.507812 85.683594 185.652344 85.71875 185.953125 85.742188 C 186.28125 85.765625 186.597656 85.792969 186.921875 85.792969 C 187.550781 85.816406 188.207031 85.816406 188.871094 85.816406 " fill-opacity="1" fill-rule="nonzero"/><path fill="#000000" d="M 166.941406 86.652344 C 172 86.652344 172 94.242188 166.941406 94.242188 L 164.414062 94.242188 C 159.355469 94.242188 159.355469 86.652344 164.414062 86.652344 L 166.941406 86.652344 " fill-opacity="1" fill-rule="nonzero"/><path fill="#000000" d="M 126.035156 87.28125 C 128.105469 87.28125 129.835938 89 129.835938 91.082031 C 129.835938 93.152344 128.105469 94.871094 126.035156 94.871094 C 123.785156 94.871094 121.535156 94.847656 119.308594 94.675781 C 117.238281 94.496094 115.519531 93.078125 115.519531 90.875 C 115.519531 88.925781 117.238281 86.90625 119.308594 87.074219 C 121.535156 87.257812 123.785156 87.28125 126.035156 87.28125 " fill-opacity="1" fill-rule="nonzero"/><path fill="#000000" d="M 81.160156 254.429688 C 82.09375 253.0625 82.070312 251.574219 81.644531 249.925781 C 81.597656 249.828125 81.621094 249.722656 81.621094 249.625 C 81.511719 249.625 81.441406 249.648438 81.367188 249.648438 C 79.671875 249.695312 78.003906 249.722656 76.332031 249.746094 C 75.777344 251.222656 75.339844 252.988281 75.898438 254.101562 C 76.429688 255.21875 77.214844 255.675781 78.28125 255.675781 C 79.296875 255.699219 80.582031 255.242188 81.160156 254.429688 Z M 101.117188 252.457031 C 101.347656 251.320312 101.277344 250.132812 101.226562 248.945312 C 98.238281 248.738281 95.25 248.789062 92.269531 248.945312 C 92.1875 250.300781 92.210938 251.828125 92.996094 252.917969 C 93.941406 254.128906 95.914062 254.175781 97.304688 254.101562 C 98.566406 254.054688 100.765625 254.054688 101.117188 252.457031 Z M 103.273438 260.09375 C 103.273438 258.765625 103.25 257.445312 103.222656 256.101562 C 101.53125 257.648438 98.820312 257.976562 96.617188 257.90625 C 91.023438 257.722656 88.554688 254.308594 88.519531 249.199219 C 87.492188 249.273438 86.449219 249.34375 85.410156 249.394531 C 86.015625 252.082031 85.761719 254.9375 83.871094 257.046875 C 82.433594 258.65625 80.074219 259.695312 77.90625 259.464844 C 75.59375 259.1875 73.5 258.050781 72.542969 255.820312 C 71.671875 253.847656 71.804688 251.753906 72.386719 249.746094 C 72.035156 249.746094 71.671875 249.746094 71.296875 249.722656 C 70.898438 253.726562 70.183594 257.648438 70.0625 261.644531 C 77.820312 260.808594 85.613281 260.785156 93.457031 260.882812 C 95.453125 260.90625 103.273438 261.574219 103.273438 260.09375 Z M 110.65625 245.859375 C 110.535156 252.105469 114.175781 265.410156 105.945312 268.023438 C 100.5625 269.746094 93.457031 268.402344 87.890625 268.402344 C 81.039062 268.425781 74.179688 268.449219 67.378906 269.539062 C 64.800781 269.949219 62.851562 268.496094 62.574219 265.871094 C 61.894531 259.042969 63.808594 252.664062 63.988281 245.882812 C 64.035156 243.886719 65.683594 241.984375 67.777344 242.082031 C 72.316406 242.289062 76.839844 242.191406 81.367188 242.058594 C 90.296875 241.683594 99 240.542969 107.871094 242.191406 C 109.492188 242.492188 110.679688 244.261719 110.65625 245.859375 " fill-opacity="1" fill-rule="nonzero"/></svg>