<svg xmlns="http://www.w3.org/2000/svg" xmlns:xlink="http://www.w3.org/1999/xlink" width="40" zoomAndPan="magnify" viewBox="0 0 30 30.000001" height="40" preserveAspectRatio="xMidYMid meet" version="1.0"><defs><g/><clipPath id="6f2a229167"><path d="M 4 10.015625 L 29.515625 10.015625 L 29.515625 18 L 4 18 Z M 4 10.015625 " clip-rule="nonzero"/></clipPath><clipPath id="2ada08be0c"><path d="M 0.484375 10.015625 L 10 10.015625 L 10 18.726562 L 0.484375 18.726562 Z M 0.484375 10.015625 " clip-rule="nonzero"/></clipPath><clipPath id="8e087a4a28"><path d="M 1 10.015625 L 9 10.015625 L 9 18.726562 L 1 18.726562 Z M 1 10.015625 " clip-rule="nonzero"/></clipPath><clipPath id="7c8ddf7719"><path d="M 10.5 11.175781 L 25.453125 11.175781 L 25.453125 17.710938 L 10.5 17.710938 Z M 10.5 11.175781 " clip-rule="nonzero"/></clipPath></defs><g clip-path="url(#6f2a229167)"><path fill="#191970" d="M 4.527344 17.789062 L 25.972656 17.789062 C 27.921875 17.789062 29.5 16.257812 29.5 14.371094 C 29.5 12.484375 27.921875 10.953125 25.972656 10.953125 L 4.527344 10.953125 Z M 4.527344 17.789062 " fill-opacity="1" fill-rule="nonzero"/></g><g clip-path="url(#2ada08be0c)"><path fill="#ffffff" d="M 9.492188 14.371094 C 9.492188 14.65625 9.460938 14.941406 9.40625 15.21875 C 9.347656 15.5 9.261719 15.773438 9.148438 16.039062 C 9.035156 16.300781 8.898438 16.550781 8.734375 16.789062 C 8.570312 17.027344 8.382812 17.246094 8.175781 17.449219 C 7.964844 17.652344 7.738281 17.832031 7.492188 17.992188 C 7.246094 18.152344 6.988281 18.285156 6.714844 18.394531 C 6.441406 18.503906 6.160156 18.585938 5.871094 18.640625 C 5.582031 18.699219 5.289062 18.726562 4.996094 18.726562 C 4.699219 18.726562 4.40625 18.699219 4.117188 18.640625 C 3.828125 18.585938 3.546875 18.503906 3.273438 18.394531 C 3 18.285156 2.742188 18.152344 2.496094 17.992188 C 2.25 17.832031 2.023438 17.652344 1.816406 17.449219 C 1.605469 17.246094 1.421875 17.027344 1.257812 16.789062 C 1.09375 16.550781 0.953125 16.300781 0.839844 16.039062 C 0.726562 15.773438 0.640625 15.5 0.585938 15.21875 C 0.527344 14.941406 0.5 14.65625 0.5 14.371094 C 0.5 14.085938 0.527344 13.800781 0.585938 13.519531 C 0.640625 13.242188 0.726562 12.96875 0.839844 12.703125 C 0.953125 12.441406 1.09375 12.1875 1.257812 11.953125 C 1.421875 11.714844 1.605469 11.492188 1.816406 11.292969 C 2.023438 11.089844 2.25 10.910156 2.496094 10.75 C 2.742188 10.589844 3 10.457031 3.273438 10.347656 C 3.546875 10.238281 3.828125 10.15625 4.117188 10.101562 C 4.40625 10.042969 4.699219 10.015625 4.996094 10.015625 C 5.289062 10.015625 5.582031 10.042969 5.871094 10.101562 C 6.160156 10.15625 6.441406 10.238281 6.714844 10.347656 C 6.988281 10.457031 7.246094 10.589844 7.492188 10.75 C 7.738281 10.910156 7.964844 11.089844 8.175781 11.292969 C 8.382812 11.492188 8.570312 11.714844 8.734375 11.953125 C 8.898438 12.1875 9.035156 12.441406 9.148438 12.703125 C 9.261719 12.96875 9.347656 13.242188 9.40625 13.519531 C 9.460938 13.800781 9.492188 14.085938 9.492188 14.371094 Z M 9.492188 14.371094 " fill-opacity="1" fill-rule="nonzero"/></g><g clip-path="url(#8e087a4a28)"><path fill="#191970" d="M 4.996094 18.222656 C 2.800781 18.222656 1.019531 16.496094 1.019531 14.371094 C 1.019531 12.246094 2.800781 10.519531 4.996094 10.519531 C 7.1875 10.519531 8.972656 12.246094 8.972656 14.371094 C 8.972656 16.496094 7.1875 18.222656 4.996094 18.222656 Z M 4.996094 10.628906 C 2.863281 10.628906 1.132812 12.308594 1.132812 14.371094 C 1.132812 16.433594 2.863281 18.113281 4.996094 18.113281 C 7.125 18.113281 8.859375 16.433594 8.859375 14.371094 C 8.859375 12.308594 7.125 10.628906 4.996094 10.628906 Z M 4.996094 10.628906 " fill-opacity="1" fill-rule="nonzero"/></g><path fill="#fffaf3" d="M 14.796875 15.070312 L 14.796875 15.621094 L 13.285156 15.621094 L 13.285156 13.121094 L 13.875 13.121094 L 13.875 15.070312 Z M 14.796875 15.070312 " fill-opacity="1" fill-rule="nonzero"/><path fill="#fffaf3" d="M 14.796875 14.371094 C 14.796875 13.636719 15.398438 13.070312 16.140625 13.070312 C 16.882812 13.070312 17.484375 13.636719 17.484375 14.371094 C 17.484375 15.105469 16.882812 15.671875 16.140625 15.671875 C 15.398438 15.671875 14.796875 15.105469 14.796875 14.371094 Z M 16.894531 14.371094 C 16.894531 13.925781 16.5625 13.628906 16.140625 13.628906 C 15.71875 13.628906 15.386719 13.925781 15.386719 14.371094 C 15.386719 14.816406 15.71875 15.113281 16.140625 15.113281 C 16.5625 15.113281 16.894531 14.816406 16.894531 14.371094 Z M 16.894531 14.371094 " fill-opacity="1" fill-rule="nonzero"/><path fill="#fffaf3" d="M 20.371094 14.441406 C 20.371094 15.207031 19.824219 15.671875 19.097656 15.671875 C 18.289062 15.671875 17.703125 15.09375 17.703125 14.375 C 17.703125 13.648438 18.300781 13.070312 19.058594 13.070312 C 19.554688 13.070312 19.96875 13.304688 20.1875 13.640625 L 19.6875 13.921875 C 19.578125 13.757812 19.347656 13.628906 19.054688 13.628906 C 18.621094 13.628906 18.296875 13.9375 18.296875 14.378906 C 18.296875 14.804688 18.605469 15.113281 19.105469 15.113281 C 19.449219 15.113281 19.675781 14.96875 19.765625 14.726562 L 19.078125 14.726562 L 19.078125 14.226562 L 20.371094 14.226562 Z M 20.371094 14.441406 " fill-opacity="1" fill-rule="nonzero"/><path fill="#fffaf3" d="M 21.625 13.121094 L 22.21875 13.121094 L 22.21875 15.621094 L 21.625 15.621094 Z M 21.625 13.121094 " fill-opacity="1" fill-rule="nonzero"/><path fill="#fffaf3" d="M 24.691406 13.121094 L 24.691406 15.621094 L 24.246094 15.621094 L 23.25 14.265625 L 23.25 15.621094 L 22.660156 15.621094 L 22.660156 13.121094 L 23.101562 13.121094 L 24.097656 14.476562 L 24.097656 13.121094 Z M 24.691406 13.121094 " fill-opacity="1" fill-rule="nonzero"/><path fill="#191970" d="M 3.273438 16.367188 C 3.199219 16.335938 3.183594 16.28125 3.183594 16.207031 C 3.199219 15.488281 3.761719 14.851562 4.488281 14.738281 C 4.582031 14.722656 4.671875 14.714844 4.765625 14.714844 C 4.929688 14.710938 5.09375 14.710938 5.257812 14.714844 C 5.875 14.738281 6.332031 15.023438 6.628906 15.542969 C 6.746094 15.75 6.796875 15.976562 6.804688 16.210938 C 6.808594 16.28125 6.785156 16.335938 6.71875 16.367188 Z M 3.273438 16.367188 " fill-opacity="1" fill-rule="nonzero"/><path fill="#191970" d="M 5.082031 12.375 C 5.164062 12.390625 5.25 12.402344 5.328125 12.429688 C 5.800781 12.574219 6.117188 13.027344 6.078125 13.496094 C 6.039062 13.992188 5.667969 14.386719 5.167969 14.464844 C 5.019531 14.488281 4.875 14.484375 4.730469 14.449219 C 4.585938 14.410156 4.453125 14.351562 4.332031 14.261719 C 4.214844 14.171875 4.117188 14.066406 4.046875 13.941406 C 3.972656 13.8125 3.929688 13.675781 3.914062 13.53125 C 3.855469 12.960938 4.285156 12.441406 4.875 12.382812 C 4.886719 12.378906 4.894531 12.378906 4.90625 12.375 Z M 5.082031 12.375 " fill-opacity="1" fill-rule="nonzero"/><g clip-path="url(#7c8ddf7719)"><path fill="#191970" d="M 10.5 11.175781 L 25.46875 11.175781 L 25.46875 17.710938 L 10.5 17.710938 Z M 10.5 11.175781 " fill-opacity="1" fill-rule="nonzero"/></g><g fill="#ffffff" fill-opacity="1"><g transform="translate(10.499999, 15.596458)"><g><path d="M 1.15625 0.03125 C 0.863281 0.03125 0.640625 -0.0625 0.484375 -0.25 C 0.328125 -0.445312 0.25 -0.710938 0.25 -1.046875 L 0.25 -1.3125 C 0.25 -1.519531 0.28125 -1.703125 0.34375 -1.859375 C 0.414062 -2.023438 0.515625 -2.148438 0.640625 -2.234375 C 0.773438 -2.328125 0.9375 -2.375 1.125 -2.375 C 1.289062 -2.375 1.429688 -2.335938 1.546875 -2.265625 C 1.660156 -2.203125 1.742188 -2.113281 1.796875 -2 C 1.847656 -1.894531 1.863281 -1.78125 1.84375 -1.65625 L 1.546875 -1.578125 C 1.566406 -1.804688 1.539062 -1.976562 1.46875 -2.09375 C 1.394531 -2.207031 1.28125 -2.265625 1.125 -2.265625 C 0.945312 -2.265625 0.8125 -2.203125 0.71875 -2.078125 C 0.625 -1.960938 0.578125 -1.765625 0.578125 -1.484375 L 0.578125 -0.875 C 0.578125 -0.59375 0.625 -0.390625 0.71875 -0.265625 C 0.820312 -0.140625 0.96875 -0.078125 1.15625 -0.078125 C 1.238281 -0.078125 1.3125 -0.0859375 1.375 -0.109375 C 1.445312 -0.140625 1.503906 -0.1875 1.546875 -0.25 C 1.597656 -0.3125 1.628906 -0.398438 1.640625 -0.515625 L 1.859375 -0.46875 C 1.804688 -0.28125 1.71875 -0.148438 1.59375 -0.078125 C 1.46875 -0.00390625 1.320312 0.03125 1.15625 0.03125 Z M 1.15625 0.03125 "/></g></g></g><g fill="#ffffff" fill-opacity="1"><g transform="translate(12.526822, 15.596458)"><g><path d="M 1.703125 -0.890625 L 1.703125 -0.828125 C 1.703125 -0.566406 1.632812 -0.359375 1.5 -0.203125 C 1.375 -0.046875 1.191406 0.03125 0.953125 0.03125 C 0.722656 0.03125 0.539062 -0.046875 0.40625 -0.203125 C 0.28125 -0.359375 0.21875 -0.566406 0.21875 -0.828125 L 0.21875 -0.890625 C 0.21875 -1.148438 0.28125 -1.359375 0.40625 -1.515625 C 0.53125 -1.671875 0.710938 -1.75 0.953125 -1.75 C 1.191406 -1.75 1.375 -1.671875 1.5 -1.515625 C 1.632812 -1.359375 1.703125 -1.148438 1.703125 -0.890625 Z M 1.40625 -0.953125 C 1.40625 -1.191406 1.363281 -1.363281 1.28125 -1.46875 C 1.207031 -1.582031 1.097656 -1.640625 0.953125 -1.640625 C 0.816406 -1.640625 0.710938 -1.582031 0.640625 -1.46875 C 0.566406 -1.363281 0.53125 -1.191406 0.53125 -0.953125 L 0.53125 -0.75 C 0.53125 -0.507812 0.566406 -0.335938 0.640625 -0.234375 C 0.710938 -0.128906 0.816406 -0.078125 0.953125 -0.078125 C 1.097656 -0.078125 1.207031 -0.128906 1.28125 -0.234375 C 1.363281 -0.335938 1.40625 -0.507812 1.40625 -0.75 Z M 1.40625 -0.953125 "/></g></g></g><g fill="#ffffff" fill-opacity="1"><g transform="translate(14.453344, 15.596458)"><g><path d="M 2.046875 -0.09375 L 2.046875 0 L 1.234375 0 L 1.234375 -0.09375 L 1.421875 -0.109375 C 1.460938 -0.117188 1.484375 -0.128906 1.484375 -0.140625 C 1.492188 -0.148438 1.5 -0.195312 1.5 -0.28125 L 1.5 -1.140625 C 1.5 -1.304688 1.472656 -1.425781 1.421875 -1.5 C 1.367188 -1.570312 1.289062 -1.609375 1.1875 -1.609375 C 1.101562 -1.609375 1.015625 -1.582031 0.921875 -1.53125 C 0.835938 -1.488281 0.753906 -1.398438 0.671875 -1.265625 L 0.671875 -0.28125 C 0.671875 -0.195312 0.671875 -0.148438 0.671875 -0.140625 C 0.679688 -0.128906 0.707031 -0.117188 0.75 -0.109375 L 0.9375 -0.09375 L 0.9375 0 L 0.125 0 L 0.125 -0.09375 L 0.3125 -0.109375 C 0.34375 -0.117188 0.363281 -0.128906 0.375 -0.140625 C 0.382812 -0.148438 0.390625 -0.195312 0.390625 -0.28125 L 0.390625 -1.421875 C 0.390625 -1.503906 0.382812 -1.550781 0.375 -1.5625 C 0.363281 -1.582031 0.34375 -1.59375 0.3125 -1.59375 L 0.125 -1.609375 L 0.125 -1.703125 L 0.65625 -1.703125 L 0.65625 -1.421875 C 0.738281 -1.535156 0.832031 -1.617188 0.9375 -1.671875 C 1.039062 -1.722656 1.144531 -1.75 1.25 -1.75 C 1.414062 -1.75 1.546875 -1.691406 1.640625 -1.578125 C 1.734375 -1.472656 1.78125 -1.328125 1.78125 -1.140625 L 1.78125 -0.28125 C 1.78125 -0.195312 1.785156 -0.148438 1.796875 -0.140625 C 1.804688 -0.128906 1.828125 -0.117188 1.859375 -0.109375 Z M 2.046875 -0.09375 "/></g></g></g><g fill="#ffffff" fill-opacity="1"><g transform="translate(16.587389, 15.596458)"><g><path d="M 2.046875 -0.09375 L 2.046875 0 L 1.234375 0 L 1.234375 -0.09375 L 1.421875 -0.109375 C 1.460938 -0.117188 1.484375 -0.128906 1.484375 -0.140625 C 1.492188 -0.148438 1.5 -0.195312 1.5 -0.28125 L 1.5 -1.140625 C 1.5 -1.304688 1.472656 -1.425781 1.421875 -1.5 C 1.367188 -1.570312 1.289062 -1.609375 1.1875 -1.609375 C 1.101562 -1.609375 1.015625 -1.582031 0.921875 -1.53125 C 0.835938 -1.488281 0.753906 -1.398438 0.671875 -1.265625 L 0.671875 -0.28125 C 0.671875 -0.195312 0.671875 -0.148438 0.671875 -0.140625 C 0.679688 -0.128906 0.707031 -0.117188 0.75 -0.109375 L 0.9375 -0.09375 L 0.9375 0 L 0.125 0 L 0.125 -0.09375 L 0.3125 -0.109375 C 0.34375 -0.117188 0.363281 -0.128906 0.375 -0.140625 C 0.382812 -0.148438 0.390625 -0.195312 0.390625 -0.28125 L 0.390625 -1.421875 C 0.390625 -1.503906 0.382812 -1.550781 0.375 -1.5625 C 0.363281 -1.582031 0.34375 -1.59375 0.3125 -1.59375 L 0.125 -1.609375 L 0.125 -1.703125 L 0.65625 -1.703125 L 0.65625 -1.421875 C 0.738281 -1.535156 0.832031 -1.617188 0.9375 -1.671875 C 1.039062 -1.722656 1.144531 -1.75 1.25 -1.75 C 1.414062 -1.75 1.546875 -1.691406 1.640625 -1.578125 C 1.734375 -1.472656 1.78125 -1.328125 1.78125 -1.140625 L 1.78125 -0.28125 C 1.78125 -0.195312 1.785156 -0.148438 1.796875 -0.140625 C 1.804688 -0.128906 1.828125 -0.117188 1.859375 -0.109375 Z M 2.046875 -0.09375 "/></g></g></g><g fill="#ffffff" fill-opacity="1"><g transform="translate(18.721434, 15.596458)"><g><path d="M 1.59375 -0.390625 C 1.550781 -0.234375 1.472656 -0.125 1.359375 -0.0625 C 1.242188 0 1.117188 0.03125 0.984375 0.03125 C 0.722656 0.03125 0.53125 -0.046875 0.40625 -0.203125 C 0.28125 -0.359375 0.21875 -0.566406 0.21875 -0.828125 L 0.21875 -0.890625 C 0.21875 -1.148438 0.273438 -1.359375 0.390625 -1.515625 C 0.515625 -1.671875 0.695312 -1.75 0.9375 -1.75 C 1.0625 -1.75 1.171875 -1.722656 1.265625 -1.671875 C 1.367188 -1.617188 1.453125 -1.539062 1.515625 -1.4375 C 1.578125 -1.34375 1.609375 -1.222656 1.609375 -1.078125 C 1.609375 -1.003906 1.601562 -0.929688 1.59375 -0.859375 L 0.53125 -0.859375 L 0.53125 -0.75 C 0.53125 -0.507812 0.566406 -0.335938 0.640625 -0.234375 C 0.710938 -0.128906 0.832031 -0.078125 1 -0.078125 C 1.101562 -0.078125 1.191406 -0.101562 1.265625 -0.15625 C 1.335938 -0.207031 1.382812 -0.304688 1.40625 -0.453125 Z M 0.9375 -1.640625 C 0.800781 -1.640625 0.695312 -1.585938 0.625 -1.484375 C 0.5625 -1.378906 0.53125 -1.207031 0.53125 -0.96875 L 1.3125 -0.96875 L 1.3125 -0.984375 C 1.3125 -1.003906 1.3125 -1.03125 1.3125 -1.0625 C 1.3125 -1.09375 1.3125 -1.117188 1.3125 -1.140625 C 1.3125 -1.316406 1.273438 -1.441406 1.203125 -1.515625 C 1.140625 -1.597656 1.050781 -1.640625 0.9375 -1.640625 Z M 0.9375 -1.640625 "/></g></g></g><g fill="#ffffff" fill-opacity="1"><g transform="translate(20.537276, 15.596458)"><g><path d="M 0.6875 -0.09375 L 0.6875 0 L 0.03125 0 L 0.03125 -0.09375 L 0.203125 -0.109375 C 0.234375 -0.109375 0.253906 -0.109375 0.265625 -0.109375 C 0.273438 -0.117188 0.285156 -0.132812 0.296875 -0.15625 C 0.316406 -0.175781 0.34375 -0.210938 0.375 -0.265625 L 0.78125 -0.828125 L 0.390625 -1.453125 C 0.359375 -1.492188 0.332031 -1.523438 0.3125 -1.546875 C 0.300781 -1.566406 0.289062 -1.578125 0.28125 -1.578125 C 0.269531 -1.585938 0.253906 -1.59375 0.234375 -1.59375 L 0.046875 -1.609375 L 0.046875 -1.703125 L 0.859375 -1.703125 L 0.859375 -1.609375 L 0.6875 -1.59375 C 0.644531 -1.59375 0.625 -1.582031 0.625 -1.5625 C 0.625 -1.550781 0.648438 -1.515625 0.703125 -1.453125 L 0.96875 -1.015625 L 1.25 -1.453125 C 1.300781 -1.515625 1.328125 -1.550781 1.328125 -1.5625 C 1.328125 -1.582031 1.304688 -1.59375 1.265625 -1.59375 L 1.09375 -1.609375 L 1.09375 -1.703125 L 1.75 -1.703125 L 1.75 -1.609375 L 1.578125 -1.59375 C 1.554688 -1.59375 1.535156 -1.585938 1.515625 -1.578125 C 1.503906 -1.578125 1.488281 -1.566406 1.46875 -1.546875 C 1.457031 -1.523438 1.4375 -1.492188 1.40625 -1.453125 L 1.03125 -0.90625 L 1.4375 -0.265625 C 1.46875 -0.210938 1.488281 -0.175781 1.5 -0.15625 C 1.507812 -0.132812 1.519531 -0.117188 1.53125 -0.109375 C 1.550781 -0.109375 1.570312 -0.109375 1.59375 -0.109375 L 1.78125 -0.09375 L 1.78125 0 L 0.96875 0 L 0.96875 -0.09375 L 1.140625 -0.109375 C 1.171875 -0.117188 1.1875 -0.128906 1.1875 -0.140625 C 1.1875 -0.148438 1.164062 -0.191406 1.125 -0.265625 L 0.84375 -0.71875 L 0.53125 -0.265625 C 0.476562 -0.191406 0.453125 -0.148438 0.453125 -0.140625 C 0.453125 -0.128906 0.472656 -0.117188 0.515625 -0.109375 Z M 0.6875 -0.09375 "/></g></g></g><g fill="#ffffff" fill-opacity="1"><g transform="translate(22.3462, 15.596458)"><g><path d="M 0.53125 -2.09375 C 0.46875 -2.09375 0.414062 -2.109375 0.375 -2.140625 C 0.34375 -2.179688 0.328125 -2.234375 0.328125 -2.296875 C 0.328125 -2.347656 0.34375 -2.390625 0.375 -2.421875 C 0.414062 -2.453125 0.46875 -2.46875 0.53125 -2.46875 C 0.582031 -2.46875 0.625 -2.453125 0.65625 -2.421875 C 0.695312 -2.390625 0.71875 -2.347656 0.71875 -2.296875 C 0.71875 -2.234375 0.695312 -2.179688 0.65625 -2.140625 C 0.625 -2.109375 0.582031 -2.09375 0.53125 -2.09375 Z M 0.125 -1.609375 L 0.125 -1.703125 L 0.671875 -1.703125 L 0.671875 -0.28125 C 0.671875 -0.195312 0.671875 -0.148438 0.671875 -0.140625 C 0.679688 -0.128906 0.707031 -0.117188 0.75 -0.109375 L 0.9375 -0.09375 L 0.9375 0 L 0.125 0 L 0.125 -0.09375 L 0.3125 -0.109375 C 0.34375 -0.117188 0.363281 -0.128906 0.375 -0.140625 C 0.382812 -0.148438 0.390625 -0.195312 0.390625 -0.28125 L 0.390625 -1.421875 C 0.390625 -1.503906 0.382812 -1.550781 0.375 -1.5625 C 0.363281 -1.582031 0.34375 -1.59375 0.3125 -1.59375 Z M 0.125 -1.609375 "/></g></g></g><g fill="#ffffff" fill-opacity="1"><g transform="translate(23.380365, 15.596458)"><g><path d="M 1.703125 -0.890625 L 1.703125 -0.828125 C 1.703125 -0.566406 1.632812 -0.359375 1.5 -0.203125 C 1.375 -0.046875 1.191406 0.03125 0.953125 0.03125 C 0.722656 0.03125 0.539062 -0.046875 0.40625 -0.203125 C 0.28125 -0.359375 0.21875 -0.566406 0.21875 -0.828125 L 0.21875 -0.890625 C 0.21875 -1.148438 0.28125 -1.359375 0.40625 -1.515625 C 0.53125 -1.671875 0.710938 -1.75 0.953125 -1.75 C 1.191406 -1.75 1.375 -1.671875 1.5 -1.515625 C 1.632812 -1.359375 1.703125 -1.148438 1.703125 -0.890625 Z M 1.40625 -0.953125 C 1.40625 -1.191406 1.363281 -1.363281 1.28125 -1.46875 C 1.207031 -1.582031 1.097656 -1.640625 0.953125 -1.640625 C 0.816406 -1.640625 0.710938 -1.582031 0.640625 -1.46875 C 0.566406 -1.363281 0.53125 -1.191406 0.53125 -0.953125 L 0.53125 -0.75 C 0.53125 -0.507812 0.566406 -0.335938 0.640625 -0.234375 C 0.710938 -0.128906 0.816406 -0.078125 0.953125 -0.078125 C 1.097656 -0.078125 1.207031 -0.128906 1.28125 -0.234375 C 1.363281 -0.335938 1.40625 -0.507812 1.40625 -0.75 Z M 1.40625 -0.953125 "/></g></g></g><g fill="#ffffff" fill-opacity="1"><g transform="translate(25.306887, 15.596458)"><g><path d="M 2.046875 -0.09375 L 2.046875 0 L 1.234375 0 L 1.234375 -0.09375 L 1.421875 -0.109375 C 1.460938 -0.117188 1.484375 -0.128906 1.484375 -0.140625 C 1.492188 -0.148438 1.5 -0.195312 1.5 -0.28125 L 1.5 -1.140625 C 1.5 -1.304688 1.472656 -1.425781 1.421875 -1.5 C 1.367188 -1.570312 1.289062 -1.609375 1.1875 -1.609375 C 1.101562 -1.609375 1.015625 -1.582031 0.921875 -1.53125 C 0.835938 -1.488281 0.753906 -1.398438 0.671875 -1.265625 L 0.671875 -0.28125 C 0.671875 -0.195312 0.671875 -0.148438 0.671875 -0.140625 C 0.679688 -0.128906 0.707031 -0.117188 0.75 -0.109375 L 0.9375 -0.09375 L 0.9375 0 L 0.125 0 L 0.125 -0.09375 L 0.3125 -0.109375 C 0.34375 -0.117188 0.363281 -0.128906 0.375 -0.140625 C 0.382812 -0.148438 0.390625 -0.195312 0.390625 -0.28125 L 0.390625 -1.421875 C 0.390625 -1.503906 0.382812 -1.550781 0.375 -1.5625 C 0.363281 -1.582031 0.34375 -1.59375 0.3125 -1.59375 L 0.125 -1.609375 L 0.125 -1.703125 L 0.65625 -1.703125 L 0.65625 -1.421875 C 0.738281 -1.535156 0.832031 -1.617188 0.9375 -1.671875 C 1.039062 -1.722656 1.144531 -1.75 1.25 -1.75 C 1.414062 -1.75 1.546875 -1.691406 1.640625 -1.578125 C 1.734375 -1.472656 1.78125 -1.328125 1.78125 -1.140625 L 1.78125 -0.28125 C 1.78125 -0.195312 1.785156 -0.148438 1.796875 -0.140625 C 1.804688 -0.128906 1.828125 -0.117188 1.859375 -0.109375 Z M 2.046875 -0.09375 "/></g></g></g></svg>