<svg xmlns="http://www.w3.org/2000/svg" xmlns:xlink="http://www.w3.org/1999/xlink" width="40" zoomAndPan="magnify" viewBox="0 0 30 30.000001" height="40" preserveAspectRatio="xMidYMid meet" version="1.0"><defs><g/><clipPath id="fa94c1e3bf"><path d="M 4 10.015625 L 29.515625 10.015625 L 29.515625 18 L 4 18 Z M 4 10.015625 " clip-rule="nonzero"/></clipPath><clipPath id="44d6024065"><path d="M 0.484375 10.015625 L 10 10.015625 L 10 18.726562 L 0.484375 18.726562 Z M 0.484375 10.015625 " clip-rule="nonzero"/></clipPath><clipPath id="e9399c9019"><path d="M 1 10.015625 L 9 10.015625 L 9 18.726562 L 1 18.726562 Z M 1 10.015625 " clip-rule="nonzero"/></clipPath><clipPath id="777e027801"><path d="M 10.5 11.175781 L 25.453125 11.175781 L 25.453125 17.710938 L 10.5 17.710938 Z M 10.5 11.175781 " clip-rule="nonzero"/></clipPath></defs><g clip-path="url(#fa94c1e3bf)"><path fill="#191970" d="M 4.527344 17.789062 L 25.972656 17.789062 C 27.921875 17.789062 29.5 16.257812 29.5 14.371094 C 29.5 12.484375 27.921875 10.953125 25.972656 10.953125 L 4.527344 10.953125 Z M 4.527344 17.789062 " fill-opacity="1" fill-rule="nonzero"/></g><g clip-path="url(#44d6024065)"><path fill="#ffffff" d="M 9.492188 14.371094 C 9.492188 14.65625 9.460938 14.941406 9.40625 15.21875 C 9.347656 15.5 9.261719 15.773438 9.148438 16.039062 C 9.035156 16.300781 8.898438 16.550781 8.734375 16.789062 C 8.570312 17.027344 8.382812 17.246094 8.175781 17.449219 C 7.964844 17.652344 7.738281 17.832031 7.492188 17.992188 C 7.246094 18.152344 6.988281 18.285156 6.714844 18.394531 C 6.441406 18.503906 6.160156 18.585938 5.871094 18.640625 C 5.582031 18.699219 5.289062 18.726562 4.996094 18.726562 C 4.699219 18.726562 4.40625 18.699219 4.117188 18.640625 C 3.828125 18.585938 3.546875 18.503906 3.273438 18.394531 C 3 18.285156 2.742188 18.152344 2.496094 17.992188 C 2.25 17.832031 2.023438 17.652344 1.816406 17.449219 C 1.605469 17.246094 1.421875 17.027344 1.257812 16.789062 C 1.09375 16.550781 0.953125 16.300781 0.839844 16.039062 C 0.726562 15.773438 0.640625 15.5 0.585938 15.21875 C 0.527344 14.941406 0.5 14.65625 0.5 14.371094 C 0.5 14.085938 0.527344 13.800781 0.585938 13.519531 C 0.640625 13.242188 0.726562 12.96875 0.839844 12.703125 C 0.953125 12.441406 1.09375 12.1875 1.257812 11.953125 C 1.421875 11.714844 1.605469 11.492188 1.816406 11.292969 C 2.023438 11.089844 2.25 10.910156 2.496094 10.75 C 2.742188 10.589844 3 10.457031 3.273438 10.347656 C 3.546875 10.238281 3.828125 10.15625 4.117188 10.101562 C 4.40625 10.042969 4.699219 10.015625 4.996094 10.015625 C 5.289062 10.015625 5.582031 10.042969 5.871094 10.101562 C 6.160156 10.15625 6.441406 10.238281 6.714844 10.347656 C 6.988281 10.457031 7.246094 10.589844 7.492188 10.75 C 7.738281 10.910156 7.964844 11.089844 8.175781 11.292969 C 8.382812 11.492188 8.570312 11.714844 8.734375 11.953125 C 8.898438 12.1875 9.035156 12.441406 9.148438 12.703125 C 9.261719 12.96875 9.347656 13.242188 9.40625 13.519531 C 9.460938 13.800781 9.492188 14.085938 9.492188 14.371094 Z M 9.492188 14.371094 " fill-opacity="1" fill-rule="nonzero"/></g><g clip-path="url(#e9399c9019)"><path fill="#191970" d="M 4.996094 18.222656 C 2.800781 18.222656 1.019531 16.496094 1.019531 14.371094 C 1.019531 12.246094 2.800781 10.519531 4.996094 10.519531 C 7.1875 10.519531 8.972656 12.246094 8.972656 14.371094 C 8.972656 16.496094 7.1875 18.222656 4.996094 18.222656 Z M 4.996094 10.628906 C 2.863281 10.628906 1.132812 12.308594 1.132812 14.371094 C 1.132812 16.433594 2.863281 18.113281 4.996094 18.113281 C 7.125 18.113281 8.859375 16.433594 8.859375 14.371094 C 8.859375 12.308594 7.125 10.628906 4.996094 10.628906 Z M 4.996094 10.628906 " fill-opacity="1" fill-rule="nonzero"/></g><path fill="#fffaf3" d="M 14.796875 15.070312 L 14.796875 15.621094 L 13.285156 15.621094 L 13.285156 13.121094 L 13.875 13.121094 L 13.875 15.070312 Z M 14.796875 15.070312 " fill-opacity="1" fill-rule="nonzero"/><path fill="#fffaf3" d="M 14.796875 14.371094 C 14.796875 13.636719 15.398438 13.070312 16.140625 13.070312 C 16.882812 13.070312 17.484375 13.636719 17.484375 14.371094 C 17.484375 15.105469 16.882812 15.671875 16.140625 15.671875 C 15.398438 15.671875 14.796875 15.105469 14.796875 14.371094 Z M 16.894531 14.371094 C 16.894531 13.925781 16.5625 13.628906 16.140625 13.628906 C 15.71875 13.628906 15.386719 13.925781 15.386719 14.371094 C 15.386719 14.816406 15.71875 15.113281 16.140625 15.113281 C 16.5625 15.113281 16.894531 14.816406 16.894531 14.371094 Z M 16.894531 14.371094 " fill-opacity="1" fill-rule="nonzero"/><path fill="#fffaf3" d="M 20.371094 14.441406 C 20.371094 15.207031 19.824219 15.671875 19.097656 15.671875 C 18.289062 15.671875 17.703125 15.09375 17.703125 14.375 C 17.703125 13.648438 18.300781 13.070312 19.058594 13.070312 C 19.554688 13.070312 19.96875 13.304688 20.1875 13.640625 L 19.6875 13.921875 C 19.578125 13.757812 19.347656 13.628906 19.054688 13.628906 C 18.621094 13.628906 18.296875 13.9375 18.296875 14.378906 C 18.296875 14.804688 18.605469 15.113281 19.105469 15.113281 C 19.449219 15.113281 19.675781 14.96875 19.765625 14.726562 L 19.078125 14.726562 L 19.078125 14.226562 L 20.371094 14.226562 Z M 20.371094 14.441406 " fill-opacity="1" fill-rule="nonzero"/><path fill="#fffaf3" d="M 21.625 13.121094 L 22.21875 13.121094 L 22.21875 15.621094 L 21.625 15.621094 Z M 21.625 13.121094 " fill-opacity="1" fill-rule="nonzero"/><path fill="#fffaf3" d="M 24.691406 13.121094 L 24.691406 15.621094 L 24.246094 15.621094 L 23.25 14.265625 L 23.25 15.621094 L 22.660156 15.621094 L 22.660156 13.121094 L 23.101562 13.121094 L 24.097656 14.476562 L 24.097656 13.121094 Z M 24.691406 13.121094 " fill-opacity="1" fill-rule="nonzero"/><path fill="#191970" d="M 3.273438 16.367188 C 3.199219 16.335938 3.183594 16.28125 3.183594 16.207031 C 3.199219 15.488281 3.761719 14.851562 4.488281 14.738281 C 4.582031 14.722656 4.671875 14.714844 4.765625 14.714844 C 4.929688 14.710938 5.09375 14.710938 5.257812 14.714844 C 5.875 14.738281 6.332031 15.023438 6.628906 15.542969 C 6.746094 15.75 6.796875 15.976562 6.804688 16.210938 C 6.808594 16.28125 6.785156 16.335938 6.71875 16.367188 Z M 3.273438 16.367188 " fill-opacity="1" fill-rule="nonzero"/><path fill="#191970" d="M 5.082031 12.375 C 5.164062 12.390625 5.25 12.402344 5.328125 12.429688 C 5.800781 12.574219 6.117188 13.027344 6.078125 13.496094 C 6.039062 13.992188 5.667969 14.386719 5.167969 14.464844 C 5.019531 14.488281 4.875 14.484375 4.730469 14.449219 C 4.585938 14.410156 4.453125 14.351562 4.332031 14.261719 C 4.214844 14.171875 4.117188 14.066406 4.046875 13.941406 C 3.972656 13.8125 3.929688 13.675781 3.914062 13.53125 C 3.855469 12.960938 4.285156 12.441406 4.875 12.382812 C 4.886719 12.378906 4.894531 12.378906 4.90625 12.375 Z M 5.082031 12.375 " fill-opacity="1" fill-rule="nonzero"/><g clip-path="url(#777e027801)"><path fill="#191970" d="M 10.5 11.175781 L 25.46875 11.175781 L 25.46875 17.710938 L 10.5 17.710938 Z M 10.5 11.175781 " fill-opacity="1" fill-rule="nonzero"/></g><g fill="#ffffff" fill-opacity="1"><g transform="translate(9.460156, 15.548386)"><g><path d="M 0.15625 -2.015625 L 0.15625 -2.109375 L 1.03125 -2.109375 C 1.28125 -2.109375 1.472656 -2.023438 1.609375 -1.859375 C 1.742188 -1.691406 1.8125 -1.460938 1.8125 -1.171875 L 1.8125 -0.9375 C 1.8125 -0.632812 1.742188 -0.398438 1.609375 -0.234375 C 1.472656 -0.078125 1.28125 0 1.03125 0 L 0.15625 0 L 0.15625 -0.078125 L 0.3125 -0.09375 C 0.351562 -0.101562 0.375 -0.113281 0.375 -0.125 C 0.382812 -0.132812 0.390625 -0.175781 0.390625 -0.25 L 0.390625 -1.859375 C 0.390625 -1.929688 0.382812 -1.972656 0.375 -1.984375 C 0.375 -1.992188 0.351562 -2 0.3125 -2 Z M 1.015625 -2 L 0.65625 -2 L 0.65625 -0.09375 L 1.015625 -0.09375 C 1.128906 -0.09375 1.222656 -0.113281 1.296875 -0.15625 C 1.367188 -0.195312 1.421875 -0.265625 1.453125 -0.359375 C 1.492188 -0.460938 1.515625 -0.601562 1.515625 -0.78125 L 1.515625 -1.328125 C 1.515625 -1.492188 1.492188 -1.625 1.453125 -1.71875 C 1.421875 -1.820312 1.367188 -1.894531 1.296875 -1.9375 C 1.222656 -1.976562 1.128906 -2 1.015625 -2 Z M 1.015625 -2 "/></g></g></g><g fill="#ffffff" fill-opacity="1"><g transform="translate(11.497841, 15.548386)"><g><path d="M 1.421875 -0.359375 C 1.390625 -0.210938 1.320312 -0.109375 1.21875 -0.046875 C 1.113281 0.00390625 1 0.03125 0.875 0.03125 C 0.644531 0.03125 0.472656 -0.0351562 0.359375 -0.171875 C 0.242188 -0.316406 0.1875 -0.503906 0.1875 -0.734375 L 0.1875 -0.796875 C 0.1875 -1.023438 0.238281 -1.207031 0.34375 -1.34375 C 0.457031 -1.488281 0.617188 -1.5625 0.828125 -1.5625 C 0.941406 -1.5625 1.046875 -1.535156 1.140625 -1.484375 C 1.234375 -1.441406 1.304688 -1.375 1.359375 -1.28125 C 1.410156 -1.195312 1.4375 -1.09375 1.4375 -0.96875 C 1.4375 -0.90625 1.429688 -0.835938 1.421875 -0.765625 L 0.46875 -0.765625 L 0.46875 -0.671875 C 0.46875 -0.453125 0.5 -0.296875 0.5625 -0.203125 C 0.632812 -0.109375 0.75 -0.0625 0.90625 -0.0625 C 1 -0.0625 1.078125 -0.0859375 1.140625 -0.140625 C 1.203125 -0.191406 1.242188 -0.28125 1.265625 -0.40625 Z M 0.828125 -1.46875 C 0.710938 -1.46875 0.625 -1.421875 0.5625 -1.328125 C 0.5 -1.234375 0.46875 -1.078125 0.46875 -0.859375 L 1.171875 -0.859375 L 1.171875 -0.875 C 1.171875 -0.90625 1.171875 -0.929688 1.171875 -0.953125 C 1.179688 -0.984375 1.1875 -1.007812 1.1875 -1.03125 C 1.1875 -1.175781 1.148438 -1.285156 1.078125 -1.359375 C 1.015625 -1.429688 0.929688 -1.46875 0.828125 -1.46875 Z M 0.828125 -1.796875 L 0.765625 -1.84375 C 0.816406 -1.914062 0.859375 -1.984375 0.890625 -2.046875 C 0.921875 -2.109375 0.945312 -2.191406 0.96875 -2.296875 L 1.265625 -2.296875 C 1.203125 -2.191406 1.132812 -2.097656 1.0625 -2.015625 C 1 -1.941406 0.921875 -1.867188 0.828125 -1.796875 Z M 0.828125 -1.796875 "/></g></g></g><g fill="#ffffff" fill-opacity="1"><g transform="translate(13.123655, 15.548386)"><g><path d="M 0.828125 -1.46875 C 0.710938 -1.46875 0.625 -1.421875 0.5625 -1.328125 C 0.5 -1.234375 0.46875 -1.078125 0.46875 -0.859375 L 0.46875 -0.671875 C 0.46875 -0.453125 0.5 -0.296875 0.5625 -0.203125 C 0.625 -0.109375 0.726562 -0.0625 0.875 -0.0625 C 0.96875 -0.0625 1.046875 -0.0859375 1.109375 -0.140625 C 1.171875 -0.191406 1.210938 -0.28125 1.234375 -0.40625 L 1.390625 -0.359375 C 1.359375 -0.210938 1.289062 -0.109375 1.1875 -0.046875 C 1.09375 0.00390625 0.984375 0.03125 0.859375 0.03125 C 0.640625 0.03125 0.472656 -0.0351562 0.359375 -0.171875 C 0.242188 -0.316406 0.1875 -0.503906 0.1875 -0.734375 L 0.1875 -0.796875 C 0.1875 -1.023438 0.238281 -1.207031 0.34375 -1.34375 C 0.457031 -1.488281 0.617188 -1.5625 0.828125 -1.5625 C 0.960938 -1.5625 1.070312 -1.535156 1.15625 -1.484375 C 1.25 -1.429688 1.3125 -1.359375 1.34375 -1.265625 C 1.382812 -1.179688 1.394531 -1.085938 1.375 -0.984375 L 1.140625 -0.953125 C 1.160156 -1.117188 1.144531 -1.242188 1.09375 -1.328125 C 1.039062 -1.421875 0.953125 -1.46875 0.828125 -1.46875 Z M 0.828125 -1.46875 "/></g></g></g><g fill="#ffffff" fill-opacity="1"><g transform="translate(14.678243, 15.548386)"><g><path d="M 1.53125 -0.796875 L 1.53125 -0.734375 C 1.53125 -0.503906 1.472656 -0.316406 1.359375 -0.171875 C 1.242188 -0.0351562 1.078125 0.03125 0.859375 0.03125 C 0.648438 0.03125 0.484375 -0.0351562 0.359375 -0.171875 C 0.242188 -0.316406 0.1875 -0.503906 0.1875 -0.734375 L 0.1875 -0.796875 C 0.1875 -1.023438 0.242188 -1.207031 0.359375 -1.34375 C 0.472656 -1.488281 0.640625 -1.5625 0.859375 -1.5625 C 1.078125 -1.5625 1.242188 -1.488281 1.359375 -1.34375 C 1.472656 -1.207031 1.53125 -1.023438 1.53125 -0.796875 Z M 1.25 -0.859375 C 1.25 -1.078125 1.210938 -1.234375 1.140625 -1.328125 C 1.078125 -1.421875 0.984375 -1.46875 0.859375 -1.46875 C 0.734375 -1.46875 0.632812 -1.421875 0.5625 -1.328125 C 0.5 -1.234375 0.46875 -1.078125 0.46875 -0.859375 L 0.46875 -0.671875 C 0.46875 -0.453125 0.5 -0.296875 0.5625 -0.203125 C 0.632812 -0.109375 0.734375 -0.0625 0.859375 -0.0625 C 0.984375 -0.0625 1.078125 -0.109375 1.140625 -0.203125 C 1.210938 -0.296875 1.25 -0.453125 1.25 -0.671875 Z M 1.25 -0.859375 "/></g></g></g><g fill="#ffffff" fill-opacity="1"><g transform="translate(16.403154, 15.548386)"><g><path d="M 1.84375 -0.078125 L 1.84375 0 L 1.109375 0 L 1.109375 -0.078125 L 1.28125 -0.09375 C 1.3125 -0.101562 1.328125 -0.113281 1.328125 -0.125 C 1.335938 -0.132812 1.34375 -0.175781 1.34375 -0.25 L 1.34375 -1.015625 C 1.34375 -1.171875 1.316406 -1.28125 1.265625 -1.34375 C 1.222656 -1.40625 1.15625 -1.4375 1.0625 -1.4375 C 0.988281 -1.4375 0.910156 -1.414062 0.828125 -1.375 C 0.742188 -1.332031 0.664062 -1.253906 0.59375 -1.140625 L 0.59375 -0.25 C 0.59375 -0.175781 0.597656 -0.132812 0.609375 -0.125 C 0.617188 -0.113281 0.640625 -0.101562 0.671875 -0.09375 L 0.84375 -0.078125 L 0.84375 0 L 0.109375 0 L 0.109375 -0.078125 L 0.28125 -0.09375 C 0.3125 -0.101562 0.328125 -0.113281 0.328125 -0.125 C 0.335938 -0.132812 0.34375 -0.175781 0.34375 -0.25 L 0.34375 -1.28125 C 0.34375 -1.351562 0.335938 -1.394531 0.328125 -1.40625 C 0.328125 -1.414062 0.3125 -1.425781 0.28125 -1.4375 L 0.109375 -1.453125 L 0.109375 -1.53125 L 0.578125 -1.53125 L 0.578125 -1.28125 C 0.660156 -1.375 0.75 -1.441406 0.84375 -1.484375 C 0.9375 -1.535156 1.03125 -1.5625 1.125 -1.5625 C 1.269531 -1.5625 1.382812 -1.515625 1.46875 -1.421875 C 1.550781 -1.328125 1.59375 -1.195312 1.59375 -1.03125 L 1.59375 -0.25 C 1.59375 -0.175781 1.597656 -0.132812 1.609375 -0.125 C 1.617188 -0.113281 1.640625 -0.101562 1.671875 -0.09375 Z M 1.84375 -0.078125 "/></g></g></g><g fill="#ffffff" fill-opacity="1"><g transform="translate(18.313871, 15.548386)"><g><path d="M 1.84375 -0.078125 L 1.84375 0 L 1.109375 0 L 1.109375 -0.078125 L 1.28125 -0.09375 C 1.3125 -0.101562 1.328125 -0.113281 1.328125 -0.125 C 1.335938 -0.132812 1.34375 -0.175781 1.34375 -0.25 L 1.34375 -1.015625 C 1.34375 -1.171875 1.316406 -1.28125 1.265625 -1.34375 C 1.222656 -1.40625 1.15625 -1.4375 1.0625 -1.4375 C 0.988281 -1.4375 0.910156 -1.414062 0.828125 -1.375 C 0.742188 -1.332031 0.664062 -1.253906 0.59375 -1.140625 L 0.59375 -0.25 C 0.59375 -0.175781 0.597656 -0.132812 0.609375 -0.125 C 0.617188 -0.113281 0.640625 -0.101562 0.671875 -0.09375 L 0.84375 -0.078125 L 0.84375 0 L 0.109375 0 L 0.109375 -0.078125 L 0.28125 -0.09375 C 0.3125 -0.101562 0.328125 -0.113281 0.328125 -0.125 C 0.335938 -0.132812 0.34375 -0.175781 0.34375 -0.25 L 0.34375 -1.28125 C 0.34375 -1.351562 0.335938 -1.394531 0.328125 -1.40625 C 0.328125 -1.414062 0.3125 -1.425781 0.28125 -1.4375 L 0.109375 -1.453125 L 0.109375 -1.53125 L 0.578125 -1.53125 L 0.578125 -1.28125 C 0.660156 -1.375 0.75 -1.441406 0.84375 -1.484375 C 0.9375 -1.535156 1.03125 -1.5625 1.125 -1.5625 C 1.269531 -1.5625 1.382812 -1.515625 1.46875 -1.421875 C 1.550781 -1.328125 1.59375 -1.195312 1.59375 -1.03125 L 1.59375 -0.25 C 1.59375 -0.175781 1.597656 -0.132812 1.609375 -0.125 C 1.617188 -0.113281 1.640625 -0.101562 1.671875 -0.09375 Z M 1.84375 -0.078125 "/></g></g></g><g fill="#ffffff" fill-opacity="1"><g transform="translate(20.224588, 15.548386)"><g><path d="M 1.421875 -0.359375 C 1.390625 -0.210938 1.320312 -0.109375 1.21875 -0.046875 C 1.113281 0.00390625 1 0.03125 0.875 0.03125 C 0.644531 0.03125 0.472656 -0.0351562 0.359375 -0.171875 C 0.242188 -0.316406 0.1875 -0.503906 0.1875 -0.734375 L 0.1875 -0.796875 C 0.1875 -1.023438 0.238281 -1.207031 0.34375 -1.34375 C 0.457031 -1.488281 0.617188 -1.5625 0.828125 -1.5625 C 0.941406 -1.5625 1.046875 -1.535156 1.140625 -1.484375 C 1.234375 -1.441406 1.304688 -1.375 1.359375 -1.28125 C 1.410156 -1.195312 1.4375 -1.09375 1.4375 -0.96875 C 1.4375 -0.90625 1.429688 -0.835938 1.421875 -0.765625 L 0.46875 -0.765625 L 0.46875 -0.671875 C 0.46875 -0.453125 0.5 -0.296875 0.5625 -0.203125 C 0.632812 -0.109375 0.75 -0.0625 0.90625 -0.0625 C 1 -0.0625 1.078125 -0.0859375 1.140625 -0.140625 C 1.203125 -0.191406 1.242188 -0.28125 1.265625 -0.40625 Z M 0.828125 -1.46875 C 0.710938 -1.46875 0.625 -1.421875 0.5625 -1.328125 C 0.5 -1.234375 0.46875 -1.078125 0.46875 -0.859375 L 1.171875 -0.859375 L 1.171875 -0.875 C 1.171875 -0.90625 1.171875 -0.929688 1.171875 -0.953125 C 1.179688 -0.984375 1.1875 -1.007812 1.1875 -1.03125 C 1.1875 -1.175781 1.148438 -1.285156 1.078125 -1.359375 C 1.015625 -1.429688 0.929688 -1.46875 0.828125 -1.46875 Z M 0.828125 -1.46875 "/></g></g></g><g fill="#ffffff" fill-opacity="1"><g transform="translate(21.850402, 15.548386)"><g><path d="M 0.609375 -0.078125 L 0.609375 0 L 0.03125 0 L 0.03125 -0.078125 L 0.1875 -0.09375 C 0.207031 -0.101562 0.222656 -0.109375 0.234375 -0.109375 C 0.242188 -0.117188 0.253906 -0.128906 0.265625 -0.140625 C 0.285156 -0.160156 0.3125 -0.191406 0.34375 -0.234375 L 0.6875 -0.75 L 0.34375 -1.296875 C 0.320312 -1.335938 0.300781 -1.363281 0.28125 -1.375 C 0.269531 -1.394531 0.257812 -1.40625 0.25 -1.40625 C 0.238281 -1.414062 0.222656 -1.425781 0.203125 -1.4375 L 0.046875 -1.453125 L 0.046875 -1.53125 L 0.765625 -1.53125 L 0.765625 -1.453125 L 0.609375 -1.4375 C 0.578125 -1.425781 0.5625 -1.414062 0.5625 -1.40625 C 0.5625 -1.394531 0.582031 -1.359375 0.625 -1.296875 L 0.859375 -0.921875 L 1.125 -1.296875 C 1.164062 -1.359375 1.1875 -1.394531 1.1875 -1.40625 C 1.1875 -1.414062 1.171875 -1.425781 1.140625 -1.4375 L 0.984375 -1.453125 L 0.984375 -1.53125 L 1.5625 -1.53125 L 1.5625 -1.453125 L 1.40625 -1.4375 C 1.382812 -1.425781 1.367188 -1.414062 1.359375 -1.40625 C 1.347656 -1.40625 1.332031 -1.394531 1.3125 -1.375 C 1.300781 -1.363281 1.285156 -1.335938 1.265625 -1.296875 L 0.921875 -0.8125 L 1.28125 -0.234375 C 1.3125 -0.191406 1.332031 -0.160156 1.34375 -0.140625 C 1.351562 -0.128906 1.363281 -0.117188 1.375 -0.109375 C 1.382812 -0.109375 1.398438 -0.101562 1.421875 -0.09375 L 1.59375 -0.078125 L 1.59375 0 L 0.859375 0 L 0.859375 -0.078125 L 1.015625 -0.09375 C 1.054688 -0.101562 1.078125 -0.113281 1.078125 -0.125 C 1.078125 -0.132812 1.054688 -0.171875 1.015625 -0.234375 L 0.75 -0.640625 L 0.46875 -0.234375 C 0.425781 -0.171875 0.40625 -0.132812 0.40625 -0.125 C 0.40625 -0.113281 0.421875 -0.101562 0.453125 -0.09375 Z M 0.609375 -0.078125 "/></g></g></g><g fill="#ffffff" fill-opacity="1"><g transform="translate(23.470021, 15.548386)"><g><path d="M 0.46875 -1.875 C 0.414062 -1.875 0.375 -1.890625 0.34375 -1.921875 C 0.3125 -1.953125 0.296875 -1.992188 0.296875 -2.046875 C 0.296875 -2.097656 0.3125 -2.140625 0.34375 -2.171875 C 0.375 -2.203125 0.414062 -2.21875 0.46875 -2.21875 C 0.519531 -2.21875 0.5625 -2.203125 0.59375 -2.171875 C 0.625 -2.140625 0.640625 -2.097656 0.640625 -2.046875 C 0.640625 -1.992188 0.625 -1.953125 0.59375 -1.921875 C 0.5625 -1.890625 0.519531 -1.875 0.46875 -1.875 Z M 0.109375 -1.453125 L 0.109375 -1.53125 L 0.59375 -1.53125 L 0.59375 -0.25 C 0.59375 -0.175781 0.597656 -0.132812 0.609375 -0.125 C 0.617188 -0.113281 0.640625 -0.101562 0.671875 -0.09375 L 0.84375 -0.078125 L 0.84375 0 L 0.109375 0 L 0.109375 -0.078125 L 0.28125 -0.09375 C 0.3125 -0.101562 0.328125 -0.113281 0.328125 -0.125 C 0.335938 -0.132812 0.34375 -0.175781 0.34375 -0.25 L 0.34375 -1.28125 C 0.34375 -1.351562 0.335938 -1.394531 0.328125 -1.40625 C 0.328125 -1.414062 0.3125 -1.425781 0.28125 -1.4375 Z M 0.109375 -1.453125 "/></g></g></g><g fill="#ffffff" fill-opacity="1"><g transform="translate(24.395961, 15.548386)"><g><path d="M 1.53125 -0.796875 L 1.53125 -0.734375 C 1.53125 -0.503906 1.472656 -0.316406 1.359375 -0.171875 C 1.242188 -0.0351562 1.078125 0.03125 0.859375 0.03125 C 0.648438 0.03125 0.484375 -0.0351562 0.359375 -0.171875 C 0.242188 -0.316406 0.1875 -0.503906 0.1875 -0.734375 L 0.1875 -0.796875 C 0.1875 -1.023438 0.242188 -1.207031 0.359375 -1.34375 C 0.472656 -1.488281 0.640625 -1.5625 0.859375 -1.5625 C 1.078125 -1.5625 1.242188 -1.488281 1.359375 -1.34375 C 1.472656 -1.207031 1.53125 -1.023438 1.53125 -0.796875 Z M 1.25 -0.859375 C 1.25 -1.078125 1.210938 -1.234375 1.140625 -1.328125 C 1.078125 -1.421875 0.984375 -1.46875 0.859375 -1.46875 C 0.734375 -1.46875 0.632812 -1.421875 0.5625 -1.328125 C 0.5 -1.234375 0.46875 -1.078125 0.46875 -0.859375 L 0.46875 -0.671875 C 0.46875 -0.453125 0.5 -0.296875 0.5625 -0.203125 C 0.632812 -0.109375 0.734375 -0.0625 0.859375 -0.0625 C 0.984375 -0.0625 1.078125 -0.109375 1.140625 -0.203125 C 1.210938 -0.296875 1.25 -0.453125 1.25 -0.671875 Z M 1.25 -0.859375 "/></g></g></g><g fill="#ffffff" fill-opacity="1"><g transform="translate(26.120872, 15.548386)"><g><path d="M 1.84375 -0.078125 L 1.84375 0 L 1.109375 0 L 1.109375 -0.078125 L 1.28125 -0.09375 C 1.3125 -0.101562 1.328125 -0.113281 1.328125 -0.125 C 1.335938 -0.132812 1.34375 -0.175781 1.34375 -0.25 L 1.34375 -1.015625 C 1.34375 -1.171875 1.316406 -1.28125 1.265625 -1.34375 C 1.222656 -1.40625 1.15625 -1.4375 1.0625 -1.4375 C 0.988281 -1.4375 0.910156 -1.414062 0.828125 -1.375 C 0.742188 -1.332031 0.664062 -1.253906 0.59375 -1.140625 L 0.59375 -0.25 C 0.59375 -0.175781 0.597656 -0.132812 0.609375 -0.125 C 0.617188 -0.113281 0.640625 -0.101562 0.671875 -0.09375 L 0.84375 -0.078125 L 0.84375 0 L 0.109375 0 L 0.109375 -0.078125 L 0.28125 -0.09375 C 0.3125 -0.101562 0.328125 -0.113281 0.328125 -0.125 C 0.335938 -0.132812 0.34375 -0.175781 0.34375 -0.25 L 0.34375 -1.28125 C 0.34375 -1.351562 0.335938 -1.394531 0.328125 -1.40625 C 0.328125 -1.414062 0.3125 -1.425781 0.28125 -1.4375 L 0.109375 -1.453125 L 0.109375 -1.53125 L 0.578125 -1.53125 L 0.578125 -1.28125 C 0.660156 -1.375 0.75 -1.441406 0.84375 -1.484375 C 0.9375 -1.535156 1.03125 -1.5625 1.125 -1.5625 C 1.269531 -1.5625 1.382812 -1.515625 1.46875 -1.421875 C 1.550781 -1.328125 1.59375 -1.195312 1.59375 -1.03125 L 1.59375 -0.25 C 1.59375 -0.175781 1.597656 -0.132812 1.609375 -0.125 C 1.617188 -0.113281 1.640625 -0.101562 1.671875 -0.09375 Z M 1.84375 -0.078125 "/></g></g></g></svg>